<svg width="426" height="120" viewBox="0 0 426 120" fill="none" xmlns="http://www.w3.org/2000/svg">
<ellipse cx="15.3346" cy="3.10675" rx="2.66667" ry="2.66925" fill="white"/>
<ellipse cx="43.9987" cy="3.10675" rx="2.66667" ry="2.66925" fill="white"/>
<ellipse cx="67.9987" cy="3.10675" rx="2.66667" ry="2.66925" fill="white"/>
<ellipse cx="93.9987" cy="3.10675" rx="2.66667" ry="2.66925" fill="white"/>
<rect y="72.5039" width="76.6667" height="9.34236" fill="#9796FE"/>
<rect x="132.668" y="72.5039" width="82.6667" height="9.34236" fill="#9796FE"/>
<path d="M10.496 13.4974V14.8974C10.496 17.9494 9.068 21.3654 4.448 22.7934L6.772 26.2934C12.12 24.6414 14.192 19.9374 14.192 14.8974V13.4974H10.496ZM11.42 13.4974V14.8974C11.42 19.7134 13.436 24.2494 18.644 25.8734L20.94 22.3734C16.488 20.9734 15.088 17.7814 15.088 14.8974V13.4974H11.42ZM5.596 12.2094V15.7654H19.876V12.2094H5.596ZM21.304 10.8374V26.6574H25.812V10.8374H21.304ZM24.58 16.8574V20.5534H29.088V16.8574H24.58ZM8.032 27.6654V31.2494H21.304V37.1014H25.812V27.6654H8.032ZM48.2098 10.8374V25.6214H52.7458V10.8374H48.2098ZM34.9938 26.6574V36.8494H52.7458V26.6574H34.9938ZM48.3218 30.1854V33.3214H39.4178V30.1854H48.3218ZM36.5338 11.7614V14.2534C36.5338 17.1654 35.1058 20.4134 30.4578 21.7574L32.6138 25.2854C38.1298 23.7174 40.2578 19.1534 40.2578 14.2534V11.7614H36.5338ZM37.4858 11.7614V14.2534C37.4858 19.0974 39.4738 23.3534 44.8498 24.8374L47.0058 21.3374C42.5258 20.1054 41.1538 17.1374 41.1538 14.2534V11.7614H37.4858ZM62.0956 12.1814V14.1694C62.0956 17.5014 60.6676 21.0014 56.0196 22.4854L58.3996 26.0414C63.7756 24.2774 65.7916 19.4614 65.7916 14.1694V12.1814H62.0956ZM63.0476 12.1814V14.0574C63.0476 19.1534 64.8956 23.6054 69.9636 25.3134L72.3156 21.8134C67.9756 20.4134 66.6876 17.1934 66.6876 14.0574V12.1814H63.0476ZM72.8196 10.8374V25.9014H77.3276V10.8374H72.8196ZM76.0956 16.4374V20.1054H80.6036V16.4374H76.0956ZM59.9396 26.8534V36.8494H77.3276V26.8534H59.9396ZM72.9316 30.3534V33.3214H64.3916V30.3534H72.9316ZM89.6734 11.4814C85.6134 11.4814 82.5334 14.0294 82.5334 17.5854C82.5334 21.1134 85.6134 23.6614 89.6734 23.6614C93.7334 23.6614 96.8134 21.1134 96.8134 17.5854C96.8134 14.0294 93.7334 11.4814 89.6734 11.4814ZM89.6734 15.1214C91.2694 15.1214 92.4454 15.9334 92.4454 17.5854C92.4454 19.2374 91.2694 20.0494 89.6734 20.0494C88.0774 20.0494 86.9014 19.2374 86.9014 17.5854C86.9014 15.9334 88.0774 15.1214 89.6734 15.1214ZM99.7254 10.8374V23.8014H104.261V10.8374H99.7254ZM86.4534 24.7534V28.1974H99.7814V29.1774H86.4814V35.1694H90.9334V32.3974H104.261V24.7534H86.4534ZM86.4814 33.3774V36.8494H104.793V33.3774H86.4814ZM110.895 22.5694V25.5374H129.123V22.5694H110.895ZM108.179 30.9694V34.0214H131.643V30.9694H108.179ZM118.007 23.9134V31.9494H121.731V23.9134H118.007ZM110.895 12.7694V23.8574H114.619V15.7654H128.927V12.7694H110.895ZM141.149 12.9374V15.9054H150.557V12.9374H141.149ZM143.445 18.9294V25.2014H146.861V18.9294H143.445ZM148.737 12.9374V14.6174C148.737 16.4374 148.737 18.6774 148.205 21.8134L151.649 22.1214C152.209 18.9574 152.209 16.4654 152.209 14.6174V12.9374H148.737ZM140.281 26.9654C143.697 26.9654 148.961 26.8534 153.077 26.0414L152.881 23.4094C148.877 23.9134 143.361 23.9974 139.917 23.9974L140.281 26.9654ZM159.181 11.0054V30.5494H162.709V11.0054H159.181ZM156.409 18.6774V21.7014H160.357V18.6774H156.409ZM153.917 11.5094V29.9894H157.389V11.5094H153.917ZM144.173 33.5174V36.4854H163.297V33.5174H144.173ZM144.173 28.6174V34.4974H147.953V28.6174H144.173ZM182.699 11.0054V24.1654H186.423V11.0054H182.699ZM184.939 16.4094V19.4334H189.867V16.4094H184.939ZM168.307 33.4894V36.4854H169.735C172.283 36.4854 174.299 36.3454 176.455 35.5894L175.895 32.7054C173.991 33.3494 172.003 33.4894 169.735 33.4894H168.307ZM168.307 26.3774V34.3294H171.919V26.3774H168.307ZM175.531 26.7134V29.3734H188.495V26.7134H175.531ZM182.027 29.9894C179.087 29.9894 177.015 31.3614 177.015 33.4614C177.015 35.5894 179.087 36.9614 182.027 36.9614C184.939 36.9614 187.011 35.5894 187.011 33.4614C187.011 31.3614 184.939 29.9894 182.027 29.9894ZM182.027 32.4534C182.923 32.4534 183.651 32.7614 183.651 33.4614C183.651 34.1894 182.923 34.4974 182.027 34.4974C181.103 34.4974 180.375 34.1894 180.375 33.4614C180.375 32.7614 181.103 32.4534 182.027 32.4534ZM180.235 24.8094V28.5894H183.847V24.8094H180.235ZM171.835 15.1214V16.0454C171.835 18.5654 169.987 21.0294 165.787 21.9534L167.411 24.8094C172.451 23.6614 174.831 20.1614 174.831 16.0454V15.1214H171.835ZM172.563 15.1214V16.0454C172.563 19.8534 174.971 23.1014 179.983 24.1374L181.523 21.3094C177.407 20.4694 175.559 18.2574 175.559 16.0454V15.1214H172.563ZM166.739 13.2454V16.1854H180.655V13.2454H166.739ZM171.835 10.9214V14.7854H175.559V10.9214H171.835ZM198.712 12.7974C194.764 12.7974 191.908 16.3814 191.908 22.0374C191.908 27.7494 194.764 31.3334 198.712 31.3334C202.66 31.3334 205.516 27.7494 205.516 22.0374C205.516 16.3814 202.66 12.7974 198.712 12.7974ZM198.712 16.1854C200.644 16.1854 201.96 18.2294 201.96 22.0374C201.96 25.9014 200.644 27.9734 198.712 27.9734C196.78 27.9734 195.492 25.9014 195.492 22.0374C195.492 18.2294 196.78 16.1854 198.712 16.1854ZM208.344 11.0054V36.9334H212.096V11.0054H208.344ZM211.256 20.7774V23.8574H215.848V20.7774H211.256ZM222.706 24.1654V31.4454H226.402V24.1654H222.706ZM232.114 24.1654V31.4454H235.838V24.1654H232.114ZM217.554 30.9134V33.9374H241.018V30.9134H217.554ZM229.258 12.2654C223.658 12.2654 219.57 15.0094 219.57 19.2374C219.57 23.4654 223.658 26.1814 229.258 26.1814C234.83 26.1814 238.946 23.4654 238.946 19.2374C238.946 15.0094 234.83 12.2654 229.258 12.2654ZM229.258 15.1774C232.87 15.1774 235.278 16.6614 235.278 19.2374C235.278 21.7854 232.87 23.2974 229.258 23.2974C225.646 23.2974 223.238 21.7854 223.238 19.2374C223.238 16.6614 225.646 15.1774 229.258 15.1774ZM246 27.3854H248.688L249.276 17.0534L249.388 13.1614H245.272L245.384 17.0534L246 27.3854ZM247.316 34.8334C248.8 34.8334 249.892 33.6854 249.892 32.1454C249.892 30.6054 248.8 29.4854 247.316 29.4854C245.86 29.4854 244.768 30.6054 244.768 32.1454C244.768 33.6854 245.86 34.8334 247.316 34.8334ZM11.812 74.8334C15.956 74.8334 19.512 72.6494 19.512 68.7574C19.512 66.0694 17.804 64.3894 15.508 63.6894V63.5494C17.72 62.6534 18.84 61.0294 18.84 58.9574C18.84 55.2334 16.012 53.2174 11.7 53.2174C9.236 53.2174 7.164 54.1694 5.232 55.7934L7.752 58.8454C9.012 57.7254 10.076 57.1094 11.476 57.1094C13.016 57.1094 13.856 57.8934 13.856 59.3214C13.856 60.9734 12.736 62.0374 9.18 62.0374V65.5654C13.548 65.5654 14.5 66.6294 14.5 68.4214C14.5 69.9894 13.24 70.8014 11.308 70.8014C9.684 70.8014 8.228 69.9614 6.968 68.7854L4.672 71.9214C6.184 73.6854 8.508 74.8334 11.812 74.8334ZM29.4625 51.4814C25.4025 51.4814 22.3225 54.0294 22.3225 57.5854C22.3225 61.1134 25.4025 63.6614 29.4625 63.6614C33.5225 63.6614 36.6025 61.1134 36.6025 57.5854C36.6025 54.0294 33.5225 51.4814 29.4625 51.4814ZM29.4625 55.1214C31.0585 55.1214 32.2345 55.9334 32.2345 57.5854C32.2345 59.2374 31.0585 60.0494 29.4625 60.0494C27.8665 60.0494 26.6905 59.2374 26.6905 57.5854C26.6905 55.9334 27.8665 55.1214 29.4625 55.1214ZM39.5145 50.8374V63.8014H44.0505V50.8374H39.5145ZM26.2425 64.7534V68.1974H39.5705V69.1774H26.2705V75.1694H30.7225V72.3974H44.0505V64.7534H26.2425ZM26.2705 73.3774V76.8494H44.5825V73.3774H26.2705ZM51.6083 67.2734V70.2134H66.3083V76.9334H70.0603V67.2734H51.6083ZM66.3083 51.0054V66.0694H70.0603V51.0054H66.3083ZM51.2163 52.4614V54.0294C51.2163 57.1934 50.4883 60.6374 47.4923 62.5414L49.5083 65.1734C52.9803 63.0174 53.8763 58.4254 53.8763 54.0294V52.4614H51.2163ZM52.1963 52.4614V54.0294C52.1963 58.2014 52.8683 63.1574 56.4523 65.4814L58.2163 62.7374C55.2763 60.6374 54.7443 57.0534 54.7443 54.0294V52.4614H52.1963ZM58.1603 52.4614V54.0294C58.1603 57.1094 57.6283 60.6654 54.7163 62.7374L56.4523 65.4814C60.0643 63.1574 60.7363 58.2574 60.7363 54.0294V52.4614H58.1603ZM59.0283 52.4614V54.0294C59.0283 58.5374 59.9243 63.0454 63.3963 65.1734L65.4123 62.5414C62.4163 60.6934 61.6603 57.2774 61.6603 54.0294V52.4614H59.0283ZM80.0699 70.9134V73.9374H103.534V70.9134H80.0699ZM89.8979 65.1734V71.6134H93.6219V65.1734H89.8979ZM82.5059 52.9094V65.6494H100.958V52.9094H82.5059ZM97.3179 55.8774V62.7094H86.1739V55.8774H97.3179ZM112.744 52.7974C108.796 52.7974 105.94 56.3814 105.94 62.0374C105.94 67.7494 108.796 71.3334 112.744 71.3334C116.692 71.3334 119.548 67.7494 119.548 62.0374C119.548 56.3814 116.692 52.7974 112.744 52.7974ZM112.744 56.1854C114.676 56.1854 115.992 58.2294 115.992 62.0374C115.992 65.9014 114.676 67.9734 112.744 67.9734C110.812 67.9734 109.524 65.9014 109.524 62.0374C109.524 58.2294 110.812 56.1854 112.744 56.1854ZM122.376 51.0054V76.9334H126.128V51.0054H122.376ZM125.288 60.7774V63.8574H129.88V60.7774H125.288ZM144.593 74.8334C148.737 74.8334 152.293 72.6494 152.293 68.7574C152.293 66.0694 150.585 64.3894 148.289 63.6894V63.5494C150.501 62.6534 151.621 61.0294 151.621 58.9574C151.621 55.2334 148.793 53.2174 144.481 53.2174C142.017 53.2174 139.945 54.1694 138.013 55.7934L140.533 58.8454C141.793 57.7254 142.857 57.1094 144.257 57.1094C145.797 57.1094 146.637 57.8934 146.637 59.3214C146.637 60.9734 145.517 62.0374 141.961 62.0374V65.5654C146.329 65.5654 147.281 66.6294 147.281 68.4214C147.281 69.9894 146.021 70.8014 144.089 70.8014C142.465 70.8014 141.009 69.9614 139.749 68.7854L137.453 71.9214C138.965 73.6854 141.289 74.8334 144.593 74.8334ZM162.916 74.8334C166.64 74.8334 169.776 72.1734 169.776 67.7494C169.776 63.2414 167.144 61.2254 163.672 61.2254C162.412 61.2254 160.48 62.0654 159.472 63.5494L159.696 66.7694C160.536 65.2574 161.684 64.7254 162.72 64.7254C164.092 64.7254 165.24 65.4814 165.24 67.7494C165.24 70.1294 164.12 71.1094 162.804 71.1094C161.236 71.1094 159.668 69.6254 159.668 64.1934C159.668 58.9574 161.46 57.1934 163.756 57.1934C164.904 57.1934 166.192 57.9214 166.864 58.6494L169.496 55.7094C168.18 54.3654 166.164 53.2174 163.42 53.2174C159.108 53.2174 155.132 56.6614 155.132 64.1934C155.132 71.7814 158.996 74.8334 162.916 74.8334ZM178.886 74.8334C182.89 74.8334 186.418 72.1174 186.418 67.4414C186.418 62.9334 183.45 60.8614 179.922 60.8614C179.138 60.8614 178.522 60.9734 177.766 61.2814L178.074 57.7534H185.494V53.5814H173.79L173.258 63.9134L175.442 65.3414C176.674 64.5574 177.234 64.3334 178.382 64.3334C180.174 64.3334 181.434 65.4534 181.434 67.5534C181.434 69.7094 180.174 70.8014 178.158 70.8014C176.506 70.8014 175.05 69.9334 173.874 68.8134L171.606 71.9494C173.258 73.5734 175.554 74.8334 178.886 74.8334ZM196.369 51.4814C192.309 51.4814 189.229 54.0294 189.229 57.5854C189.229 61.1134 192.309 63.6614 196.369 63.6614C200.429 63.6614 203.509 61.1134 203.509 57.5854C203.509 54.0294 200.429 51.4814 196.369 51.4814ZM196.369 55.1214C197.965 55.1214 199.141 55.9334 199.141 57.5854C199.141 59.2374 197.965 60.0494 196.369 60.0494C194.773 60.0494 193.597 59.2374 193.597 57.5854C193.597 55.9334 194.773 55.1214 196.369 55.1214ZM206.421 50.8374V63.8014H210.957V50.8374H206.421ZM193.149 64.7534V68.1974H206.477V69.1774H193.177V75.1694H197.629V72.3974H210.957V64.7534H193.149ZM193.177 73.3774V76.8494H211.489V73.3774H193.177ZM226.579 51.3694C220.643 51.3694 217.199 52.9374 217.199 55.7934C217.199 58.6494 220.643 60.2174 226.579 60.2174C232.487 60.2174 235.959 58.6494 235.959 55.7934C235.959 52.9374 232.487 51.3694 226.579 51.3694ZM226.579 54.0854C230.331 54.0854 232.095 54.6454 232.095 55.7934C232.095 56.9974 230.331 57.5014 226.579 57.5014C222.827 57.5014 221.063 56.9974 221.063 55.7934C221.063 54.6454 222.827 54.0854 226.579 54.0854ZM214.847 61.4214V64.3614H238.283V61.4214H214.847ZM217.535 65.8174V68.5894H231.787V69.9054H217.563V74.7774H221.231V72.4814H235.455V65.8174H217.535ZM217.563 73.9654V76.7654H236.127V73.9654H217.563ZM252.856 61.5054V65.4254H256.58V61.5054H252.856ZM254.676 52.0414C250.924 52.0414 248.208 54.1974 248.208 57.3334C248.208 60.4134 250.924 62.5694 254.676 62.5694C258.428 62.5694 261.144 60.4134 261.144 57.3334C261.144 54.1974 258.428 52.0414 254.676 52.0414ZM254.676 54.8414C256.468 54.8414 257.672 55.7374 257.672 57.3334C257.672 58.9014 256.468 59.7974 254.676 59.7974C252.912 59.7974 251.68 58.9014 251.68 57.3334C251.68 55.7374 252.912 54.8414 254.676 54.8414ZM263.804 51.0334V70.8014H267.528V51.0334H263.804ZM266.212 59.1534V62.2054H270.776V59.1534H266.212ZM250.224 73.4894V76.4854H268.396V73.4894H250.224ZM250.224 69.0934V74.7774H253.976V69.0934H250.224ZM247.284 67.4414C251.568 67.4414 257.448 67.3574 262.684 66.3774L262.432 63.7174C257.336 64.4454 251.26 64.4734 246.864 64.4734L247.284 67.4414ZM278.726 52.3494V54.6734C278.726 58.2294 276.906 61.7294 272.482 63.1574L274.414 66.1534C279.51 64.4454 281.834 59.8814 281.834 54.6734V52.3494H278.726ZM279.51 52.3494V54.5054C279.51 59.5454 281.582 63.7174 286.37 65.3694L288.302 62.4574C284.186 61.1414 282.506 57.9494 282.506 54.5054V52.3494H279.51ZM290.682 51.0054V66.1814H294.406V51.0054H290.682ZM285.614 66.8534C280.126 66.8534 276.738 68.7294 276.738 71.8934C276.738 75.0854 280.126 76.9334 285.614 76.9334C291.102 76.9334 294.49 75.0854 294.49 71.8934C294.49 68.7294 291.102 66.8534 285.614 66.8534ZM285.614 69.7374C289.002 69.7374 290.794 70.4374 290.794 71.8934C290.794 73.3494 289.002 74.0774 285.614 74.0774C282.254 74.0774 280.462 73.3494 280.462 71.8934C280.462 70.4374 282.254 69.7374 285.614 69.7374ZM285.95 55.7094V58.7334H291.214V55.7094H285.95ZM298.436 54.8974V57.8654H310.84V54.8974H298.436ZM304.68 59.0134C301.404 59.0134 298.996 61.5614 298.996 65.2014C298.996 68.8134 301.404 71.3614 304.68 71.3614C307.984 71.3614 310.364 68.8134 310.364 65.2014C310.364 61.5614 307.984 59.0134 304.68 59.0134ZM304.68 62.1214C306.08 62.1214 307.088 63.2414 307.088 65.2014C307.088 67.1614 306.08 68.2534 304.68 68.2534C303.28 68.2534 302.3 67.1614 302.3 65.2014C302.3 63.2414 303.28 62.1214 304.68 62.1214ZM317.196 51.0054V76.9334H320.752V51.0054H317.196ZM314.088 61.5334V64.5294H318.372V61.5334H314.088ZM311.764 51.4814V75.8414H315.236V51.4814H311.764ZM302.86 51.7054V56.7734H306.528V51.7054H302.86ZM331.797 53.0774V65.0054H344.873V53.0774H341.177V56.2414H335.493V53.0774H331.797ZM335.493 59.0974H341.177V62.0654H335.493V59.0974ZM336.501 64.1934V69.7934H340.225V64.1934H336.501ZM347.309 51.0054V76.9334H351.033V51.0054H347.309ZM349.885 61.3654V64.4454H354.449V61.3654H349.885ZM330.733 72.0894C335.101 72.1174 340.869 72.0894 346.245 71.0814L345.965 68.3934C340.813 69.0934 334.765 69.0654 330.285 69.0654L330.733 72.0894ZM361.503 64.1654V71.4454H365.199V64.1654H361.503ZM370.911 64.1654V71.4454H374.635V64.1654H370.911ZM356.351 70.9134V73.9374H379.815V70.9134H356.351ZM368.055 52.2654C362.455 52.2654 358.367 55.0094 358.367 59.2374C358.367 63.4654 362.455 66.1814 368.055 66.1814C373.627 66.1814 377.743 63.4654 377.743 59.2374C377.743 55.0094 373.627 52.2654 368.055 52.2654ZM368.055 55.1774C371.667 55.1774 374.075 56.6614 374.075 59.2374C374.075 61.7854 371.667 63.2974 368.055 63.2974C364.443 63.2974 362.035 61.7854 362.035 59.2374C362.035 56.6614 364.443 55.1774 368.055 55.1774Z" fill="white"/>
</svg>
