<svg width="1920" height="525" viewBox="0 0 1920 525" fill="none" xmlns="http://www.w3.org/2000/svg">
<mask id="mask0_2013_10371" style="mask-type:alpha" maskUnits="userSpaceOnUse" x="0" y="0" width="1920" height="517">
<rect width="1920" height="517" fill="#C4C4C4"/>
</mask>
<g mask="url(#mask0_2013_10371)">
<rect y="1" width="1920" height="517" fill="#ABB3FF"/>
<rect y="333" width="1920" height="185" fill="white"/>
<path d="M406.72 381.24H402.6V379.28H399.94V381.24H395.86V383.3H406.7L406.72 381.24ZM399.28 387.5C399.28 386.5 400.1 385.96 401.28 385.96C402.44 385.96 403.28 386.5 403.28 387.5C403.28 388.52 402.44 389.06 401.28 389.06C400.1 389.06 399.28 388.52 399.28 387.5ZM405.8 387.5C405.8 385.42 403.92 383.96 401.28 383.96C398.64 383.96 396.76 385.42 396.76 387.5C396.76 389.62 398.64 391.06 401.28 391.06C403.92 391.06 405.8 389.62 405.8 387.5ZM401.12 392.06H398.48V397.4H411.02V395.3H401.12V392.06ZM410.36 384.92V379.3H407.72V393.08H410.36V387.1H412.8V384.92H410.36ZM423.21 391.56C422.21 391.56 421.49 390.76 421.49 389.38C421.49 388 422.21 387.18 423.21 387.18C424.21 387.18 424.93 388 424.93 389.38C424.93 390.76 424.21 391.56 423.21 391.56ZM423.21 384.98C420.85 384.98 419.17 386.8 419.17 389.38C419.17 391.94 420.85 393.76 423.21 393.76C425.57 393.76 427.25 391.94 427.25 389.38C427.25 386.8 425.57 384.98 423.21 384.98ZM424.51 379.8H421.91V382.08H418.77V384.18H427.57V382.08H424.51V379.8ZM432.09 379.28V386.8H430.69V379.64H428.23V396.94H430.69V388.92H432.09V397.7H434.59V379.28H432.09ZM449.228 382.3H439.268V386.7H452.148V384.92H441.868V383.96H451.828V379.62H439.228V381.4H449.228V382.3ZM441.708 394.78H451.888V390.4H439.068V392.18H449.268V393.12H439.088V397.56H452.388V395.78H441.708V394.78ZM437.188 387.58V389.48H453.868V387.58H437.188ZM461.138 381.2V383.3H467.278C466.898 387.38 464.858 390.26 460.158 392.52L461.538 394.6C468.078 391.44 469.978 386.84 469.978 381.2H461.138ZM472.798 379.28V397.7H475.458V379.28H472.798ZM480.356 394.38H490.636V397.66H493.276V392.3H480.356V394.38ZM488.176 389.16V387.84H493.536V385.84H483.196V384.64H493.156V379.66H480.556V381.66H490.556V382.78H480.596V387.84H485.536V389.16H478.516V391.26H495.196V389.16H488.176ZM507.755 380.66H503.655V379.16H500.995V380.66H496.895V382.64H507.755V380.66ZM500.335 386.1C500.335 385.32 501.115 384.94 502.335 384.94C503.555 384.94 504.335 385.32 504.335 386.1C504.335 386.86 503.555 387.24 502.335 387.24C501.115 387.24 500.335 386.86 500.335 386.1ZM506.855 386.1C506.855 384.24 505.075 383.08 502.335 383.08C499.615 383.08 497.815 384.24 497.815 386.1C497.815 387.94 499.615 389.1 502.335 389.1C505.075 389.1 506.855 387.94 506.855 386.1ZM501.895 394.64H511.415V389.96H499.255V391.88H508.815V392.84H499.275V397.58H511.955V395.66H501.895V394.64ZM511.415 383.2V379.28H508.775V389.24H511.415V385.36H513.855V383.2H511.415ZM535.964 387.7C531.764 387.02 529.504 384.26 529.504 381.64V380.32H526.684V381.64C526.684 384.2 524.404 387.02 520.244 387.7L521.324 389.88C524.544 389.3 526.884 387.56 528.084 385.3C529.284 387.58 531.644 389.3 534.884 389.88L535.964 387.7ZM529.424 393.42V389.3H526.784V393.42H519.844V395.54H536.524V393.42H529.424ZM548.443 384.68H544.663V381.9H548.443V384.68ZM542.043 384.68H539.823V386.78H553.263V384.68H551.063V381.9H553.403V379.8H539.703V381.9H542.043V384.68ZM550.303 395.44H542.763V393.58H550.303V395.44ZM554.883 390.02V387.92H538.243V390.02H545.243V391.52H540.183V397.5H552.903V391.52H547.883V390.02H554.883ZM572.193 387.5C569.273 386.78 567.993 384.94 567.933 383.14H571.573V381.06H567.933V379.24H565.293V381.06H561.693V383.14H565.293C565.233 385.1 563.933 387.02 561.033 387.8L562.253 389.86C564.373 389.28 565.833 388.02 566.653 386.42C567.493 387.86 568.913 388.98 571.013 389.54L572.193 387.5ZM575.913 392.66V390.58H563.573V392.66H568.193C567.733 394.02 565.993 395.3 562.773 395.66L563.713 397.66C566.653 397.28 568.693 396.14 569.753 394.58C570.793 396.14 572.833 397.32 575.753 397.68L576.713 395.68C573.533 395.3 571.773 393.98 571.273 392.66H575.913ZM575.673 383.42V379.3H573.033V389.78H575.673V385.6H578.113V383.42H575.673ZM587.891 380.22C584.031 380.22 581.031 382.34 581.031 385.56C581.031 388.76 584.031 390.88 587.891 390.88C591.771 390.88 594.771 388.76 594.771 385.56C594.771 382.34 591.771 380.22 587.891 380.22ZM587.891 382.38C590.411 382.38 592.191 383.56 592.191 385.56C592.191 387.52 590.411 388.72 587.891 388.72C585.391 388.72 583.611 387.52 583.611 385.56C583.611 383.56 585.391 382.38 587.891 382.38ZM579.571 393.36V395.52H596.251V393.36H579.571ZM601.209 387.76H606.869V380.86H598.569V382.96H604.249V385.7H598.609V393.5H600.129C603.189 393.5 605.629 393.4 608.369 392.96L608.129 390.82C605.809 391.2 603.709 391.32 601.209 391.34V387.76ZM610.729 379.28V385.92H607.849V388.06H610.729V397.76H613.389V379.28H610.729ZM621.739 381.18V383.32H627.759C627.279 387.4 624.999 390.32 620.719 392.52L622.199 394.54C628.319 391.44 630.419 386.7 630.419 381.18H621.739ZM637.899 386.32H635.319V379.28H632.679V397.68H635.319V388.5H637.899V386.32ZM640.318 381.2V383.3H646.458C646.078 387.38 644.038 390.26 639.338 392.52L640.718 394.6C647.258 391.44 649.158 386.84 649.158 381.2H640.318ZM651.978 379.28V397.7H654.638V379.28H651.978Z" fill="white"/>
<path d="M687 388L673.5 395.794L673.5 380.206L687 388Z" fill="white"/>
<path d="M1501.19 402.828L1498.39 415.574L1506.89 425.199C1509.31 427.928 1507.66 432.337 1504.12 432.671L1491.6 433.834L1485.42 445.221C1483.68 448.445 1479.13 448.18 1477.73 444.784L1472.8 432.752L1460.48 430.161C1456.99 429.425 1455.82 424.854 1458.51 422.413L1467.98 413.812L1466.55 400.825C1466.14 397.14 1469.96 394.573 1473.02 396.484L1483.81 403.196L1495.24 397.762C1498.45 396.231 1501.98 399.224 1501.19 402.828Z" fill="#FFB64B"/>
<path d="M1560.82 176.052L1560.54 177.312L1561.4 178.271L1592.06 212.33L1592.06 212.331C1599.44 220.511 1594.33 233.622 1583.67 234.609C1583.67 234.609 1583.67 234.609 1583.67 234.609L1538.52 238.723L1537.2 238.844L1536.56 240.003L1514.28 280.296C1514.28 280.296 1514.28 280.296 1514.28 280.296C1508.99 289.862 1495.25 289.096 1491.02 278.992L1473.22 236.419L1472.71 235.201L1471.41 234.935L1426.98 225.769C1416.46 223.589 1412.82 209.971 1421.03 202.666L1421.03 202.665L1455.2 172.232L1456.17 171.371L1456.03 170.085L1450.83 124.129L1450.83 124.128C1449.58 113.046 1461.25 105.568 1470.4 111.181L1470.41 111.185L1509.33 134.936L1510.48 135.634L1511.69 135.068L1552.94 115.839L1552.94 115.837C1562.51 111.358 1573.33 120.09 1570.92 130.956L1560.82 176.052Z" stroke="#D9E1FC" stroke-width="5"/>
<path d="M1607.69 303.368L1606.74 302.511L1605.49 302.778L1590.71 305.914L1590.71 305.914C1588.42 306.401 1586.7 304.08 1587.54 302.23C1587.54 302.229 1587.54 302.229 1587.54 302.228L1593.73 288.762L1594.28 287.554L1593.58 286.424L1585.65 273.539C1585.65 273.539 1585.65 273.539 1585.65 273.539C1584.51 271.692 1585.95 269.434 1588.16 269.709C1588.16 269.709 1588.16 269.709 1588.16 269.709L1603.29 271.605L1604.6 271.77L1605.48 270.781L1615.36 259.684C1615.36 259.683 1615.36 259.683 1615.36 259.682C1616.74 258.134 1619.59 258.778 1620.07 261.019L1620.07 261.02L1623.24 275.669L1623.51 276.921L1624.69 277.428L1638.73 283.451L1638.73 283.451C1640.96 284.404 1640.89 287.149 1639.14 288.094L1639.14 288.097L1625.97 295.257L1624.78 295.905L1624.67 297.251L1623.46 312.076L1623.46 312.079C1623.31 313.978 1620.81 315.214 1619 313.583C1619 313.583 1619 313.583 1619 313.583L1607.69 303.368Z" fill="#D9E1FC" stroke="#D9E1FC" stroke-width="5"/>
<path d="M1549.45 404.277L1543.26 406.09L1541.24 412.203C1540.67 413.939 1538.35 414.259 1537.32 412.756L1533.69 407.439L1527.24 407.417C1525.41 407.406 1524.38 405.317 1525.5 403.868L1529.44 398.772L1527.47 392.637C1526.91 390.902 1528.59 389.277 1530.31 389.896L1536.39 392.073L1541.63 388.304C1543.11 387.243 1545.17 388.337 1545.12 390.161L1544.93 396.606L1550.13 400.419C1551.61 401.47 1551.2 403.769 1549.45 404.277Z" fill="#FB8C00"/>
<g filter="url(#filter0_d_2013_10371)">
<path d="M1427.69 580.374L1416.26 437.059C1406 365.494 1344.31 312.318 1271.54 312.318C1198.06 312.318 1136 366.499 1126.56 438.875L1116.37 580.686L1427.69 580.374Z" fill="#FFB64B"/>
<path d="M1272.02 357.652C1342.67 357.652 1399.94 305.69 1399.94 241.591C1399.94 177.493 1342.67 125.531 1272.02 125.531C1201.37 125.531 1144.1 177.493 1144.1 241.591C1144.1 305.69 1201.37 357.652 1272.02 357.652Z" fill="#FFB64B"/>
<path d="M1144.63 231.016C1133.92 226.992 1124.7 219.825 1118.19 210.468C1111.69 201.112 1108.2 190.01 1108.2 178.637C1108.2 147.716 1133.43 122.652 1164.56 122.652C1172.57 122.644 1180.49 124.337 1187.8 127.619C1195.1 130.901 1201.61 135.695 1206.89 141.681" fill="#FFB64B"/>
<path d="M1337.16 141.687C1342.45 135.698 1348.96 130.901 1356.26 127.618C1363.56 124.334 1371.49 122.64 1379.51 122.648C1410.63 122.648 1435.86 147.712 1435.86 178.633C1435.86 190.008 1432.37 201.112 1425.86 210.468C1419.35 219.825 1410.13 226.991 1399.42 231.012" fill="#FFB64B"/>
<path d="M1256.71 167.522C1253.05 167.522 1249.54 166.079 1246.96 163.509C1244.37 160.939 1242.91 157.454 1242.91 153.819V128.535C1246.9 127.684 1251.47 126.833 1256.23 126.279C1261.44 125.674 1266.1 125.586 1270.51 125.525V153.819C1270.51 157.453 1269.05 160.938 1266.46 163.508C1263.88 166.078 1260.37 167.522 1256.71 167.522Z" fill="#212121"/>
<path d="M1287.35 167.831C1291 167.83 1294.51 166.386 1297.1 163.816C1299.69 161.245 1301.14 157.76 1301.14 154.125V128.544C1297.04 127.66 1292.9 126.981 1288.74 126.509C1283.53 125.904 1277.95 125.586 1273.55 125.525V154.125C1273.55 157.76 1275 161.246 1277.59 163.817C1280.18 166.387 1283.69 167.831 1287.35 167.831Z" fill="#212121"/>
<path d="M1222.18 226.835C1227.14 226.835 1231.17 221.948 1231.17 215.92C1231.17 209.892 1227.14 205.005 1222.18 205.005C1217.21 205.005 1213.19 209.892 1213.19 215.92C1213.19 221.948 1217.21 226.835 1222.18 226.835Z" fill="#212121"/>
<path d="M1320.06 226.835C1325.03 226.835 1329.05 221.948 1329.05 215.92C1329.05 209.892 1325.03 205.005 1320.06 205.005C1315.1 205.005 1311.07 209.892 1311.07 215.92C1311.07 221.948 1315.1 226.835 1320.06 226.835Z" fill="#212121"/>
<path d="M1268.02 197.943H1276.04C1278.26 197.943 1280.46 198.378 1282.52 199.223C1284.57 200.068 1286.44 201.306 1288.01 202.868C1289.58 204.429 1290.83 206.282 1291.68 208.322C1292.53 210.362 1292.96 212.548 1292.96 214.756V235.992H1251.09V214.756C1251.09 210.297 1252.88 206.021 1256.05 202.868C1259.22 199.715 1263.53 197.943 1268.02 197.943Z" fill="#FB8C00"/>
<path opacity="0.8" d="M1272.04 335.702C1304.62 335.702 1331.03 312.268 1331.03 283.362C1331.03 254.456 1304.62 231.022 1272.04 231.022C1239.47 231.022 1213.06 254.456 1213.06 283.362C1213.06 312.268 1239.47 335.702 1272.04 335.702Z" fill="white"/>
<path d="M1271.17 256.164V295.245C1271.17 300.601 1268.07 305.539 1263.13 307.701C1261.55 308.428 1259.8 308.755 1258.06 308.655C1250.87 308.128 1240.12 298.879 1240.12 298.879" stroke="#FB8C00" stroke-width="8" stroke-miterlimit="10" stroke-linecap="round"/>
<path d="M1271.18 255.544V294.637C1271.18 299.99 1274.28 304.932 1279.21 307.09C1280.8 307.817 1282.55 308.145 1284.29 308.044C1291.47 307.517 1302.22 298.268 1302.22 298.268" stroke="#FB8C00" stroke-width="8" stroke-miterlimit="10" stroke-linecap="round"/>
<path d="M1298.39 264.095C1299.37 264.095 1299.37 262.581 1298.39 262.581C1297.41 262.581 1297.41 264.095 1298.39 264.095Z" fill="#212121"/>
<path d="M1313.97 263.901C1314.95 263.901 1314.95 262.387 1313.97 262.387C1312.98 262.387 1312.98 263.901 1313.97 263.901Z" fill="#212121"/>
<path d="M1306.57 274.003C1307.55 274.003 1307.56 272.489 1306.57 272.489C1305.59 272.489 1305.59 274.003 1306.57 274.003Z" fill="#212121"/>
<path d="M1230.11 264.292C1231.09 264.292 1231.09 262.778 1230.11 262.778C1229.13 262.778 1229.13 264.292 1230.11 264.292Z" fill="#212121"/>
<path d="M1245.66 264.095C1246.64 264.095 1246.64 262.581 1245.66 262.581C1244.68 262.581 1244.68 264.095 1245.66 264.095Z" fill="#212121"/>
<path d="M1238.29 274.202C1239.27 274.202 1239.28 272.688 1238.29 272.688C1237.31 272.688 1237.31 274.202 1238.29 274.202Z" fill="#212121"/>
<path d="M1157.77 192.699C1155.61 191.077 1153.79 189.047 1152.41 186.725C1151.04 184.402 1150.14 181.834 1149.77 179.165C1149.39 176.497 1149.55 173.782 1150.24 171.176C1150.92 168.569 1152.12 166.122 1153.75 163.975C1155.39 161.828 1157.44 160.023 1159.78 158.663C1162.12 157.303 1164.71 156.416 1167.4 156.051C1170.08 155.686 1172.82 155.852 1175.44 156.537C1178.06 157.223 1180.52 158.416 1182.68 160.048C1171.48 168.421 1162.86 179.727 1157.77 192.699Z" fill="#FB8C00"/>
<path d="M1386.29 192.702C1390.64 189.416 1393.49 184.553 1394.23 179.179C1394.97 173.805 1393.53 168.359 1390.24 164.036C1386.94 159.712 1382.05 156.865 1376.64 156.118C1371.23 155.371 1365.75 156.786 1361.39 160.051C1372.58 168.424 1381.21 179.73 1386.29 192.702Z" fill="#FB8C00"/>
<path d="M1218.22 580.699C1202.13 563.977 1192.06 547.912 1192.06 521.356C1192.06 470.794 1202.6 387.408 1273.56 387.408C1346.84 387.408 1355.07 470.791 1355.07 521.356C1355.07 547.924 1345.01 563.989 1328.91 580.714" fill="#FFF3E0"/>
<path d="M1196.42 333.068C1173.01 324.2 1146.52 312.431 1132.91 300.472C1105.24 276.163 1067.47 240.624 1067.47 240.624C1067.47 240.624 1076.78 223.993 1062.82 211.028C1048.7 197.927 1037.15 204.945 1037.15 204.945C1037.15 204.945 1024.81 183.909 999.91 199.571C974.372 215.636 986.527 234.617 986.527 234.617C986.527 234.617 973.577 246.164 980.492 262.017C987.408 277.87 1006.7 277.343 1006.7 277.343C1006.7 277.343 1036.1 339.269 1083.98 371.919C1094.75 379.27 1124.48 404.736 1134.76 410.674" fill="#FFB64B"/>
<path d="M1079.77 252.107C1079.77 252.107 1057.7 281.57 1066.66 293.856C1075.62 306.143 1094.4 265.671 1094.4 265.671" fill="#212121"/>
<path d="M1105.35 275.705C1105.35 275.705 1083.33 305.122 1092.31 317.408C1101.28 329.695 1120.15 289.124 1120.15 289.124" fill="#212121"/>
<path d="M1016.6 230.03C1020.04 227.635 1021.26 223.465 1019.32 220.716C1017.39 217.967 1013.02 217.68 1009.58 220.075C1006.14 222.47 1004.92 226.64 1006.86 229.389C1008.79 232.138 1013.16 232.425 1016.6 230.03Z" fill="#FFF3E0"/>
<path d="M1036.01 257.392C1043.14 252.434 1045.19 243.128 1040.6 236.606C1036 230.085 1026.49 228.818 1019.37 233.777C1012.24 238.735 1010.18 248.041 1014.78 254.563C1019.38 261.084 1028.88 262.351 1036.01 257.392Z" fill="#FFF3E0"/>
<path d="M1053.1 228.061C1054.02 224.645 1051.88 221.113 1048.32 220.171C1044.76 219.23 1041.14 221.235 1040.22 224.651C1039.3 228.067 1041.45 231.599 1045 232.541C1048.56 233.482 1052.19 231.477 1053.1 228.061Z" fill="#FFF3E0"/>
<path d="M1006.09 253.828C1007.01 250.412 1004.87 246.879 1001.31 245.938C997.751 244.996 994.125 247.002 993.209 250.418C992.293 253.834 994.434 257.366 997.991 258.307C1001.55 259.249 1005.17 257.243 1006.09 253.828Z" fill="#FFF3E0"/>
<path d="M1346.82 333.066C1370.23 324.198 1396.72 312.43 1410.33 300.47C1438 276.161 1475.77 240.622 1475.77 240.622C1475.77 240.622 1466.46 223.991 1480.42 211.027C1494.53 197.926 1506.09 204.944 1506.09 204.944C1506.09 204.944 1518.43 183.908 1543.33 199.579C1568.87 215.644 1556.71 234.624 1556.71 234.624C1556.71 234.624 1569.66 246.172 1562.75 262.025C1555.83 277.878 1536.54 277.351 1536.54 277.351C1536.54 277.351 1507.15 339.276 1459.26 371.927C1448.49 379.278 1418.76 404.744 1408.48 410.681" fill="#FFB64B"/>
<path d="M1463.49 252.107C1463.49 252.107 1485.56 281.57 1476.59 293.856C1467.63 306.143 1448.86 265.671 1448.86 265.671" fill="#212121"/>
<path d="M1437.89 275.705C1437.89 275.705 1459.91 305.122 1450.94 317.408C1441.96 329.695 1423.1 289.124 1423.1 289.124" fill="#212121"/>
<path d="M1536.41 229.388C1538.35 226.639 1537.13 222.469 1533.69 220.074C1530.25 217.68 1525.88 217.967 1523.95 220.716C1522.01 223.465 1523.23 227.635 1526.67 230.03C1530.12 232.425 1534.48 232.137 1536.41 229.388Z" fill="#FFF3E0"/>
<path d="M1528.48 254.564C1533.08 248.042 1531.03 238.736 1523.9 233.777C1516.77 228.819 1507.26 230.086 1502.67 236.607C1498.07 243.128 1500.12 252.435 1507.25 257.393C1514.38 262.352 1523.89 261.085 1528.48 254.564Z" fill="#FFF3E0"/>
<path d="M1498.26 232.509C1501.82 231.568 1503.96 228.035 1503.04 224.62C1502.12 221.204 1498.5 219.198 1494.94 220.14C1491.38 221.081 1489.24 224.614 1490.16 228.029C1491.07 231.445 1494.7 233.451 1498.26 232.509Z" fill="#FFF3E0"/>
<path d="M1545.28 258.268C1548.84 257.327 1550.98 253.794 1550.06 250.379C1549.15 246.963 1545.52 244.957 1541.96 245.899C1538.41 246.84 1536.27 250.373 1537.18 253.788C1538.1 257.204 1541.72 259.21 1545.28 258.268Z" fill="#FFF3E0"/>
<path d="M1147.28 267.435H1173.46C1175.95 267.453 1178.38 266.758 1180.47 265.434C1182.67 264.02 1184.76 261.686 1184.76 257.922C1184.76 249.996 1174.4 249.766 1174.4 249.766H1144.42C1144.61 252.306 1144.91 255.022 1145.35 257.883C1145.88 261.334 1146.55 264.523 1147.28 267.435Z" fill="#212121"/>
<path d="M1148.73 272.636H1175.19C1175.19 272.636 1182.2 272.842 1182.29 279.902C1182.37 286.963 1175.28 287.502 1175.28 287.502H1154.51C1153.4 285.158 1152.29 282.606 1151.23 279.851C1150.26 277.347 1149.43 274.928 1148.73 272.636Z" fill="#212121"/>
<path d="M1396.71 267.435H1370.53C1368.05 267.453 1365.62 266.758 1363.52 265.434C1361.33 264.02 1359.24 261.686 1359.24 257.922C1359.24 249.996 1369.6 249.766 1369.6 249.766H1399.58C1399.39 252.306 1399.09 255.022 1398.64 257.883C1398.11 261.334 1397.43 264.523 1396.71 267.435Z" fill="#212121"/>
<path d="M1395.37 272.636H1368.91C1368.91 272.636 1361.9 272.842 1361.82 279.902C1361.73 286.963 1368.83 287.502 1368.83 287.502H1389.6C1390.71 285.158 1391.82 282.606 1392.88 279.851C1393.85 277.347 1394.67 274.928 1395.37 272.636Z" fill="#212121"/>
<path d="M1271.18 256.163C1263.03 256.163 1255.83 251.825 1253.41 245.454L1250.63 238.155C1248.53 232.629 1253.57 223.991 1260.64 223.991H1283.44C1290.51 223.991 1295.55 232.629 1293.45 238.155L1291.18 244.104C1288.46 251.277 1280.35 256.163 1271.18 256.163Z" fill="#212121"/>
</g>
</g>
<defs>
<filter id="filter0_d_2013_10371" x="978.46" y="122.648" width="590.321" height="461.065" filterUnits="userSpaceOnUse" color-interpolation-filters="sRGB">
<feFlood flood-opacity="0" result="BackgroundImageFix"/>
<feColorMatrix in="SourceAlpha" type="matrix" values="0 0 0 0 0 0 0 0 0 0 0 0 0 0 0 0 0 0 127 0" result="hardAlpha"/>
<feOffset dx="4" dy="3"/>
<feComposite in2="hardAlpha" operator="out"/>
<feColorMatrix type="matrix" values="0 0 0 0 0.733333 0 0 0 0 0.697889 0 0 0 0 0.644722 0 0 0 0.5 0"/>
<feBlend mode="normal" in2="BackgroundImageFix" result="effect1_dropShadow_2013_10371"/>
<feBlend mode="normal" in="SourceGraphic" in2="effect1_dropShadow_2013_10371" result="shape"/>
</filter>
</defs>
</svg>
