<svg width="1280" height="345" viewBox="0 0 1280 345" fill="none" xmlns="http://www.w3.org/2000/svg">
<rect width="1280" height="344.667" fill="#FFE3E8"/>
<path d="M657.452 244.732C558.431 273.513 506.781 322.459 493.334 343.335H1280V120.145C1257.38 111.484 1191.8 99.3587 1110.38 120.145C1008.61 146.129 1034.28 194.098 927.468 226.077C820.653 258.056 781.228 208.755 657.452 244.732Z" fill="#FFD8DF"/>
<circle cx="1046.02" cy="116.668" r="56" fill="#FFF2F5" fill-opacity="0.7"/>
<path d="M817.657 108.473C819.963 105.037 821.502 103.35 825.358 101.42C827.734 101.825 828.679 102.665 829.348 105.777C825.252 107.908 823.503 109.416 821.648 112.83C820.854 110.813 820.188 109.774 817.657 108.473Z" fill="#FAA7B7"/>
<path d="M788.189 92.5149C788.567 88.1215 788.354 85.8073 786.754 82.1718C788.758 82.4213 789.889 82.3433 791.97 81.4479C793.759 85.0481 794.074 87.3941 793.406 91.791C791.359 92.7693 790.218 92.8457 788.189 92.5149Z" fill="#6196FE"/>
<path d="M792.515 143.71C788.527 141.76 786.775 140.09 785.118 136.339C787.312 135.419 787.881 134.272 789.085 132.358C790.591 135.599 792.286 137.232 796.482 139.728C795.84 141.938 794.941 142.796 792.515 143.71Z" fill="#A9B5FF"/>
<path d="M761.518 171.409C760.92 167.428 760.262 165.3 758.4 161.444C760.873 161.342 762.125 161.036 763.878 159.729C765.695 163.423 766.429 165.619 766.997 169.695C765.56 171.891 764.267 172.061 761.518 171.409Z" fill="#031B89"/>
<path d="M759.436 118.66C756.158 116.073 754.11 115.168 749.854 114.509C749.39 111.533 749.568 110.063 752.412 108.604C756.297 109.505 758.399 110.437 761.994 112.756C759.502 114.226 759.075 115.584 759.436 118.66Z" fill="#FA7B8C"/>
<path d="M729.125 146.664C729.361 142.24 730.026 140.05 732.218 136.69C734.268 138.525 735.583 138.822 738.364 138.596C736.141 141.607 735.651 143.962 735.271 148.57C732.691 149.336 731.488 149.062 729.125 146.664Z" fill="#6196FE"/>
<path d="M791.567 204.245C788.359 201.696 786.795 200.033 784.662 196.412C785.386 194.615 786.099 193.845 788.287 193.216C790.168 196.978 791.778 198.627 795.192 201.05C793.141 201.577 792.25 202.184 791.567 204.245Z" fill="#FB7A8E"/>
<path d="M849.684 84.7698C849.683 80.4711 850.248 78.2535 853.25 74.9552C854.745 76.0913 855.894 76.5478 858.474 76.8531C856.417 80.9006 855.566 83.0008 854.908 86.6677C852.822 87.6163 851.962 87.4363 849.684 84.7698Z" fill="#031B89"/>
<path d="M1003.45 95.1135C1006.77 92.7894 1008.32 91.1142 1010.62 87.5224C1011.63 89.9507 1012.48 90.8275 1014.76 91.4295C1012.55 95.2559 1010.9 96.7964 1007.59 99.0206C1005.28 98.2268 1004.36 97.2841 1003.45 95.1135Z" fill="#FB7A8E"/>
<path d="M1063 119.562C1062.02 115.495 1061.13 113.381 1058.53 110.123C1059.48 108.394 1060.3 107.929 1062.37 108.307C1065.05 111.41 1066.01 113.539 1066.83 117.747C1064.8 117.529 1064.03 118.051 1063 119.562Z" fill="#6196FE"/>
<path d="M1051.85 155.137C1055.78 156.332 1058.23 156.661 1062.26 156.037C1060.53 158.545 1060.63 159.903 1061.71 162.326C1057.73 163.333 1055.48 163.395 1051.31 161.426C1050.09 158.93 1049.82 157.538 1051.85 155.137Z" fill="#A9B5FF"/>
<path d="M1098.75 133.373C1099.84 128.956 1100.59 126.64 1103.08 123.868C1105.96 122.906 1107.1 123.754 1108.63 126.394C1105.99 129.459 1105.22 131.654 1104.31 135.898C1102.87 132.934 1101.65 132.286 1098.75 133.373Z" fill="#031B89"/>
<path d="M1082.17 91.8455C1081.48 87.6303 1081.68 85.3589 1083.92 81.5509C1085.48 82.7351 1086.51 82.7545 1088.47 82.3255C1086.72 86.1158 1086.46 88.3956 1086.72 92.6201C1085.1 93.4093 1084.14 93.3677 1082.17 91.8455Z" fill="#FAA7B8"/>
<path d="M1048.64 76.6509C1052.61 75.0781 1054.46 73.7798 1057.49 71.1094C1057.69 73.1199 1058.14 73.9428 1059.94 75.0264C1057.04 78.177 1055.11 79.4165 1051.09 80.5679C1049.01 79.4947 1048.63 78.7326 1048.64 76.6509Z" fill="#A9B5FF"/>
<path d="M1104.71 176.632C1108.79 176.31 1111.14 176.862 1114.97 178.538C1115.58 181.514 1115.19 182.717 1113.87 184.501C1110 182.769 1107.83 182.36 1103.6 182.596C1104.78 180.506 1105.22 179.258 1104.71 176.632Z" fill="#FB7A8E"/>
<path d="M1065.21 199.132C1068.09 196.45 1069.2 194.46 1070.23 189.975C1071.13 191.951 1072.17 192.365 1074.69 192.421C1073.67 197.197 1072.49 199.088 1069.67 201.578C1067.37 201.684 1066.39 201.256 1065.21 199.132Z" fill="#031B89"/>
<path d="M520.198 107.008C602.939 75.7736 646.098 22.6559 657.334 0.001297H0.000671387V242.212C18.8984 251.612 73.7017 264.771 141.733 242.212C226.773 214.015 205.322 161.957 294.575 127.253C383.828 92.5477 416.771 146.051 520.198 107.008Z" fill="#FFD8DF"/>
<ellipse cx="815.686" cy="248" rx="37.6667" ry="38" fill="#FFF7F8" fill-opacity="0.5"/>
<g filter="url(#filter0_d_2982_24390)">
<path d="M923.388 285.999L823.645 246.61V177.684L923.388 217.073V285.999Z" fill="#98E0FF"/>
<path d="M923.389 285.999L1023.13 246.61V177.684L923.389 217.073V285.999Z" fill="#96D6F2"/>
<path d="M923.388 217.021L820.008 176.163V139.039L923.388 180.004V217.021Z" fill="#AFE7FF"/>
<path d="M923.389 217.021L1026.77 176.163V139.039L923.389 180.004V217.021Z" fill="#AADFF6"/>
<path d="M1026.77 139.04L923.388 180.041L820.008 139.04L923.388 98.0391L1026.77 139.04Z" fill="#CBEFFF"/>
<path d="M885.082 270.875L861.66 261.625V192.625L885.082 201.945V270.875Z" fill="#FF97AE"/>
<path d="M961.549 270.933L984.971 261.684V192.758L961.549 201.943V270.933Z" fill="#EC8CA1"/>
<path d="M886.232 202.402L860.795 192.286V155.203L886.232 165.283V202.402Z" fill="#FFA7BA"/>
<path d="M960.543 202.339L985.979 192.286V155.219L960.543 165.283V202.339Z" fill="#F39FB2"/>
<path d="M860.795 155.209L886.232 165.286L989.612 124.284L964.175 114.219L860.795 155.209Z" fill="#FFBECD"/>
<path d="M985.978 155.209L960.542 165.286L857.162 124.284L882.598 114.219L985.978 155.209Z" fill="#FFBECD"/>
<path d="M915.075 135.318C911.012 130.956 910.081 124.447 912.949 119.228C913.773 117.732 914.861 116.397 916.16 115.289C917.849 113.846 919.829 112.822 922.087 112.709C924.357 112.579 926.635 112.709 928.876 113.096C934.347 114.082 938.139 119.206 937.383 124.714C937.367 124.825 937.352 124.939 937.333 125.052C936.307 131.438 923.385 139.038 923.385 139.038C923.385 139.038 934.048 131.633 923.277 129.585C918.473 128.674 916.736 137.06 916.736 137.06L915.075 135.318Z" fill="url(#paint0_linear_2982_24390)"/>
<path d="M935.4 117.123C935.4 117.123 950.524 103.818 956.302 104.094C962.079 104.37 964.757 123.343 964.757 123.343C964.757 123.343 958.432 117.569 952.038 119.425C945.645 121.281 936.998 126.291 936.998 126.291C937.485 124.746 937.594 123.107 937.316 121.512C937.038 119.916 936.38 118.411 935.398 117.123H935.4Z" fill="url(#paint1_linear_2982_24390)"/>
<path d="M936.996 126.293C936.996 126.293 946.339 120.914 952.035 119.427C958.704 117.684 964.754 123.345 964.754 123.345C964.754 123.345 957.283 123.325 951.922 125.855C946.561 128.385 936.996 126.293 936.996 126.293Z" fill="#FB6F8E"/>
<path d="M912.49 120.146C912.49 120.146 910.652 113.718 904.465 109.181C898.278 104.644 897.933 105.124 897.933 105.124C893.624 107.38 890.101 110.89 887.828 115.19C889.088 115.739 891.004 116.626 893.328 117.725C896.189 119.076 899.272 120.6 900.159 121.28C906.114 125.849 911.287 125.849 911.287 125.849C911.266 123.882 911.677 121.934 912.49 120.143V120.146Z" fill="url(#paint2_linear_2982_24390)"/>
<path d="M911.288 125.854C911.288 125.854 906.689 126.093 899.518 120.86C897.534 119.412 890.065 116.201 887.464 115.103C887.185 114.986 886.876 114.954 886.579 115.014C886.282 115.073 886.009 115.22 885.796 115.435C884.324 116.929 883.17 118.707 882.405 120.659C881.639 122.612 881.278 124.7 881.343 126.796C881.572 134.62 882.902 138.612 882.902 138.612C882.902 138.612 894.038 136.504 899.721 136.595C905.327 136.687 907.329 137.947 910.032 137.604C912.736 137.26 916.177 136.501 916.177 136.501C915.151 135.398 913.656 134.03 912.541 131.516C911.75 129.731 911.324 127.806 911.288 125.854Z" fill="url(#paint3_linear_2982_24390)"/>
<path d="M916.178 136.5C916.178 136.5 903.718 142.38 895.117 142.389C884.004 142.403 882.904 138.608 882.904 138.608C882.904 138.608 894.133 136.502 899.541 136.59C905.293 136.683 906.806 137.784 909.229 137.658C912.368 137.494 916.178 136.5 916.178 136.5Z" fill="#FB6F8E"/>
<path d="M936.996 126.291C936.996 126.291 946.776 128.087 951.263 126.134C955.593 124.243 957.554 124.094 960.16 123.673C961.682 123.455 963.217 123.345 964.754 123.344C964.754 123.344 965.808 127.972 963.424 131.593C961.041 135.213 955.955 142.386 955.955 142.386C955.955 142.386 954.625 140.667 950.075 140.256C944.289 139.732 942.893 141.265 938.08 140.485C934.37 139.884 926.51 137.019 926.51 137.019C929.013 135.418 931.321 133.531 933.387 131.394C936.799 127.79 936.996 126.291 936.996 126.291Z" fill="url(#paint4_linear_2982_24390)"/>
<path d="M926.516 137.02C926.516 137.02 931.032 141.81 933.266 142.534C935.5 143.257 939.037 142.942 941.545 143.492C944.054 144.041 946.141 146.231 950.437 145.234C954.734 144.237 955.961 142.398 955.961 142.398C955.961 142.398 954.228 140.306 948.468 140.167C944.066 140.062 943.471 140.797 939.894 140.698C937.689 140.638 933.711 139.411 933.711 139.411L926.516 137.02Z" fill="#FB6F8E"/>
<path d="M923.28 129.593C919.372 128.853 917.12 133.89 916.418 135.791C916.251 136.242 916.263 136.74 916.452 137.182C916.867 138.151 917.7 139.86 918.595 140.287C919.866 140.907 923.389 139.038 923.389 139.038C923.389 139.038 934.052 131.633 923.28 129.585" fill="#FB6F8E"/>
<path d="M886.704 141.316C886.704 141.316 882.293 144.94 878.479 145.488C874.665 146.036 868.889 144.486 855.586 151.807C842.283 159.128 842.387 176.25 842.387 176.25L853.524 171.094C853.524 171.094 854.04 173.741 856.832 178.037C858.506 180.621 860.52 182.968 862.819 185.016C862.819 185.016 870.142 164.907 876.947 159.336C881.379 155.713 886.729 153.09 889.923 151.702C891.528 151.003 893.21 150.498 894.934 150.197C898.539 149.567 905.573 148.247 908.502 147.065C916.671 143.757 919.943 140.349 919.943 140.349C919.665 140.419 919.378 140.446 919.092 140.429C918.384 140.418 917.612 139.359 917.55 139.24C917.271 138.806 917.017 138.356 916.788 137.894C916.563 137.441 916.363 136.976 916.19 136.5C907.666 140.19 902.976 141.455 898.975 142.065C892.116 143.107 886.704 141.316 886.704 141.316Z" fill="url(#paint5_linear_2982_24390)"/>
<path d="M919.93 140.347C922.337 139.721 924.582 138.586 926.513 137.02C929.857 140.419 932.332 142.299 933.264 142.534C935.421 143.074 941.236 143.288 942.112 143.636C944.642 144.668 947.089 145.483 947.089 145.483C947.089 145.483 958.295 155.515 963.382 162.528C968.469 169.54 972.047 182.464 972.047 182.464L961.552 180.039L951.699 191.978C951.699 191.978 945.099 161.702 937.485 154.425C930.153 147.416 931.9 149.329 924.388 145.483C920.365 143.428 919.93 140.347 919.93 140.347Z" fill="url(#paint6_linear_2982_24390)"/>
</g>
<defs>
<filter id="filter0_d_2982_24390" x="820.008" y="98.0391" width="216.76" height="197.961" filterUnits="userSpaceOnUse" color-interpolation-filters="sRGB">
<feFlood flood-opacity="0" result="BackgroundImageFix"/>
<feColorMatrix in="SourceAlpha" type="matrix" values="0 0 0 0 0 0 0 0 0 0 0 0 0 0 0 0 0 0 127 0" result="hardAlpha"/>
<feOffset dx="5" dy="5"/>
<feGaussianBlur stdDeviation="2.5"/>
<feComposite in2="hardAlpha" operator="out"/>
<feColorMatrix type="matrix" values="0 0 0 0 0.954167 0 0 0 0 0.747431 0 0 0 0 0.785513 0 0 0 1 0"/>
<feBlend mode="normal" in2="BackgroundImageFix" result="effect1_dropShadow_2982_24390"/>
<feBlend mode="normal" in="SourceGraphic" in2="effect1_dropShadow_2982_24390" result="shape"/>
</filter>
<linearGradient id="paint0_linear_2982_24390" x1="937.236" y1="125.739" x2="911.515" y2="125.739" gradientUnits="userSpaceOnUse">
<stop stop-color="#FFBECD"/>
<stop offset="0.260417" stop-color="#FAA6BA"/>
<stop offset="0.458333" stop-color="#FFB4C5"/>
<stop offset="0.6875" stop-color="#FFA8BC"/>
<stop offset="1" stop-color="#FFBECD"/>
</linearGradient>
<linearGradient id="paint1_linear_2982_24390" x1="964.935" y1="103.974" x2="935.257" y2="121.286" gradientUnits="userSpaceOnUse">
<stop stop-color="#FFA7BA"/>
<stop offset="1" stop-color="#FF7795"/>
</linearGradient>
<linearGradient id="paint2_linear_2982_24390" x1="891.976" y1="109.662" x2="912.504" y2="125.737" gradientUnits="userSpaceOnUse">
<stop stop-color="#FFA7BA"/>
<stop offset="1" stop-color="#FF6D8E"/>
</linearGradient>
<linearGradient id="paint3_linear_2982_24390" x1="912.751" y1="129.941" x2="881.342" y2="126.726" gradientUnits="userSpaceOnUse">
<stop stop-color="#FF97AE"/>
<stop offset="0.515625" stop-color="#FF86A1"/>
<stop offset="1" stop-color="#FF97AE"/>
</linearGradient>
<linearGradient id="paint4_linear_2982_24390" x1="964.935" y1="132.665" x2="926.353" y2="132.665" gradientUnits="userSpaceOnUse">
<stop stop-color="#FF85A0"/>
<stop offset="0.338542" stop-color="#FF97AE"/>
<stop offset="0.671875" stop-color="#FF839E"/>
<stop offset="1" stop-color="#FF97AE"/>
</linearGradient>
<linearGradient id="paint5_linear_2982_24390" x1="919.924" y1="136.622" x2="834.6" y2="179.902" gradientUnits="userSpaceOnUse">
<stop stop-color="#FFD3DD"/>
<stop offset="0.557292" stop-color="#FF94AC"/>
<stop offset="1" stop-color="#FFC2D0"/>
</linearGradient>
<linearGradient id="paint6_linear_2982_24390" x1="919.924" y1="131.673" x2="971.86" y2="192.019" gradientUnits="userSpaceOnUse">
<stop stop-color="#FFD3DD"/>
<stop offset="0.590653" stop-color="#FFA5BA"/>
<stop offset="1" stop-color="#FFC6D3"/>
</linearGradient>
</defs>
</svg>
