<svg width="638" height="174" viewBox="0 0 638 174" fill="none" xmlns="http://www.w3.org/2000/svg">
<circle cx="23" cy="4" r="4" fill="white"/>
<circle cx="66" cy="4" r="4" fill="white"/>
<circle cx="102" cy="4" r="4" fill="white"/>
<circle cx="141" cy="4" r="4" fill="white"/>
<rect y="108" width="115" height="14" fill="#9796FE"/>
<rect x="199" y="108" width="124" height="14" fill="#9796FE"/>
<path d="M31.41 32.898C25.404 31.008 23.094 26.934 22.716 22.986H29.814V17.652H8.394V22.986H15.66C15.24 27.228 12.888 31.554 6.63 33.528L10.158 38.82C14.61 37.392 17.508 34.62 19.23 31.134C20.994 34.284 23.808 36.846 27.966 38.148L31.41 32.898ZM12.048 46.212H31.956V55.032H38.76V40.878H12.048V46.212ZM43.674 24.624H38.76V15.594H31.956V39.366H38.76V30.126H43.674V24.624ZM70.5087 31.344C63.7887 29.496 61.7307 25.044 61.7307 20.718V16.98H54.8007V20.718C54.8007 25.086 52.6167 29.958 45.6447 31.974L48.9207 37.266C53.5407 35.964 56.5227 33.276 58.2867 29.874C60.0507 32.982 62.9067 35.376 67.2747 36.594L70.5087 31.344ZM59.1267 44.574H72.4827V49.32H59.1267V44.574ZM52.4487 54.57H79.1187V39.324H52.4487V54.57ZM72.3147 15.594V37.77H79.1187V15.594H72.3147ZM108.473 32.058C101.963 29.958 100.031 25.128 100.031 20.466V17.61H93.1014V20.634C93.1014 25.59 90.9594 30.84 83.9874 33.066L87.5994 38.4C92.0514 36.888 94.9914 34.074 96.6714 30.462C98.3514 33.528 100.997 36.006 104.945 37.308L108.473 32.058ZM96.5874 44.868H109.397V49.32H96.5874V44.868ZM89.9094 54.57H116.033V39.618H89.9094V54.57ZM120.947 23.994H116.033V15.594H109.229V38.19H116.033V29.496H120.947V23.994ZM156.392 15.552H149.588V35.04H156.392V15.552ZM130.352 25.674C130.352 23.196 132.116 21.978 134.51 21.978C136.904 21.978 138.668 23.196 138.668 25.674C138.668 28.152 136.904 29.412 134.51 29.412C132.116 29.412 130.352 28.152 130.352 25.674ZM145.22 25.674C145.22 20.382 140.6 16.56 134.51 16.56C128.42 16.56 123.8 20.382 123.8 25.674C123.8 31.008 128.42 34.83 134.51 34.83C140.6 34.83 145.22 31.008 145.22 25.674ZM136.4 49.404V47.934H156.392V36.51H129.638V41.634H149.672V43.104H129.68V54.57H157.232V49.404H136.4ZM182.597 45.708V37.644H193.643V33.192H172.013V23.028H193.349V18.576H166.427V37.644H177.053V45.708H162.353V50.244H197.381V45.708H182.597ZM236.041 31.848H238.729V45.078H243.979V15.93H238.729V27.396H236.041V16.728H230.875V44.238H236.041V31.848ZM227.515 32.52C228.313 27.816 228.313 24.078 228.313 21.306V18.828H211.849V23.238H223.189C223.147 25.59 223.021 28.446 222.391 32.058L227.515 32.52ZM229.321 34.452C226.633 34.788 223.483 34.998 220.291 35.124V27.774H215.251V35.25C213.277 35.292 211.513 35.292 209.959 35.292L210.505 39.702C215.629 39.702 223.525 39.534 229.657 38.4L229.321 34.452ZM221.929 49.53V42.18H216.301V53.94H244.819V49.53H221.929ZM272.284 31.302C266.236 30.084 263.422 26.934 263.338 23.658H270.94V19.332H263.338V15.846H257.794V19.332H250.234V23.658H257.794C257.71 27.354 254.938 30.924 248.806 32.31L251.2 36.594C255.862 35.46 259.012 33.024 260.734 29.832C262.54 32.562 265.564 34.62 269.974 35.502L272.284 31.302ZM257.92 38.904H252.544V53.94H254.686C258.466 53.94 261.49 53.772 264.682 52.68L263.926 48.312C261.994 48.942 259.978 49.278 257.92 49.404V38.904ZM272.998 51C271.612 51 270.562 50.496 270.562 49.446C270.562 48.396 271.612 47.934 272.998 47.934C274.384 47.934 275.476 48.396 275.476 49.446C275.476 50.496 274.384 51 272.998 51ZM272.998 44.238C268.672 44.238 265.522 46.254 265.522 49.446C265.522 52.638 268.672 54.654 272.998 54.654C277.366 54.654 280.474 52.638 280.474 49.446C280.474 46.254 277.366 44.238 272.998 44.238ZM275.77 36.51H270.394V39.366H263.338V43.314H282.7V39.366H275.77V36.51ZM279.592 23.994V15.93H274.048V35.586H279.592V28.488H284.716V23.994H279.592ZM298.153 41.214C295.255 41.214 293.323 38.148 293.323 32.394C293.323 26.682 295.255 23.616 298.153 23.616C301.009 23.616 302.983 26.682 302.983 32.394C302.983 38.148 301.009 41.214 298.153 41.214ZM298.153 18.618C292.273 18.618 287.989 23.91 287.989 32.394C287.989 40.92 292.273 46.254 298.153 46.254C303.991 46.254 308.317 40.92 308.317 32.394C308.317 23.91 303.991 18.618 298.153 18.618ZM323.689 30.504H318.061V15.93H312.517V54.612H318.061V35.082H323.689V30.504ZM339.645 38.232C340.989 38.484 342.375 38.61 343.887 38.61C345.399 38.61 346.827 38.484 348.171 38.232V45.624H339.645V38.232ZM343.887 22.188C349.263 22.188 352.875 24.372 352.875 28.236C352.875 32.058 349.263 34.284 343.887 34.284C338.511 34.284 334.941 32.058 334.941 28.236C334.941 24.372 338.511 22.188 343.887 22.188ZM353.673 45.624V36.174C356.571 34.368 358.335 31.596 358.335 28.236C358.335 21.894 352.245 17.82 343.887 17.82C335.571 17.82 329.481 21.894 329.481 28.236C329.439 31.596 331.203 34.368 334.143 36.174V45.624H326.415V50.118H361.443V45.624H353.673ZM369 40.416H373.032L373.914 24.918L374.124 19.08H367.908L368.118 24.918L369 40.416ZM371.016 51.588C373.2 51.588 374.88 49.824 374.88 47.556C374.88 45.246 373.2 43.524 371.016 43.524C368.832 43.524 367.194 45.246 367.194 47.556C367.194 49.824 368.832 51.588 371.016 51.588ZM17.718 115.588C23.934 115.588 29.268 112.312 29.268 106.474C29.268 102.442 26.706 99.922 23.262 98.872V98.662C26.58 97.318 28.26 94.882 28.26 91.774C28.26 86.188 24.018 83.164 17.55 83.164C13.854 83.164 10.746 84.592 7.848 87.028L11.628 91.606C13.518 89.926 15.114 89.002 17.214 89.002C19.524 89.002 20.784 90.178 20.784 92.32C20.784 94.798 19.104 96.394 13.77 96.394V101.686C20.322 101.686 21.75 103.282 21.75 105.97C21.75 108.322 19.86 109.54 16.962 109.54C14.526 109.54 12.342 108.28 10.452 106.516L7.008 111.22C9.276 113.866 12.762 115.588 17.718 115.588ZM66.0758 79.552H59.2718V99.04H66.0758V79.552ZM40.0358 89.674C40.0358 87.196 41.7998 85.978 44.1938 85.978C46.5878 85.978 48.3518 87.196 48.3518 89.674C48.3518 92.152 46.5878 93.412 44.1938 93.412C41.7998 93.412 40.0358 92.152 40.0358 89.674ZM54.9038 89.674C54.9038 84.382 50.2838 80.56 44.1938 80.56C38.1038 80.56 33.4838 84.382 33.4838 89.674C33.4838 95.008 38.1038 98.83 44.1938 98.83C50.2838 98.83 54.9038 95.008 54.9038 89.674ZM46.0838 113.404V111.934H66.0758V100.51H39.3218V105.634H59.3558V107.104H39.3638V118.57H66.9158V113.404H46.0838ZM98.0765 97.108C93.6245 94.336 92.4905 89.296 92.4905 84.424V82.03H87.3245V84.424C87.3245 87.868 86.8625 91.774 84.7625 94.798C82.6205 91.732 82.1585 87.826 82.1585 84.424V82.03H76.9505V84.424C76.9505 89.17 75.8165 94.294 71.3645 97.108L74.3465 101.014C76.9085 99.418 78.5465 96.94 79.5545 94.084C80.4785 97.066 82.0745 99.754 84.7625 101.476C87.4085 99.796 89.0045 97.15 89.9285 94.168C90.8945 97.024 92.5325 99.46 95.0945 101.014L98.0765 97.108ZM77.5385 108.574H99.4625V118.654H105.048V104.164H77.5385V108.574ZM99.4625 79.93V102.358H105.048V79.93H99.4625ZM129.303 87.154H145.977V97.402H129.303V87.154ZM140.433 109.624V101.77H151.395V82.786H123.885V101.77H134.889V109.624H120.189V114.118H155.217V109.624H140.433ZM169.2 105.214C166.302 105.214 164.37 102.148 164.37 96.394C164.37 90.682 166.302 87.616 169.2 87.616C172.056 87.616 174.03 90.682 174.03 96.394C174.03 102.148 172.056 105.214 169.2 105.214ZM169.2 82.618C163.32 82.618 159.036 87.91 159.036 96.394C159.036 104.92 163.32 110.254 169.2 110.254C175.038 110.254 179.364 104.92 179.364 96.394C179.364 87.91 175.038 82.618 169.2 82.618ZM194.736 94.504H189.108V79.93H183.564V118.612H189.108V99.082H194.736V94.504ZM216.89 115.588C223.106 115.588 228.44 112.312 228.44 106.474C228.44 102.442 225.878 99.922 222.434 98.872V98.662C225.752 97.318 227.432 94.882 227.432 91.774C227.432 86.188 223.19 83.164 216.722 83.164C213.026 83.164 209.918 84.592 207.02 87.028L210.8 91.606C212.69 89.926 214.286 89.002 216.386 89.002C218.696 89.002 219.956 90.178 219.956 92.32C219.956 94.798 218.276 96.394 212.942 96.394V101.686C219.494 101.686 220.922 103.282 220.922 105.97C220.922 108.322 219.032 109.54 216.134 109.54C213.698 109.54 211.514 108.28 209.624 106.516L206.18 111.22C208.448 113.866 211.934 115.588 216.89 115.588ZM244.08 100.426C246.138 100.426 247.86 101.56 247.86 104.962C247.86 108.532 246.18 110.002 244.206 110.002C242.232 110.002 240.3 108.448 239.67 103.24C240.804 101.224 242.526 100.426 244.08 100.426ZM244.374 115.588C249.96 115.588 254.664 111.598 254.664 104.962C254.664 98.2 250.716 95.176 245.508 95.176C243.744 95.176 241.098 96.268 239.544 98.242C239.838 91.438 242.4 89.128 245.634 89.128C247.356 89.128 249.288 90.22 250.296 91.312L254.244 86.902C252.27 84.886 249.246 83.164 245.13 83.164C238.662 83.164 232.698 88.33 232.698 99.628C232.698 111.01 238.494 115.588 244.374 115.588ZM268.329 115.588C274.335 115.588 279.627 111.514 279.627 104.5C279.627 97.738 275.175 94.63 269.883 94.63C268.707 94.63 267.783 94.798 266.649 95.26L267.111 89.968H278.241V83.71H260.685L259.887 99.208L263.163 101.35C265.011 100.174 265.851 99.838 267.573 99.838C270.261 99.838 272.151 101.518 272.151 104.668C272.151 107.902 270.261 109.54 267.237 109.54C264.759 109.54 262.575 108.238 260.811 106.558L257.409 111.262C259.887 113.698 263.331 115.588 268.329 115.588ZM316.435 79.552H309.631V99.04H316.435V79.552ZM290.395 89.674C290.395 87.196 292.159 85.978 294.553 85.978C296.947 85.978 298.711 87.196 298.711 89.674C298.711 92.152 296.947 93.412 294.553 93.412C292.159 93.412 290.395 92.152 290.395 89.674ZM305.263 89.674C305.263 84.382 300.643 80.56 294.553 80.56C288.463 80.56 283.843 84.382 283.843 89.674C283.843 95.008 288.463 98.83 294.553 98.83C300.643 98.83 305.263 95.008 305.263 89.674ZM296.443 113.404V111.934H316.435V100.51H289.681V105.634H309.715V107.104H289.723V118.57H317.275V113.404H296.443ZM339.868 84.55C345.496 84.55 348.142 85.348 348.142 87.07C348.142 88.876 345.496 89.632 339.868 89.632C334.282 89.632 331.636 88.876 331.636 87.07C331.636 85.348 334.282 84.55 339.868 84.55ZM339.868 93.664C348.73 93.664 353.896 91.354 353.896 87.07C353.896 82.828 348.73 80.476 339.868 80.476C331.048 80.476 325.882 82.828 325.882 87.07C325.882 91.354 331.048 93.664 339.868 93.664ZM331.93 111.976H353.098V102.022H326.386V106.096H347.638V108.154H326.428V118.318H354.106V114.16H331.93V111.976ZM322.396 95.512V99.838H357.34V95.512H322.396ZM377.604 89.338C377.604 86.986 379.41 85.642 382.056 85.642C384.702 85.642 386.592 86.986 386.592 89.338C386.592 91.69 384.702 93.034 382.056 93.034C379.41 93.034 377.604 91.69 377.604 89.338ZM393.648 98.914C390.876 99.334 387.852 99.544 384.87 99.712V96.94C388.986 96.016 391.716 93.118 391.716 89.338C391.716 84.718 387.684 81.484 382.056 81.484C376.47 81.484 372.438 84.718 372.438 89.338C372.438 93.16 375.21 96.058 379.326 96.94V99.922C376.134 100.006 373.068 100.006 370.422 100.006L371.094 104.416C377.478 104.416 386.172 104.29 393.984 102.82L393.648 98.914ZM381.006 106.936H375.462V117.94H402.51V113.53H381.006V106.936ZM401.208 92.068V79.93H395.664V109.456H401.208V96.646H406.08V92.068H401.208ZM435.981 102.61H441.525V79.93H435.981V86.986H428.925V91.48H435.981V102.61ZM432.453 97.024C426.321 95.05 423.801 90.346 423.801 85.138V81.946H418.173V85.39C418.173 90.724 415.443 95.974 408.849 98.074L411.747 102.526C416.325 100.972 419.391 97.864 421.113 93.916C422.751 97.36 425.481 100.006 429.555 101.392L432.453 97.024ZM428.463 114.37C423.381 114.37 420.735 113.32 420.735 111.136C420.735 108.91 423.381 107.86 428.463 107.86C433.503 107.86 436.149 108.91 436.149 111.136C436.149 113.32 433.503 114.37 428.463 114.37ZM428.463 103.576C420.231 103.576 415.191 106.348 415.191 111.136C415.191 115.84 420.231 118.612 428.463 118.612C436.653 118.612 441.693 115.84 441.693 111.136C441.693 106.348 436.653 103.576 428.463 103.576ZM457.104 105.676C455.004 105.676 453.492 103.996 453.492 101.098C453.492 98.2 455.004 96.478 457.104 96.478C459.204 96.478 460.716 98.2 460.716 101.098C460.716 103.996 459.204 105.676 457.104 105.676ZM457.104 91.858C452.148 91.858 448.62 95.68 448.62 101.098C448.62 106.474 452.148 110.296 457.104 110.296C462.06 110.296 465.588 106.474 465.588 101.098C465.588 95.68 462.06 91.858 457.104 91.858ZM459.834 80.98H454.374V85.768H447.78V90.178H466.26V85.768H459.834V80.98ZM475.752 79.888V95.68H472.812V80.644H467.646V116.974H472.812V100.132H475.752V118.57H481.002V79.888H475.752ZM503.24 92.026H511.808V96.436H503.24V92.026ZM510.338 100.804H517.31V83.038H511.808V87.784H503.24V83.038H497.78V100.804H504.794V106.81C501.476 106.852 498.326 106.852 495.554 106.852L496.226 111.346C502.694 111.388 511.304 111.388 519.41 109.876L518.948 105.844C516.218 106.222 513.278 106.432 510.338 106.6V100.804ZM531.59 95.428H526.508V79.93H520.964V118.57H526.508V100.006H531.59V95.428ZM547.841 102.232C549.185 102.484 550.571 102.61 552.083 102.61C553.595 102.61 555.023 102.484 556.367 102.232V109.624H547.841V102.232ZM552.083 86.188C557.459 86.188 561.071 88.372 561.071 92.236C561.071 96.058 557.459 98.284 552.083 98.284C546.707 98.284 543.137 96.058 543.137 92.236C543.137 88.372 546.707 86.188 552.083 86.188ZM561.869 109.624V100.174C564.767 98.368 566.531 95.596 566.531 92.236C566.531 85.894 560.441 81.82 552.083 81.82C543.767 81.82 537.677 85.894 537.677 92.236C537.635 95.596 539.399 98.368 542.339 100.174V109.624H534.611V114.118H569.639V109.624H561.869Z" fill="white"/>
</svg>
