<svg width="1280" height="353" viewBox="0 0 1280 353" fill="none" xmlns="http://www.w3.org/2000/svg">
<mask id="mask0_3004_25886" style="mask-type:alpha" maskUnits="userSpaceOnUse" x="0" y="0" width="1280" height="345">
<rect width="1280" height="345" fill="#C4C4C4"/>
</mask>
<g mask="url(#mask0_3004_25886)">
<rect y="0.667969" width="1280" height="345" fill="#ABB3FF"/>
<rect y="222.215" width="1280" height="123.453" fill="white"/>
<path d="M1000.8 268.811L998.93 277.316L1004.6 283.74C1006.2 285.56 1005.1 288.503 1002.74 288.726L994.4 289.502L990.283 297.101C989.117 299.252 986.085 299.075 985.156 296.809L981.865 288.78L973.654 287.051C971.33 286.559 970.548 283.509 972.341 281.88L978.656 276.141L977.697 267.474C977.424 265.016 979.976 263.302 982.013 264.578L989.206 269.057L996.827 265.43C998.967 264.409 1001.32 266.406 1000.8 268.811Z" fill="#FFB64B"/>
<path d="M1039.45 118.559L1039.73 117.3L1046.46 87.2087C1047.94 80.5795 1041.35 75.3797 1035.65 78.0525L1035.64 78.054L1008.15 90.8861L1006.93 91.4534L1005.79 90.7543L979.834 74.9044L979.828 74.901C974.359 71.5413 967.286 75.9893 968.05 82.739L968.05 82.7399L971.51 113.406L971.655 114.692L970.69 115.553L947.905 135.861L947.905 135.862C942.93 140.295 945.167 148.53 951.485 149.843L1039.45 118.559ZM1039.45 118.559L1040.31 119.518L1060.75 142.246L1060.76 142.247C1065.23 147.217 1062.1 155.137 1055.7 155.729L1025.6 158.475L1024.28 158.595L1023.64 159.756L1008.79 186.643C1005.6 192.412 997.336 191.959 994.783 185.855C994.783 185.855 994.783 185.855 994.783 185.854L982.911 157.445L982.403 156.227L981.11 155.96L951.487 149.844L1039.45 118.559Z" stroke="#D9E1FC" stroke-width="5"/>
<path d="M1072.36 201.828L1071.41 200.97L1070.15 201.237L1060.3 203.33L1060.3 203.33C1059.9 203.415 1059.53 203.273 1059.28 202.967C1059.02 202.664 1058.98 202.328 1059.12 202.026C1059.12 202.026 1059.12 202.026 1059.12 202.025L1063.24 193.04L1063.8 191.832L1063.1 190.701L1057.81 182.103C1057.81 182.103 1057.81 182.103 1057.81 182.103C1057.42 181.47 1057.88 180.709 1058.67 180.806L1068.75 182.072L1070.07 182.236L1070.95 181.248L1077.53 173.843C1077.53 173.842 1077.53 173.842 1077.53 173.841C1077.76 173.588 1078.09 173.485 1078.48 173.59C1078.87 173.696 1079.15 173.971 1079.23 174.359L1079.23 174.359L1081.34 184.135L1081.61 185.388L1082.79 185.896L1092.16 189.915L1092.16 189.915C1092.58 190.094 1092.76 190.426 1092.79 190.759C1092.81 191.084 1092.68 191.353 1092.36 191.521L1092.36 191.524L1083.58 196.302L1082.39 196.95L1082.28 198.296L1081.48 208.188L1081.48 208.192C1081.45 208.509 1081.27 208.742 1080.95 208.862C1080.61 208.984 1080.22 208.941 1079.89 208.645C1079.89 208.645 1079.89 208.644 1079.89 208.644L1072.36 201.828Z" fill="#D9E1FC" stroke="#D9E1FC" stroke-width="5"/>
<path d="M1032.96 269.781L1028.84 270.991L1027.49 275.07C1027.11 276.228 1025.57 276.442 1024.88 275.439L1022.46 271.891L1018.16 271.876C1016.94 271.868 1016.25 270.474 1017 269.508L1019.62 266.107L1018.31 262.013C1017.94 260.855 1019.06 259.771 1020.21 260.184L1024.26 261.637L1027.75 259.122C1028.74 258.413 1030.11 259.144 1030.08 260.361L1029.95 264.661L1033.42 267.206C1034.4 267.907 1034.13 269.441 1032.96 269.781Z" fill="#FB8C00"/>
<g filter="url(#filter0_d_3004_25886)">
<path d="M951.793 387.291L944.172 291.655C937.332 243.898 896.204 208.414 847.691 208.414C798.705 208.414 757.332 244.569 751.043 292.867L744.244 387.499L951.793 387.291Z" fill="#FFB64B"/>
<path d="M848.014 238.662C895.112 238.662 933.293 203.987 933.293 161.214C933.293 118.44 895.112 83.7656 848.014 83.7656C800.915 83.7656 762.734 118.44 762.734 161.214C762.734 203.987 800.915 238.662 848.014 238.662Z" fill="#FFB64B"/>
<path d="M763.086 154.16C755.948 151.474 749.801 146.692 745.463 140.448C741.124 134.205 738.8 126.796 738.799 119.207C738.799 98.5726 755.621 81.8477 776.371 81.8477C781.714 81.8419 786.996 82.9719 791.864 85.162C796.732 87.352 801.073 90.5515 804.596 94.5459" fill="#FFB64B"/>
<path d="M891.441 94.5481C894.964 90.5519 899.305 87.3509 904.174 85.1598C909.043 82.9687 914.326 81.838 919.671 81.8438C940.421 81.8438 957.243 98.5687 957.243 119.203C957.241 126.793 954.915 134.203 950.574 140.447C946.233 146.691 940.084 151.472 932.943 154.156" fill="#FFB64B"/>
<path d="M837.808 111.787C835.369 111.787 833.029 110.823 831.304 109.109C829.579 107.394 828.61 105.068 828.609 102.642V85.77C831.265 85.2023 834.315 84.6345 837.485 84.2648C840.959 83.8607 844.07 83.8021 847.004 83.7617V102.642C847.004 105.068 846.035 107.393 844.31 109.108C842.586 110.823 840.247 111.786 837.808 111.787Z" fill="#212121"/>
<path d="M858.23 111.993C860.669 111.992 863.008 111.028 864.733 109.313C866.457 107.598 867.426 105.272 867.426 102.846V85.7761C864.695 85.1861 861.935 84.7329 859.158 84.4184C855.684 84.0143 851.965 83.8021 849.031 83.7617V102.846C849.031 105.272 850 107.599 851.725 109.314C853.45 111.029 855.79 111.993 858.23 111.993Z" fill="#212121"/>
<path d="M814.786 151.368C818.096 151.368 820.779 148.107 820.779 144.084C820.779 140.062 818.096 136.801 814.786 136.801C811.476 136.801 808.793 140.062 808.793 144.084C808.793 148.107 811.476 151.368 814.786 151.368Z" fill="#212121"/>
<path d="M880.044 151.368C883.354 151.368 886.037 148.107 886.037 144.084C886.037 140.062 883.354 136.801 880.044 136.801C876.734 136.801 874.051 140.062 874.051 144.084C874.051 148.107 876.734 151.368 880.044 151.368Z" fill="#212121"/>
<path d="M845.346 132.09H850.694C852.175 132.09 853.643 132.38 855.012 132.944C856.381 133.508 857.624 134.334 858.672 135.376C859.72 136.418 860.551 137.655 861.118 139.016C861.685 140.377 861.977 141.836 861.977 143.309V157.48H834.062V143.309C834.062 140.334 835.251 137.48 837.367 135.376C839.483 133.272 842.353 132.09 845.346 132.09Z" fill="#FB8C00"/>
<path opacity="0.8" d="M848.027 224.018C869.744 224.018 887.35 208.38 887.35 189.091C887.35 169.801 869.744 154.164 848.027 154.164C826.309 154.164 808.703 169.801 808.703 189.091C808.703 208.38 826.309 224.018 848.027 224.018Z" fill="white"/>
<path d="M847.449 170.941V197.021C847.449 200.595 845.383 203.89 842.091 205.333C841.032 205.818 839.87 206.036 838.706 205.969C833.917 205.618 826.75 199.445 826.75 199.445" stroke="#FB8C00" stroke-width="5" stroke-miterlimit="10" stroke-linecap="round"/>
<path d="M847.451 170.527V196.615C847.451 200.187 849.518 203.484 852.809 204.925C853.869 205.41 855.032 205.628 856.197 205.561C860.984 205.21 868.15 199.037 868.15 199.037" stroke="#FB8C00" stroke-width="5" stroke-miterlimit="10" stroke-linecap="round"/>
<path d="M865.596 176.232C866.25 176.232 866.25 175.223 865.596 175.223C864.942 175.223 864.942 176.232 865.596 176.232Z" fill="#212121"/>
<path d="M875.976 176.103C876.63 176.103 876.632 175.094 875.976 175.094C875.32 175.094 875.322 176.103 875.976 176.103Z" fill="#212121"/>
<path d="M871.05 182.845C871.702 182.845 871.704 181.836 871.05 181.836C870.396 181.836 870.394 182.845 871.05 182.845Z" fill="#212121"/>
<path d="M820.077 176.365C820.73 176.365 820.732 175.355 820.077 175.355C819.423 175.355 819.421 176.365 820.077 176.365Z" fill="#212121"/>
<path d="M830.442 176.232C831.096 176.232 831.096 175.223 830.442 175.223C829.788 175.223 829.788 176.232 830.442 176.232Z" fill="#212121"/>
<path d="M825.529 182.978C826.183 182.978 826.185 181.969 825.529 181.969C824.872 181.969 824.874 182.978 825.529 182.978Z" fill="#212121"/>
<path d="M771.849 128.589C770.406 127.507 769.191 126.152 768.275 124.603C767.359 123.053 766.759 121.339 766.51 119.558C766.261 117.778 766.368 115.966 766.824 114.227C767.28 112.487 768.077 110.854 769.169 109.421C770.26 107.989 771.626 106.784 773.186 105.877C774.747 104.969 776.472 104.377 778.264 104.134C780.055 103.89 781.877 104.001 783.625 104.458C785.373 104.916 787.013 105.712 788.452 106.801C780.988 112.388 775.239 119.933 771.849 128.589Z" fill="#FB8C00"/>
<path d="M924.196 128.59C927.093 126.397 928.996 123.152 929.489 119.566C929.982 115.98 929.024 112.345 926.825 109.461C924.627 106.576 921.368 104.676 917.763 104.177C914.157 103.679 910.5 104.623 907.594 106.802C915.057 112.389 920.806 119.934 924.196 128.59Z" fill="#FB8C00"/>
<path d="M812.149 387.504C801.422 376.346 794.707 365.625 794.707 347.904C794.707 314.164 801.735 258.52 849.044 258.52C897.896 258.52 903.382 314.162 903.382 347.904C903.382 365.633 896.676 376.354 885.94 387.514" fill="#FFF3E0"/>
<path d="M797.612 222.261C782.007 216.343 764.344 208.49 755.271 200.509C736.83 184.287 711.648 160.572 711.648 160.572C711.648 160.572 717.854 149.474 708.546 140.822C699.136 132.08 691.433 136.763 691.433 136.763C691.433 136.763 683.21 122.725 666.607 133.177C649.582 143.897 657.685 156.563 657.685 156.563C657.685 156.563 649.051 164.269 653.662 174.848C658.272 185.427 671.136 185.075 671.136 185.075C671.136 185.075 690.732 226.399 722.651 248.187C729.836 253.092 749.655 270.086 756.509 274.048" fill="#FFB64B"/>
<path d="M719.844 168.234C719.844 168.234 705.133 187.895 711.107 196.094C717.081 204.293 729.597 177.286 729.597 177.286" fill="#212121"/>
<path d="M736.9 183.98C736.9 183.98 722.219 203.611 728.203 211.81C734.187 220.008 746.767 192.935 746.767 192.935" fill="#212121"/>
<path d="M677.733 153.5C680.028 151.901 680.842 149.119 679.55 147.284C678.258 145.45 675.35 145.258 673.055 146.856C670.759 148.454 669.946 151.237 671.238 153.072C672.529 154.906 675.437 155.098 677.733 153.5Z" fill="#FFF3E0"/>
<path d="M690.675 171.76C695.428 168.451 696.796 162.241 693.732 157.889C690.667 153.537 684.33 152.692 679.578 156.001C674.825 159.31 673.457 165.52 676.521 169.872C679.586 174.224 685.923 175.069 690.675 171.76Z" fill="#FFF3E0"/>
<path d="M702.069 152.187C702.68 149.908 701.252 147.551 698.881 146.922C696.509 146.294 694.092 147.633 693.481 149.912C692.87 152.191 694.297 154.548 696.669 155.177C699.04 155.805 701.458 154.467 702.069 152.187Z" fill="#FFF3E0"/>
<path d="M670.727 169.383C671.338 167.103 669.911 164.746 667.539 164.118C665.168 163.489 662.75 164.828 662.139 167.107C661.528 169.387 662.956 171.744 665.327 172.372C667.699 173 670.116 171.662 670.727 169.383Z" fill="#FFF3E0"/>
<path d="M897.879 222.258C913.484 216.341 931.147 208.487 940.22 200.507C958.663 184.285 983.843 160.569 983.843 160.569C983.843 160.569 977.637 149.471 986.948 140.82C996.355 132.078 1004.06 136.761 1004.06 136.761C1004.06 136.761 1012.28 122.723 1028.89 133.181C1045.91 143.901 1037.81 156.567 1037.81 156.567C1037.81 156.567 1046.44 164.273 1041.83 174.852C1037.22 185.43 1024.36 185.079 1024.36 185.079C1024.36 185.079 1004.76 226.402 972.842 248.19C965.659 253.096 945.838 270.09 938.984 274.052" fill="#FFB64B"/>
<path d="M975.659 168.234C975.659 168.234 990.373 187.895 984.397 196.094C978.421 204.293 965.906 177.286 965.906 177.286" fill="#212121"/>
<path d="M958.595 183.98C958.595 183.98 973.276 203.611 967.292 211.81C961.308 220.008 948.73 192.935 948.73 192.935" fill="#212121"/>
<path d="M1024.28 153.071C1025.57 151.237 1024.75 148.454 1022.46 146.856C1020.16 145.258 1017.26 145.449 1015.96 147.284C1014.67 149.118 1015.49 151.901 1017.78 153.499C1020.08 155.097 1022.98 154.906 1024.28 153.071Z" fill="#FFF3E0"/>
<path d="M1018.99 169.873C1022.05 165.521 1020.69 159.311 1015.93 156.002C1011.18 152.693 1004.84 153.538 1001.78 157.89C998.715 162.242 1000.08 168.452 1004.84 171.761C1009.59 175.07 1015.93 174.224 1018.99 169.873Z" fill="#FFF3E0"/>
<path d="M998.838 155.156C1001.21 154.527 1002.64 152.17 1002.03 149.891C1001.42 147.611 998.997 146.273 996.626 146.901C994.255 147.53 992.827 149.887 993.438 152.166C994.049 154.446 996.466 155.784 998.838 155.156Z" fill="#FFF3E0"/>
<path d="M1030.19 172.343C1032.56 171.715 1033.99 169.358 1033.38 167.078C1032.77 164.799 1030.35 163.461 1027.98 164.089C1025.61 164.717 1024.18 167.074 1024.79 169.354C1025.4 171.633 1027.82 172.971 1030.19 172.343Z" fill="#FFF3E0"/>
<path d="M764.855 178.463H782.31C783.964 178.475 785.587 178.011 786.983 177.127C788.446 176.184 789.84 174.626 789.84 172.115C789.84 166.825 782.931 166.672 782.931 166.672H762.943C763.071 168.367 763.27 170.179 763.567 172.089C763.923 174.392 764.37 176.519 764.855 178.463Z" fill="#212121"/>
<path d="M765.822 181.934H783.463C783.463 181.934 788.137 182.071 788.194 186.783C788.25 191.494 783.52 191.854 783.52 191.854H769.673C768.931 190.29 768.191 188.587 767.484 186.748C766.84 185.077 766.29 183.463 765.822 181.934Z" fill="#212121"/>
<path d="M931.142 178.463H913.69C912.036 178.475 910.413 178.011 909.017 177.127C907.554 176.184 906.16 174.626 906.16 172.115C906.16 166.825 913.069 166.672 913.069 166.672H933.055C932.924 168.367 932.725 170.179 932.431 172.089C932.077 174.392 931.622 176.519 931.142 178.463Z" fill="#212121"/>
<path d="M930.251 181.934H912.608C912.608 181.934 907.934 182.071 907.879 186.783C907.825 191.494 912.553 191.854 912.553 191.854H926.402C927.144 190.29 927.884 188.587 928.591 186.748C929.233 185.077 929.781 183.463 930.251 181.934Z" fill="#212121"/>
<path d="M847.452 170.942C842.023 170.942 837.223 168.046 835.606 163.795L833.755 158.924C832.353 155.237 835.714 149.473 840.424 149.473H855.628C860.338 149.473 863.699 155.237 862.297 158.924L860.787 162.894C858.971 167.681 853.566 170.942 847.452 170.942Z" fill="#212121"/>
</g>
</g>
<defs>
<filter id="filter0_d_3004_25886" x="652.307" y="81.8438" width="394.879" height="308.672" filterUnits="userSpaceOnUse" color-interpolation-filters="sRGB">
<feFlood flood-opacity="0" result="BackgroundImageFix"/>
<feColorMatrix in="SourceAlpha" type="matrix" values="0 0 0 0 0 0 0 0 0 0 0 0 0 0 0 0 0 0 127 0" result="hardAlpha"/>
<feOffset dx="4" dy="3"/>
<feComposite in2="hardAlpha" operator="out"/>
<feColorMatrix type="matrix" values="0 0 0 0 0.733333 0 0 0 0 0.697889 0 0 0 0 0.644722 0 0 0 0.5 0"/>
<feBlend mode="normal" in2="BackgroundImageFix" result="effect1_dropShadow_3004_25886"/>
<feBlend mode="normal" in="SourceGraphic" in2="effect1_dropShadow_3004_25886" result="shape"/>
</filter>
</defs>
</svg>
