<svg width="1920" height="517" viewBox="0 0 1920 517" fill="none" xmlns="http://www.w3.org/2000/svg">
<rect width="1920" height="517" fill="#FFE3E8"/>
<path d="M986.177 367.095C837.646 410.268 760.171 483.687 740 515H1920V180.216C1886.08 167.224 1787.7 149.036 1665.57 180.216C1512.91 219.191 1551.42 291.144 1391.2 339.113C1230.98 387.083 1171.84 313.13 986.177 367.095Z" fill="#FFD8DF"/>
<circle cx="1569.03" cy="175" r="84" fill="#FFF2F5" fill-opacity="0.7"/>
<path d="M1226.49 162.711C1229.95 157.556 1232.25 155.025 1238.04 152.131C1241.6 152.738 1243.02 153.999 1244.02 158.667C1237.88 161.863 1235.25 164.126 1232.47 169.246C1231.28 166.221 1230.28 164.662 1226.49 162.711Z" fill="#FAA7B7"/>
<path d="M1182.28 138.772C1182.85 132.182 1182.53 128.711 1180.13 123.258C1183.14 123.632 1184.83 123.515 1187.96 122.172C1190.64 127.572 1191.11 131.091 1190.11 137.687C1187.04 139.154 1185.33 139.269 1182.28 138.772Z" fill="#6196FE"/>
<path d="M1188.77 215.567C1182.79 212.642 1180.16 210.136 1177.68 204.511C1180.97 203.131 1181.82 201.411 1183.63 198.539C1185.89 203.4 1188.43 205.85 1194.72 209.594C1193.76 212.909 1192.41 214.197 1188.77 215.567Z" fill="#A9B5FF"/>
<path d="M1142.28 257.115C1141.38 251.142 1140.39 247.951 1137.6 242.166C1141.31 242.014 1143.19 241.555 1145.82 239.594C1148.54 245.136 1149.64 248.43 1150.49 254.543C1148.34 257.837 1146.4 258.092 1142.28 257.115Z" fill="#031B89"/>
<path d="M1139.15 177.989C1134.24 174.108 1131.17 172.751 1124.78 171.762C1124.09 167.299 1124.35 165.094 1128.62 162.905C1134.45 164.257 1137.6 165.654 1142.99 169.132C1139.25 171.338 1138.61 173.375 1139.15 177.989Z" fill="#FA7B8C"/>
<path d="M1093.69 219.996C1094.04 213.36 1095.04 210.075 1098.33 205.036C1101.4 207.788 1103.38 208.234 1107.55 207.895C1104.21 212.411 1103.48 215.944 1102.91 222.855C1099.04 224.005 1097.23 223.595 1093.69 219.996Z" fill="#6196FE"/>
<path d="M1187.35 306.369C1182.54 302.545 1180.19 300.05 1176.99 294.619C1178.08 291.924 1179.15 290.769 1182.43 289.825C1185.25 295.468 1187.67 297.941 1192.79 301.575C1189.71 302.367 1188.38 303.277 1187.35 306.369Z" fill="#FB7A8E"/>
<path d="M1274.53 127.157C1274.52 120.709 1275.37 117.382 1279.87 112.435C1282.12 114.139 1283.84 114.824 1287.71 115.282C1284.62 121.353 1283.35 124.503 1282.36 130.004C1279.23 131.426 1277.94 131.156 1274.53 127.157Z" fill="#031B89"/>
<path d="M1505.18 142.668C1510.15 139.182 1512.48 136.669 1515.93 131.282C1517.44 134.924 1518.72 136.239 1522.14 137.142C1518.82 142.882 1516.35 145.193 1511.38 148.529C1507.92 147.338 1506.54 145.924 1505.18 142.668Z" fill="#FB7A8E"/>
<path d="M1594.5 179.342C1593.03 173.24 1591.7 170.07 1587.8 165.182C1589.22 162.59 1590.45 161.891 1593.56 162.459C1597.57 167.114 1599.02 170.307 1600.25 176.618C1597.2 176.292 1596.05 177.075 1594.5 179.342Z" fill="#6196FE"/>
<path d="M1577.78 232.702C1583.67 234.495 1587.35 234.989 1593.39 234.052C1590.8 237.815 1590.94 239.852 1592.57 243.486C1586.6 244.996 1583.22 245.09 1576.97 242.136C1575.14 238.392 1574.73 236.305 1577.78 232.702Z" fill="#A9B5FF"/>
<path d="M1648.13 200.06C1649.76 193.434 1650.88 189.96 1654.62 185.803C1658.94 184.361 1660.64 185.632 1662.95 189.592C1658.98 194.189 1657.83 197.482 1656.46 203.849C1654.31 199.402 1652.47 198.43 1648.13 200.06Z" fill="#031B89"/>
<path d="M1623.25 137.769C1622.21 131.446 1622.52 128.039 1625.88 122.327C1628.23 124.104 1629.77 124.133 1632.71 123.489C1630.08 129.175 1629.69 132.594 1630.08 138.931C1627.65 140.115 1626.22 140.053 1623.25 137.769Z" fill="#FAA7B8"/>
<path d="M1572.95 114.976C1578.91 112.617 1581.69 110.67 1586.23 106.664C1586.53 109.68 1587.21 110.914 1589.91 112.54C1585.57 117.265 1582.67 119.125 1576.63 120.852C1573.51 119.242 1572.95 118.099 1572.95 114.976Z" fill="#A9B5FF"/>
<path d="M1657.06 264.948C1663.18 264.464 1666.71 265.292 1672.46 267.806C1673.37 272.27 1672.78 274.074 1670.8 276.751C1665 274.153 1661.74 273.54 1655.4 273.893C1657.17 270.758 1657.83 268.886 1657.06 264.948Z" fill="#FB7A8E"/>
<path d="M1597.82 298.7C1602.13 294.677 1603.8 291.692 1605.35 284.965C1606.7 287.929 1608.26 288.55 1612.04 288.634C1610.5 295.797 1608.73 298.634 1604.51 302.369C1601.06 302.528 1599.58 301.886 1597.82 298.7Z" fill="#031B89"/>
<path d="M780.296 160.51C904.408 113.658 969.145 33.9818 986 -3.05176e-05H6.10352e-05V363.317C28.3466 377.416 110.552 397.154 212.599 363.317C340.159 321.02 307.981 242.934 441.861 190.877C575.741 138.82 625.156 219.075 780.296 160.51Z" fill="#FFD8DF"/>
<ellipse cx="1223.53" cy="372" rx="56.5" ry="57" fill="#FFF7F8" fill-opacity="0.5"/>
<g filter="url(#filter0_d_2199_16603)">
<path d="M1385.08 429.001L1235.47 369.917V266.527L1385.08 325.612V429.001Z" fill="#98E0FF"/>
<path d="M1385.08 429.001L1534.7 369.917V266.527L1385.08 325.612V429.001Z" fill="#96D6F2"/>
<path d="M1385.08 325.532L1230.01 264.246V208.56L1385.08 270.007V325.532Z" fill="#AFE7FF"/>
<path d="M1385.08 325.532L1540.15 264.246V208.56L1385.08 270.007V325.532Z" fill="#AADFF6"/>
<path d="M1540.15 208.56L1385.08 270.062L1230.01 208.56L1385.08 147.059L1540.15 208.56Z" fill="#CBEFFF"/>
<path d="M1327.62 406.314L1292.49 392.44V288.939L1327.62 302.92V406.314Z" fill="#FF97AE"/>
<path d="M1442.32 406.397L1477.46 392.523V289.134L1442.32 302.911V406.397Z" fill="#EC8CA1"/>
<path d="M1329.35 303.602L1291.19 288.428V232.804L1329.35 247.923V303.602Z" fill="#FFA7BA"/>
<path d="M1440.81 303.507L1478.97 288.427V232.826L1440.81 247.922V303.507Z" fill="#F39FB2"/>
<path d="M1291.19 232.811L1329.35 247.926L1484.42 186.425L1446.26 171.326L1291.19 232.811Z" fill="#FFBECD"/>
<path d="M1478.97 232.811L1440.81 247.926L1285.74 186.425L1323.9 171.326L1478.97 232.811Z" fill="#FFBECD"/>
<path d="M1372.61 202.976C1366.52 196.432 1365.12 186.67 1369.42 178.841C1370.66 176.597 1372.29 174.595 1374.24 172.933C1376.77 170.768 1379.74 169.232 1383.13 169.062C1386.54 168.868 1389.95 169.063 1393.31 169.643C1401.52 171.123 1407.21 178.808 1406.07 187.069C1406.05 187.237 1406.03 187.407 1406 187.577C1404.46 197.155 1385.08 208.555 1385.08 208.555C1385.08 208.555 1401.07 197.448 1384.91 194.376C1377.71 193.01 1375.1 205.589 1375.1 205.589L1372.61 202.976Z" fill="url(#paint0_linear_2199_16603)"/>
<path d="M1403.1 175.686C1403.1 175.686 1425.79 155.729 1434.45 156.142C1443.12 156.556 1447.14 185.015 1447.14 185.015C1447.14 185.015 1437.65 176.354 1428.06 179.138C1418.47 181.922 1405.5 189.437 1405.5 189.437C1406.23 187.12 1406.39 184.662 1405.97 182.269C1405.56 179.876 1404.57 177.618 1403.1 175.686H1403.1Z" fill="url(#paint1_linear_2199_16603)"/>
<path d="M1405.5 189.439C1405.5 189.439 1419.51 181.371 1428.05 179.14C1438.06 176.527 1447.13 185.018 1447.13 185.018C1447.13 185.018 1435.93 184.987 1427.88 188.782C1419.84 192.577 1405.5 189.439 1405.5 189.439Z" fill="#FB6F8E"/>
<path d="M1368.74 180.221C1368.74 180.221 1365.98 170.579 1356.7 163.773C1347.42 156.967 1346.9 157.688 1346.9 157.688C1340.44 161.072 1335.15 166.337 1331.74 172.786C1333.63 173.611 1336.51 174.942 1339.99 176.589C1344.28 178.616 1348.91 180.902 1350.24 181.922C1359.17 188.776 1366.93 188.776 1366.93 188.776C1366.9 185.825 1367.52 182.903 1368.74 180.216V180.221Z" fill="url(#paint2_linear_2199_16603)"/>
<path d="M1366.93 188.784C1366.93 188.784 1360.03 189.143 1349.28 181.292C1346.3 179.121 1335.1 174.305 1331.2 172.657C1330.78 172.481 1330.32 172.435 1329.87 172.523C1329.42 172.612 1329.01 172.833 1328.69 173.156C1326.49 175.397 1324.76 178.063 1323.61 180.992C1322.46 183.921 1321.92 187.052 1322.02 190.197C1322.36 201.932 1324.35 207.921 1324.35 207.921C1324.35 207.921 1341.06 204.759 1349.58 204.896C1357.99 205.033 1360.99 206.924 1365.05 206.408C1369.1 205.893 1374.27 204.754 1374.27 204.754C1372.73 203.1 1370.48 201.049 1368.81 197.277C1367.63 194.599 1366.99 191.712 1366.93 188.784Z" fill="url(#paint3_linear_2199_16603)"/>
<path d="M1374.27 204.748C1374.27 204.748 1355.58 213.567 1342.67 213.582C1326 213.603 1324.36 207.91 1324.36 207.91C1324.36 207.91 1341.2 204.75 1349.31 204.883C1357.94 205.022 1360.21 206.674 1363.84 206.485C1368.55 206.239 1374.27 204.748 1374.27 204.748Z" fill="#FB6F8E"/>
<path d="M1405.5 189.436C1405.5 189.436 1420.17 192.13 1426.9 189.2C1433.39 186.364 1436.33 186.14 1440.24 185.509C1442.52 185.181 1444.83 185.016 1447.13 185.015C1447.13 185.015 1448.71 191.958 1445.14 197.388C1441.56 202.819 1433.93 213.578 1433.93 213.578C1433.93 213.578 1431.94 211 1425.11 210.383C1416.43 209.596 1414.34 211.896 1407.12 210.726C1401.56 209.826 1389.77 205.527 1389.77 205.527C1393.52 203.126 1396.98 200.295 1400.08 197.09C1405.2 191.684 1405.5 189.436 1405.5 189.436Z" fill="url(#paint4_linear_2199_16603)"/>
<path d="M1389.77 205.53C1389.77 205.53 1396.55 212.717 1399.9 213.801C1403.25 214.886 1408.55 214.413 1412.32 215.238C1416.08 216.063 1419.21 219.348 1425.65 217.852C1432.1 216.356 1433.94 213.598 1433.94 213.598C1433.94 213.598 1431.34 210.46 1422.7 210.252C1416.1 210.094 1415.2 211.197 1409.84 211.048C1406.53 210.958 1400.56 209.118 1400.56 209.118L1389.77 205.53Z" fill="#FB6F8E"/>
<path d="M1384.92 194.391C1379.06 193.28 1375.68 200.835 1374.63 203.688C1374.38 204.364 1374.4 205.111 1374.68 205.774C1375.3 207.228 1376.55 209.792 1377.89 210.432C1379.8 211.361 1385.08 208.558 1385.08 208.558C1385.08 208.558 1401.08 197.451 1384.92 194.379" fill="#FB6F8E"/>
<path d="M1330.06 211.972C1330.06 211.972 1323.44 217.408 1317.72 218.23C1312 219.052 1303.33 216.727 1283.38 227.709C1263.42 238.69 1263.58 264.373 1263.58 264.373L1280.28 256.639C1280.28 256.639 1281.06 260.609 1285.25 267.053C1287.76 270.93 1290.78 274.451 1294.23 277.522C1294.23 277.522 1305.21 247.359 1315.42 239.002C1322.07 233.567 1330.09 229.632 1334.88 227.55C1337.29 226.503 1339.81 225.745 1342.4 225.294C1347.81 224.348 1358.36 222.368 1362.75 220.596C1375.01 215.633 1379.91 210.521 1379.91 210.521C1379.5 210.627 1379.07 210.668 1378.64 210.642C1377.57 210.625 1376.42 209.037 1376.32 208.858C1375.91 208.206 1375.52 207.533 1375.18 206.839C1374.84 206.16 1374.54 205.461 1374.28 204.748C1361.5 210.283 1354.46 212.18 1348.46 213.095C1338.17 214.659 1330.06 211.972 1330.06 211.972Z" fill="url(#paint5_linear_2199_16603)"/>
<path d="M1379.89 210.521C1383.51 209.583 1386.87 207.881 1389.77 205.53C1394.78 210.63 1398.5 213.449 1399.9 213.801C1403.13 214.612 1411.85 214.933 1413.17 215.456C1416.96 217.004 1420.63 218.225 1420.63 218.225C1420.63 218.225 1437.44 233.274 1445.07 243.793C1452.7 254.311 1458.07 273.696 1458.07 273.696L1442.33 270.059L1427.55 287.967C1427.55 287.967 1417.65 242.554 1406.23 231.639C1395.23 221.125 1397.85 223.994 1386.58 218.225C1380.55 215.144 1379.89 210.521 1379.89 210.521Z" fill="url(#paint6_linear_2199_16603)"/>
</g>
<path d="M401.752 220.08C391.672 218.448 386.248 211.824 386.248 205.536V202.368H379.48V205.536C379.48 211.68 374.008 218.448 364.024 220.08L366.616 225.312C374.344 223.92 379.96 219.744 382.84 214.32C385.72 219.792 391.384 223.92 399.16 225.312L401.752 220.08ZM386.056 233.808V223.92H379.72V233.808H363.064V238.896H403.096V233.808H386.056ZM431.796 216.864H422.772V206.928H431.796V216.864ZM416.436 216.864H411.108V221.904H443.412V216.864H438.084V206.928H443.748V201.888H410.82V206.928H416.436V216.864ZM447.204 225.6H407.172V230.688H424.02V244.128H430.356V230.688H447.204V225.6ZM453.537 203.904V233.616H474.801V203.904H453.537ZM468.561 208.896V228.624H459.777V208.896H468.561ZM481.665 199.92V244.224H488.001V199.92H481.665ZM511.661 219.888H503.021V208.56H511.661V219.888ZM517.901 203.568H496.829V224.88H517.901V203.568ZM508.157 229.008H501.821V243.36H531.917V238.32H508.157V229.008ZM530.333 212.688V199.92H523.997V232.176H530.333V217.872H536.189V212.688H530.333ZM559.657 205.2C566.089 205.2 569.113 206.112 569.113 208.08C569.113 210.144 566.089 211.008 559.657 211.008C553.273 211.008 550.249 210.144 550.249 208.08C550.249 206.112 553.273 205.2 559.657 205.2ZM559.657 215.616C569.785 215.616 575.689 212.976 575.689 208.08C575.689 203.232 569.785 200.544 559.657 200.544C549.577 200.544 543.673 203.232 543.673 208.08C543.673 212.976 549.577 215.616 559.657 215.616ZM550.585 236.544H574.777V225.168H544.249V229.824H568.537V232.176H544.297V243.792H575.929V239.04H550.585V236.544ZM539.689 217.728V222.672H579.625V217.728H539.689ZM609.072 206.832C612.336 206.832 614.592 208.368 614.592 211.152C614.592 213.84 612.336 215.376 609.072 215.376C605.856 215.376 603.552 213.84 603.552 211.152C603.552 208.368 605.856 206.832 609.072 206.832ZM609.072 220.56C615.744 220.56 620.64 216.624 620.64 211.152C620.64 205.584 615.744 201.696 609.072 201.696C602.4 201.696 597.456 205.584 597.456 211.152C597.456 216.624 602.4 220.56 609.072 220.56ZM622.896 221.664C613.536 223.056 602.592 223.152 594.864 223.152L595.584 228.336C598.704 228.336 602.304 228.288 606.096 228.144V242.784H612.432V227.76C616.032 227.424 619.728 226.992 623.28 226.272L622.896 221.664ZM625.392 199.92V244.08H631.728V199.92H625.392ZM664.941 204.576H655.053V199.872H648.669V204.576H638.877V209.52H664.893L664.941 204.576ZM647.085 219.6C647.085 217.2 649.053 215.904 651.885 215.904C654.669 215.904 656.685 217.2 656.685 219.6C656.685 222.048 654.669 223.344 651.885 223.344C649.053 223.344 647.085 222.048 647.085 219.6ZM662.733 219.6C662.733 214.608 658.221 211.104 651.885 211.104C645.549 211.104 641.037 214.608 641.037 219.6C641.037 224.688 645.549 228.144 651.885 228.144C658.221 228.144 662.733 224.688 662.733 219.6ZM651.501 230.544H645.165V243.36H675.261V238.32H651.501V230.544ZM673.677 213.408V199.92H667.341V232.992H673.677V218.64H679.533V213.408H673.677ZM724.196 199.872V244.224H730.532V199.872H724.196ZM706.772 202.992C700.1 202.992 695.156 209.04 695.156 218.736C695.156 228.48 700.1 234.576 706.772 234.576C713.444 234.576 718.388 228.48 718.388 218.736C718.388 209.04 713.444 202.992 706.772 202.992ZM706.772 208.704C710.036 208.704 712.292 212.208 712.292 218.736C712.292 225.312 710.036 228.816 706.772 228.816C703.508 228.816 701.252 225.312 701.252 218.736C701.252 212.208 703.508 208.704 706.772 208.704ZM754.624 220.656H746.224V214.416H754.624V220.656ZM760.816 216.768H768.688V232.56H775.024V199.968H768.688V211.68H760.816V202.896H754.624V209.568H746.224V202.848H739.936V225.696H760.816V216.768ZM752.176 238.32V229.392H745.84V243.36H775.984V238.32H752.176ZM807.276 214.512C802.236 215.568 797.628 215.904 790.044 215.952V207.168H803.532V202.224H783.756V220.944H787.452C796.86 220.944 802.188 220.704 807.9 219.456L807.276 214.512ZM794.172 235.872H817.02V223.68H787.836V228.672H810.78V231.264H787.884V243.6H818.316V238.656H794.172V235.872ZM817.02 208.272V199.872H810.684V221.856H817.02V213.408H822.876V208.272H817.02ZM858.036 206.544H850.74V201.024H844.5V206.544H837.204V211.632H858.036V206.544ZM856.932 224.544V224.208C856.932 222.384 856.596 220.704 855.972 219.264H860.724V224.544H856.932ZM847.523 229.584C845.268 229.584 843.588 227.616 843.588 224.256C843.588 220.848 845.268 218.88 847.523 218.88C849.828 218.88 851.46 220.848 851.46 224.256C851.46 227.616 849.828 229.584 847.523 229.584ZM860.724 214.224H855.972V219.264C854.484 215.808 851.364 213.6 847.523 213.6C842.052 213.6 838.116 218.016 838.116 224.256C838.116 230.496 842.052 234.912 847.523 234.912C851.268 234.912 854.244 232.848 855.828 229.584H860.724V242.16H866.628V200.688H860.724V214.224ZM869.172 199.92V244.128H875.172V199.92H869.172ZM901.28 219.168C897.248 219.792 893.744 220.032 888.992 220.08V216.336H899.84V211.536H888.992V207.888H900.272V202.896H882.896V225.168H885.968C892.544 225.168 896.816 225.024 901.856 224.208L901.28 219.168ZM888.656 233.856H912.752V244.176H919.088V228.816H888.656V233.856ZM913.088 199.92V210.768H909.536V200.688H903.632V226.608H909.536V215.808H913.088V226.896H919.088V199.92H913.088Z" fill="#E15669"/>
<path d="M373.852 276.42C377.772 276.42 379.872 277.176 379.872 278.632C379.872 280.06 377.772 280.816 373.852 280.816C369.932 280.816 367.832 280.06 367.832 278.632C367.832 277.176 369.932 276.42 373.852 276.42ZM373.852 282.972C379.508 282.972 382.868 281.432 382.868 278.632C382.868 275.804 379.508 274.264 373.852 274.264C368.168 274.264 364.836 275.804 364.836 278.632C364.836 281.432 368.168 282.972 373.852 282.972ZM368.028 294.62H382.42V288.572H365.116V290.756H379.592V292.576H365.172V298.932H383.148V296.72H368.028V294.62ZM362.4 284.456V286.752H385.304V284.456H362.4ZM397.51 278.772H403.138V276.392H388.97V278.772H394.598V281.18C394.598 285.52 391.994 290.224 388.074 292.044L389.726 294.34C392.694 292.912 394.962 289.916 396.082 286.388C397.258 289.664 399.526 292.408 402.466 293.696L404.062 291.428C400.114 289.748 397.51 285.38 397.51 281.18V278.772ZM406.078 273.872V299.156H408.99V273.872H406.078ZM426.796 293.808V289.496H434.692V287.172H419.544V283.644H434.132V275.636H416.66V277.96H431.276V281.348H416.716V289.496H423.912V293.808H413.944V296.188H436.848V293.808H426.796ZM467.915 285.828C462.931 284.988 458.871 281.236 458.871 277.316V275.412H455.819V277.316C455.819 281.208 451.758 284.988 446.747 285.828L447.979 288.236C452.095 287.424 455.679 284.904 457.359 281.544C458.983 284.904 462.567 287.424 466.711 288.236L467.915 285.828ZM458.759 293.64V287.732H455.875V293.64H445.991V296.02H468.895V293.64H458.759ZM486.056 281.572H480.232V276.924H486.056V281.572ZM477.348 281.572H473.904V283.896H492.356V281.572H488.94V276.924H492.496V274.6H473.764V276.924H477.348V281.572ZM488.996 296.552H477.32V293.108H488.996V296.552ZM494.596 288.236V285.912H471.72V288.236H481.716V290.812H474.464V298.848H491.824V290.812H484.6V288.236H494.596ZM512.346 284.876C508.566 283.588 506.382 280.452 506.382 277.176V274.992H503.47V277.204C503.47 280.788 501.286 284.092 497.31 285.464L498.822 287.732C501.79 286.668 503.918 284.54 505.01 281.796C506.074 284.204 508.09 286.164 510.806 287.116L512.346 284.876ZM514.39 296.524H503.918V293.864H514.39V296.524ZM514.39 291.624H503.918V288.936H501.062V298.848H517.246V288.936H514.39V291.624ZM520.746 279.36V276.98H517.246V273.872H514.362V287.788H517.246V284.484H520.746V282.104H517.246V279.36H520.746ZM534.688 276.42C538.608 276.42 540.708 277.176 540.708 278.632C540.708 280.06 538.608 280.816 534.688 280.816C530.768 280.816 528.668 280.06 528.668 278.632C528.668 277.176 530.768 276.42 534.688 276.42ZM534.688 282.972C540.344 282.972 543.704 281.432 543.704 278.632C543.704 275.804 540.344 274.264 534.688 274.264C529.004 274.264 525.672 275.804 525.672 278.632C525.672 281.432 529.004 282.972 534.688 282.972ZM528.864 294.62H543.256V288.572H525.952V290.756H540.428V292.576H526.008V298.932H543.984V296.72H528.864V294.62ZM523.236 284.456V286.752H546.14V284.456H523.236ZM575.723 284.484H561.107V281.936H574.855V279.696H561.107V277.26H575.443V274.964H558.223V286.78H575.723V284.484ZM578.187 289.048H555.255V291.4H565.279V299.212H568.163V291.4H578.187V289.048ZM587.873 290.98C585.717 290.98 584.233 288.628 584.233 284.624C584.233 280.704 585.717 278.324 587.873 278.324C590.057 278.324 591.541 280.704 591.541 284.624C591.541 288.628 590.057 290.98 587.873 290.98ZM599.157 273.844V283.28H594.229C593.837 278.632 591.261 275.72 587.873 275.72C584.149 275.72 581.489 279.192 581.489 284.624C581.489 290.112 584.149 293.556 587.873 293.556C591.345 293.556 593.921 290.532 594.257 285.632H599.157V299.212H602.069V273.844H599.157ZM614.19 291.344C612.146 291.344 610.662 289.944 610.662 287.816C610.662 285.688 612.146 284.288 614.19 284.288C616.234 284.288 617.718 285.688 617.718 287.816C617.718 289.944 616.234 291.344 614.19 291.344ZM614.19 281.908C610.55 281.908 607.918 284.372 607.918 287.816C607.918 291.288 610.55 293.724 614.19 293.724C617.802 293.724 620.462 291.288 620.462 287.816C620.462 284.372 617.802 281.908 614.19 281.908ZM615.59 274.264H612.706V277.764H606.686V280.116H621.498V277.764H615.59V274.264ZM630.346 284.036H626.454V273.872H623.542V299.184H626.454V286.444H630.346V284.036ZM642.58 285.772H636.504V278.268H642.58V285.772ZM650.644 280.452V283.532H645.38V280.452H650.644ZM645.38 285.856H650.644V292.324H653.528V273.872H650.644V278.1H645.38V275.972H633.676V288.068H645.38V285.856ZM639.976 296.328V290.644H637.064V298.68H654.116V296.328H639.976ZM686.555 285.828C681.571 284.988 677.511 281.236 677.511 277.316V275.412H674.459V277.316C674.459 281.208 670.399 284.988 665.387 285.828L666.619 288.236C670.735 287.424 674.319 284.904 675.999 281.544C677.623 284.904 681.207 287.424 685.351 288.236L686.555 285.828ZM677.399 293.64V287.732H674.515V293.64H664.631V296.02H687.535V293.64H677.399ZM704.865 283.784C701.813 284.428 699.097 284.568 694.309 284.596V277.82H702.625V275.496H691.425V286.948H693.469C698.901 286.948 701.869 286.808 705.145 286.108L704.865 283.784ZM696.829 291.652H707.301V296.524H696.829V291.652ZM693.973 298.848H710.129V289.384H693.973V298.848ZM713.713 279.836H710.129V273.844H707.245V288.124H710.129V282.216H713.713V279.836ZM735.288 290.672H732.32V291.484C732.32 293.976 728.988 296.3 724.032 296.888L725.04 299.072C729.072 298.568 732.236 297 733.776 294.704C735.316 297.028 738.508 298.568 742.568 299.072L743.548 296.888C738.564 296.328 735.288 294.088 735.288 291.484V290.672ZM741.924 283.644C742.484 280.648 742.484 278.352 742.484 276.588V274.88H725.292V277.204H739.656C739.656 278.856 739.572 280.928 739.04 283.644H722.436V285.996H732.376V289.636H735.26V285.996H745.34V283.644H741.924ZM750.35 289.524C754.438 288.74 757.994 286.36 759.618 283.084C761.27 286.332 764.854 288.628 768.998 289.412L770.174 287.116C765.162 286.36 761.13 282.944 761.13 279.136V278.548H769.166V276.196H750.07V278.548H758.106V279.136C758.106 282.944 754.102 286.416 749.174 287.228L750.35 289.524ZM748.194 293.612V295.964H771.098V293.612H748.194ZM791.115 278.184H776.863V283.868H794.419V281.852H779.691V280.06H793.971V274.488H776.807V276.476H791.115V278.184ZM779.495 294.956H794.055V289.3H776.583V291.288H791.199V293.08H776.639V298.876H794.811V296.888H779.495V294.956ZM773.923 285.464V287.592H796.855V285.464H773.923ZM824.058 292.688H826.942V273.872H824.058V279.556H818.934V281.936H824.058V292.688ZM820.922 286.472C817.142 285.1 815.014 281.824 815.014 278.408V275.412H812.074V278.352C812.074 282.104 809.89 285.66 805.942 287.06L807.482 289.3C810.394 288.18 812.494 285.94 813.614 283.112C814.678 285.66 816.666 287.704 819.382 288.712L820.922 286.472ZM813.39 296.328V290.7H810.478V298.68H827.53V296.328H813.39ZM848.836 280.2H837.496V276.896H848.836V280.2ZM851.664 274.656H834.64V282.468H851.664V274.656ZM854.632 286.528V284.232H831.728V286.528H841.696V288.628H834.444V290.812H848.92V292.604H834.5V298.932H852.476V296.72H837.356V294.648H851.748V288.628H844.608V286.528H854.632ZM870.366 293.808V289.496H878.262V287.172H863.114V283.644H877.702V275.636H860.23V277.96H874.846V281.348H860.286V289.496H867.482V293.808H857.514V296.188H880.418V293.808H870.366ZM909.889 285.8H895.245V278.436H909.693V276.084H892.361V288.124H909.889V285.8ZM889.561 293.528V295.908H912.493V293.528H889.561ZM919.043 285.464H927.303V276.056H916.159V278.38H924.475V283.14H916.215V293.416H918.147C922.067 293.416 925.315 293.332 929.151 292.716L928.927 290.336C925.455 290.868 922.487 291.008 919.043 291.036V285.464ZM933.379 273.816V279.444H928.759V281.796H933.379V286.332H928.619V288.684H933.379V299.184H936.263V273.816H933.379ZM949.308 288.208C950.288 288.432 951.38 288.544 952.5 288.544C953.62 288.544 954.712 288.432 955.692 288.18V293.696H949.308V288.208ZM952.5 277.596C956.308 277.596 958.968 279.276 958.968 281.936C958.968 284.624 956.308 286.304 952.5 286.304C948.664 286.304 946.004 284.624 946.004 281.936C946.004 279.276 948.664 277.596 952.5 277.596ZM958.576 293.696V287.116C960.592 285.968 961.796 284.176 961.796 281.936C961.796 277.904 957.876 275.328 952.5 275.328C947.096 275.328 943.204 277.904 943.204 281.936C943.204 284.176 944.408 285.996 946.424 287.116V293.696H941.076V296.048H963.98V293.696H958.576ZM973.768 291.064L976.232 277.008H979.704L976.204 291.064H973.768ZM973.824 297.392C973.264 297.392 972.844 297.243 972.564 296.944C972.303 296.627 972.172 296.225 972.172 295.74C972.172 295.329 972.247 294.947 972.396 294.592C972.564 294.219 972.816 293.92 973.152 293.696C973.488 293.472 973.927 293.36 974.468 293.36C974.953 293.36 975.345 293.5 975.644 293.78C975.943 294.06 976.092 294.471 976.092 295.012C976.092 295.609 975.896 296.16 975.504 296.664C975.131 297.149 974.571 297.392 973.824 297.392Z" fill="#695054"/>
<defs>
<filter id="filter0_d_2199_16603" x="1230.01" y="147.059" width="330.14" height="301.942" filterUnits="userSpaceOnUse" color-interpolation-filters="sRGB">
<feFlood flood-opacity="0" result="BackgroundImageFix"/>
<feColorMatrix in="SourceAlpha" type="matrix" values="0 0 0 0 0 0 0 0 0 0 0 0 0 0 0 0 0 0 127 0" result="hardAlpha"/>
<feOffset dx="10" dy="10"/>
<feGaussianBlur stdDeviation="5"/>
<feComposite in2="hardAlpha" operator="out"/>
<feColorMatrix type="matrix" values="0 0 0 0 0.954167 0 0 0 0 0.747431 0 0 0 0 0.785513 0 0 0 1 0"/>
<feBlend mode="normal" in2="BackgroundImageFix" result="effect1_dropShadow_2199_16603"/>
<feBlend mode="normal" in="SourceGraphic" in2="effect1_dropShadow_2199_16603" result="shape"/>
</filter>
<linearGradient id="paint0_linear_2199_16603" x1="1405.85" y1="188.607" x2="1367.27" y2="188.607" gradientUnits="userSpaceOnUse">
<stop stop-color="#FFBECD"/>
<stop offset="0.260417" stop-color="#FAA6BA"/>
<stop offset="0.458333" stop-color="#FFB4C5"/>
<stop offset="0.6875" stop-color="#FFA8BC"/>
<stop offset="1" stop-color="#FFBECD"/>
</linearGradient>
<linearGradient id="paint1_linear_2199_16603" x1="1447.4" y1="155.962" x2="1402.89" y2="181.93" gradientUnits="userSpaceOnUse">
<stop stop-color="#FFA7BA"/>
<stop offset="1" stop-color="#FF7795"/>
</linearGradient>
<linearGradient id="paint2_linear_2199_16603" x1="1337.97" y1="164.494" x2="1368.76" y2="188.608" gradientUnits="userSpaceOnUse">
<stop stop-color="#FFA7BA"/>
<stop offset="1" stop-color="#FF6D8E"/>
</linearGradient>
<linearGradient id="paint3_linear_2199_16603" x1="1369.13" y1="194.915" x2="1322.01" y2="190.092" gradientUnits="userSpaceOnUse">
<stop stop-color="#FF97AE"/>
<stop offset="0.515625" stop-color="#FF86A1"/>
<stop offset="1" stop-color="#FF97AE"/>
</linearGradient>
<linearGradient id="paint4_linear_2199_16603" x1="1447.4" y1="198.996" x2="1389.53" y2="198.996" gradientUnits="userSpaceOnUse">
<stop stop-color="#FF85A0"/>
<stop offset="0.338542" stop-color="#FF97AE"/>
<stop offset="0.671875" stop-color="#FF839E"/>
<stop offset="1" stop-color="#FF97AE"/>
</linearGradient>
<linearGradient id="paint5_linear_2199_16603" x1="1379.89" y1="204.931" x2="1251.9" y2="269.851" gradientUnits="userSpaceOnUse">
<stop stop-color="#FFD3DD"/>
<stop offset="0.557292" stop-color="#FF94AC"/>
<stop offset="1" stop-color="#FFC2D0"/>
</linearGradient>
<linearGradient id="paint6_linear_2199_16603" x1="1379.89" y1="197.511" x2="1457.79" y2="288.029" gradientUnits="userSpaceOnUse">
<stop stop-color="#FFD3DD"/>
<stop offset="0.590653" stop-color="#FFA5BA"/>
<stop offset="1" stop-color="#FFC6D3"/>
</linearGradient>
</defs>
</svg>
