<svg width="1920" height="525" viewBox="0 0 1920 525" fill="none" xmlns="http://www.w3.org/2000/svg">
<mask id="mask0_2013_10371" style="mask-type:alpha" maskUnits="userSpaceOnUse" x="0" y="0" width="1920" height="517">
<rect width="1920" height="517" fill="#C4C4C4"/>
</mask>
<g mask="url(#mask0_2013_10371)">
<rect y="1" width="1920" height="517" fill="#ABB3FF"/>
<rect y="333" width="1920" height="185" fill="white"/>
<path d="M687 388L673.5 395.794L673.5 380.206L687 388Z" fill="white"/>
<path d="M1501.19 402.828L1498.39 415.574L1506.89 425.199C1509.31 427.928 1507.66 432.337 1504.12 432.671L1491.6 433.834L1485.42 445.221C1483.68 448.445 1479.13 448.18 1477.73 444.784L1472.8 432.752L1460.48 430.161C1456.99 429.425 1455.82 424.854 1458.51 422.413L1467.98 413.812L1466.55 400.825C1466.14 397.14 1469.96 394.573 1473.02 396.484L1483.81 403.196L1495.24 397.762C1498.45 396.231 1501.98 399.224 1501.19 402.828Z" fill="#FFB64B"/>
<path d="M1560.82 176.052L1560.54 177.312L1561.4 178.271L1592.06 212.33L1592.06 212.331C1599.44 220.511 1594.33 233.622 1583.67 234.609C1583.67 234.609 1583.67 234.609 1583.67 234.609L1538.52 238.723L1537.2 238.844L1536.56 240.003L1514.28 280.296C1514.28 280.296 1514.28 280.296 1514.28 280.296C1508.99 289.862 1495.25 289.096 1491.02 278.992L1473.22 236.419L1472.71 235.201L1471.41 234.935L1426.98 225.769C1416.46 223.589 1412.82 209.971 1421.03 202.666L1421.03 202.665L1455.2 172.232L1456.17 171.371L1456.03 170.085L1450.83 124.129L1450.83 124.128C1449.58 113.046 1461.25 105.568 1470.4 111.181L1470.41 111.185L1509.33 134.936L1510.48 135.634L1511.69 135.068L1552.94 115.839L1552.94 115.837C1562.51 111.358 1573.33 120.09 1570.92 130.956L1560.82 176.052Z" stroke="#D9E1FC" stroke-width="5"/>
<path d="M1607.69 303.368L1606.74 302.511L1605.49 302.778L1590.71 305.914L1590.71 305.914C1588.42 306.401 1586.7 304.08 1587.54 302.23C1587.54 302.229 1587.54 302.229 1587.54 302.228L1593.73 288.762L1594.28 287.554L1593.58 286.424L1585.65 273.539C1585.65 273.539 1585.65 273.539 1585.65 273.539C1584.51 271.692 1585.95 269.434 1588.16 269.709C1588.16 269.709 1588.16 269.709 1588.16 269.709L1603.29 271.605L1604.6 271.77L1605.48 270.781L1615.36 259.684C1615.36 259.683 1615.36 259.683 1615.36 259.682C1616.74 258.134 1619.59 258.778 1620.07 261.019L1620.07 261.02L1623.24 275.669L1623.51 276.921L1624.69 277.428L1638.73 283.451L1638.73 283.451C1640.96 284.404 1640.89 287.149 1639.14 288.094L1639.14 288.097L1625.97 295.257L1624.78 295.905L1624.67 297.251L1623.46 312.076L1623.46 312.079C1623.31 313.978 1620.81 315.214 1619 313.583C1619 313.583 1619 313.583 1619 313.583L1607.69 303.368Z" fill="#D9E1FC" stroke="#D9E1FC" stroke-width="5"/>
<path d="M1549.45 404.277L1543.26 406.09L1541.24 412.203C1540.67 413.939 1538.35 414.259 1537.32 412.756L1533.69 407.439L1527.24 407.417C1525.41 407.406 1524.38 405.317 1525.5 403.868L1529.44 398.772L1527.47 392.637C1526.91 390.902 1528.59 389.277 1530.31 389.896L1536.39 392.073L1541.63 388.304C1543.11 387.243 1545.17 388.337 1545.12 390.161L1544.93 396.606L1550.13 400.419C1551.61 401.47 1551.2 403.769 1549.45 404.277Z" fill="#FB8C00"/>
<g filter="url(#filter0_d_2013_10371)">
<path d="M1427.69 580.374L1416.26 437.059C1406 365.494 1344.31 312.318 1271.54 312.318C1198.06 312.318 1136 366.499 1126.56 438.875L1116.37 580.686L1427.69 580.374Z" fill="#FFB64B"/>
<path d="M1272.02 357.652C1342.67 357.652 1399.94 305.69 1399.94 241.591C1399.94 177.493 1342.67 125.531 1272.02 125.531C1201.37 125.531 1144.1 177.493 1144.1 241.591C1144.1 305.69 1201.37 357.652 1272.02 357.652Z" fill="#FFB64B"/>
<path d="M1144.63 231.016C1133.92 226.992 1124.7 219.825 1118.19 210.468C1111.69 201.112 1108.2 190.01 1108.2 178.637C1108.2 147.716 1133.43 122.652 1164.56 122.652C1172.57 122.644 1180.49 124.337 1187.8 127.619C1195.1 130.901 1201.61 135.695 1206.89 141.681" fill="#FFB64B"/>
<path d="M1337.16 141.687C1342.45 135.698 1348.96 130.901 1356.26 127.618C1363.56 124.334 1371.49 122.64 1379.51 122.648C1410.63 122.648 1435.86 147.712 1435.86 178.633C1435.86 190.008 1432.37 201.112 1425.86 210.468C1419.35 219.825 1410.13 226.991 1399.42 231.012" fill="#FFB64B"/>
<path d="M1256.71 167.522C1253.05 167.522 1249.54 166.079 1246.96 163.509C1244.37 160.939 1242.91 157.454 1242.91 153.819V128.535C1246.9 127.684 1251.47 126.833 1256.23 126.279C1261.44 125.674 1266.1 125.586 1270.51 125.525V153.819C1270.51 157.453 1269.05 160.938 1266.46 163.508C1263.88 166.078 1260.37 167.522 1256.71 167.522Z" fill="#212121"/>
<path d="M1287.35 167.831C1291 167.83 1294.51 166.386 1297.1 163.816C1299.69 161.245 1301.14 157.76 1301.14 154.125V128.544C1297.04 127.66 1292.9 126.981 1288.74 126.509C1283.53 125.904 1277.95 125.586 1273.55 125.525V154.125C1273.55 157.76 1275 161.246 1277.59 163.817C1280.18 166.387 1283.69 167.831 1287.35 167.831Z" fill="#212121"/>
<path d="M1222.18 226.835C1227.14 226.835 1231.17 221.948 1231.17 215.92C1231.17 209.892 1227.14 205.005 1222.18 205.005C1217.21 205.005 1213.19 209.892 1213.19 215.92C1213.19 221.948 1217.21 226.835 1222.18 226.835Z" fill="#212121"/>
<path d="M1320.06 226.835C1325.03 226.835 1329.05 221.948 1329.05 215.92C1329.05 209.892 1325.03 205.005 1320.06 205.005C1315.1 205.005 1311.07 209.892 1311.07 215.92C1311.07 221.948 1315.1 226.835 1320.06 226.835Z" fill="#212121"/>
<path d="M1268.02 197.943H1276.04C1278.26 197.943 1280.46 198.378 1282.52 199.223C1284.57 200.068 1286.44 201.306 1288.01 202.868C1289.58 204.429 1290.83 206.282 1291.68 208.322C1292.53 210.362 1292.96 212.548 1292.96 214.756V235.992H1251.09V214.756C1251.09 210.297 1252.88 206.021 1256.05 202.868C1259.22 199.715 1263.53 197.943 1268.02 197.943Z" fill="#FB8C00"/>
<path opacity="0.8" d="M1272.04 335.702C1304.62 335.702 1331.03 312.268 1331.03 283.362C1331.03 254.456 1304.62 231.022 1272.04 231.022C1239.47 231.022 1213.06 254.456 1213.06 283.362C1213.06 312.268 1239.47 335.702 1272.04 335.702Z" fill="white"/>
<path d="M1271.17 256.164V295.245C1271.17 300.601 1268.07 305.539 1263.13 307.701C1261.55 308.428 1259.8 308.755 1258.06 308.655C1250.87 308.128 1240.12 298.879 1240.12 298.879" stroke="#FB8C00" stroke-width="8" stroke-miterlimit="10" stroke-linecap="round"/>
<path d="M1271.18 255.544V294.637C1271.18 299.99 1274.28 304.932 1279.21 307.09C1280.8 307.817 1282.55 308.145 1284.29 308.044C1291.47 307.517 1302.22 298.268 1302.22 298.268" stroke="#FB8C00" stroke-width="8" stroke-miterlimit="10" stroke-linecap="round"/>
<path d="M1298.39 264.095C1299.37 264.095 1299.37 262.581 1298.39 262.581C1297.41 262.581 1297.41 264.095 1298.39 264.095Z" fill="#212121"/>
<path d="M1313.97 263.901C1314.95 263.901 1314.95 262.387 1313.97 262.387C1312.98 262.387 1312.98 263.901 1313.97 263.901Z" fill="#212121"/>
<path d="M1306.57 274.003C1307.55 274.003 1307.56 272.489 1306.57 272.489C1305.59 272.489 1305.59 274.003 1306.57 274.003Z" fill="#212121"/>
<path d="M1230.11 264.292C1231.09 264.292 1231.09 262.778 1230.11 262.778C1229.13 262.778 1229.13 264.292 1230.11 264.292Z" fill="#212121"/>
<path d="M1245.66 264.095C1246.64 264.095 1246.64 262.581 1245.66 262.581C1244.68 262.581 1244.68 264.095 1245.66 264.095Z" fill="#212121"/>
<path d="M1238.29 274.202C1239.27 274.202 1239.28 272.688 1238.29 272.688C1237.31 272.688 1237.31 274.202 1238.29 274.202Z" fill="#212121"/>
<path d="M1157.77 192.699C1155.61 191.077 1153.79 189.047 1152.41 186.725C1151.04 184.402 1150.14 181.834 1149.77 179.165C1149.39 176.497 1149.55 173.782 1150.24 171.176C1150.92 168.569 1152.12 166.122 1153.75 163.975C1155.39 161.828 1157.44 160.023 1159.78 158.663C1162.12 157.303 1164.71 156.416 1167.4 156.051C1170.08 155.686 1172.82 155.852 1175.44 156.537C1178.06 157.223 1180.52 158.416 1182.68 160.048C1171.48 168.421 1162.86 179.727 1157.77 192.699Z" fill="#FB8C00"/>
<path d="M1386.29 192.702C1390.64 189.416 1393.49 184.553 1394.23 179.179C1394.97 173.805 1393.53 168.359 1390.24 164.036C1386.94 159.712 1382.05 156.865 1376.64 156.118C1371.23 155.371 1365.75 156.786 1361.39 160.051C1372.58 168.424 1381.21 179.73 1386.29 192.702Z" fill="#FB8C00"/>
<path d="M1218.22 580.699C1202.13 563.977 1192.06 547.912 1192.06 521.356C1192.06 470.794 1202.6 387.408 1273.56 387.408C1346.84 387.408 1355.07 470.791 1355.07 521.356C1355.07 547.924 1345.01 563.989 1328.91 580.714" fill="#FFF3E0"/>
<path d="M1196.42 333.068C1173.01 324.2 1146.52 312.431 1132.91 300.472C1105.24 276.163 1067.47 240.624 1067.47 240.624C1067.47 240.624 1076.78 223.993 1062.82 211.028C1048.7 197.927 1037.15 204.945 1037.15 204.945C1037.15 204.945 1024.81 183.909 999.91 199.571C974.372 215.636 986.527 234.617 986.527 234.617C986.527 234.617 973.577 246.164 980.492 262.017C987.408 277.87 1006.7 277.343 1006.7 277.343C1006.7 277.343 1036.1 339.269 1083.98 371.919C1094.75 379.27 1124.48 404.736 1134.76 410.674" fill="#FFB64B"/>
<path d="M1079.77 252.107C1079.77 252.107 1057.7 281.57 1066.66 293.856C1075.62 306.143 1094.4 265.671 1094.4 265.671" fill="#212121"/>
<path d="M1105.35 275.705C1105.35 275.705 1083.33 305.122 1092.31 317.408C1101.28 329.695 1120.15 289.124 1120.15 289.124" fill="#212121"/>
<path d="M1016.6 230.03C1020.04 227.635 1021.26 223.465 1019.32 220.716C1017.39 217.967 1013.02 217.68 1009.58 220.075C1006.14 222.47 1004.92 226.64 1006.86 229.389C1008.79 232.138 1013.16 232.425 1016.6 230.03Z" fill="#FFF3E0"/>
<path d="M1036.01 257.392C1043.14 252.434 1045.19 243.128 1040.6 236.606C1036 230.085 1026.49 228.818 1019.37 233.777C1012.24 238.735 1010.18 248.041 1014.78 254.563C1019.38 261.084 1028.88 262.351 1036.01 257.392Z" fill="#FFF3E0"/>
<path d="M1053.1 228.061C1054.02 224.645 1051.88 221.113 1048.32 220.171C1044.76 219.23 1041.14 221.235 1040.22 224.651C1039.3 228.067 1041.45 231.599 1045 232.541C1048.56 233.482 1052.19 231.477 1053.1 228.061Z" fill="#FFF3E0"/>
<path d="M1006.09 253.828C1007.01 250.412 1004.87 246.879 1001.31 245.938C997.751 244.996 994.125 247.002 993.209 250.418C992.293 253.834 994.434 257.366 997.991 258.307C1001.55 259.249 1005.17 257.243 1006.09 253.828Z" fill="#FFF3E0"/>
<path d="M1346.82 333.066C1370.23 324.198 1396.72 312.43 1410.33 300.47C1438 276.161 1475.77 240.622 1475.77 240.622C1475.77 240.622 1466.46 223.991 1480.42 211.027C1494.53 197.926 1506.09 204.944 1506.09 204.944C1506.09 204.944 1518.43 183.908 1543.33 199.579C1568.87 215.644 1556.71 234.624 1556.71 234.624C1556.71 234.624 1569.66 246.172 1562.75 262.025C1555.83 277.878 1536.54 277.351 1536.54 277.351C1536.54 277.351 1507.15 339.276 1459.26 371.927C1448.49 379.278 1418.76 404.744 1408.48 410.681" fill="#FFB64B"/>
<path d="M1463.49 252.107C1463.49 252.107 1485.56 281.57 1476.59 293.856C1467.63 306.143 1448.86 265.671 1448.86 265.671" fill="#212121"/>
<path d="M1437.89 275.705C1437.89 275.705 1459.91 305.122 1450.94 317.408C1441.96 329.695 1423.1 289.124 1423.1 289.124" fill="#212121"/>
<path d="M1536.41 229.388C1538.35 226.639 1537.13 222.469 1533.69 220.074C1530.25 217.68 1525.88 217.967 1523.95 220.716C1522.01 223.465 1523.23 227.635 1526.67 230.03C1530.12 232.425 1534.48 232.137 1536.41 229.388Z" fill="#FFF3E0"/>
<path d="M1528.48 254.564C1533.08 248.042 1531.03 238.736 1523.9 233.777C1516.77 228.819 1507.26 230.086 1502.67 236.607C1498.07 243.128 1500.12 252.435 1507.25 257.393C1514.38 262.352 1523.89 261.085 1528.48 254.564Z" fill="#FFF3E0"/>
<path d="M1498.26 232.509C1501.82 231.568 1503.96 228.035 1503.04 224.62C1502.12 221.204 1498.5 219.198 1494.94 220.14C1491.38 221.081 1489.24 224.614 1490.16 228.029C1491.07 231.445 1494.7 233.451 1498.26 232.509Z" fill="#FFF3E0"/>
<path d="M1545.28 258.268C1548.84 257.327 1550.98 253.794 1550.06 250.379C1549.15 246.963 1545.52 244.957 1541.96 245.899C1538.41 246.84 1536.27 250.373 1537.18 253.788C1538.1 257.204 1541.72 259.21 1545.28 258.268Z" fill="#FFF3E0"/>
<path d="M1147.28 267.435H1173.46C1175.95 267.453 1178.38 266.758 1180.47 265.434C1182.67 264.02 1184.76 261.686 1184.76 257.922C1184.76 249.996 1174.4 249.766 1174.4 249.766H1144.42C1144.61 252.306 1144.91 255.022 1145.35 257.883C1145.88 261.334 1146.55 264.523 1147.28 267.435Z" fill="#212121"/>
<path d="M1148.73 272.636H1175.19C1175.19 272.636 1182.2 272.842 1182.29 279.902C1182.37 286.963 1175.28 287.502 1175.28 287.502H1154.51C1153.4 285.158 1152.29 282.606 1151.23 279.851C1150.26 277.347 1149.43 274.928 1148.73 272.636Z" fill="#212121"/>
<path d="M1396.71 267.435H1370.53C1368.05 267.453 1365.62 266.758 1363.52 265.434C1361.33 264.02 1359.24 261.686 1359.24 257.922C1359.24 249.996 1369.6 249.766 1369.6 249.766H1399.58C1399.39 252.306 1399.09 255.022 1398.64 257.883C1398.11 261.334 1397.43 264.523 1396.71 267.435Z" fill="#212121"/>
<path d="M1395.37 272.636H1368.91C1368.91 272.636 1361.9 272.842 1361.82 279.902C1361.73 286.963 1368.83 287.502 1368.83 287.502H1389.6C1390.71 285.158 1391.82 282.606 1392.88 279.851C1393.85 277.347 1394.67 274.928 1395.37 272.636Z" fill="#212121"/>
<path d="M1271.18 256.163C1263.03 256.163 1255.83 251.825 1253.41 245.454L1250.63 238.155C1248.53 232.629 1253.57 223.991 1260.64 223.991H1283.44C1290.51 223.991 1295.55 232.629 1293.45 238.155L1291.18 244.104C1288.46 251.277 1280.35 256.163 1271.18 256.163Z" fill="#212121"/>
</g>
<circle cx="377" cy="162" r="4" fill="white"/>
<circle cx="420" cy="162" r="4" fill="white"/>
<circle cx="456" cy="162" r="4" fill="white"/>
<circle cx="495" cy="162" r="4" fill="white"/>
<rect x="354" y="266" width="115" height="14" fill="#9796FE"/>
<rect x="553" y="266" width="124" height="14" fill="#9796FE"/>
<path d="M385.41 190.898C379.404 189.008 377.094 184.934 376.716 180.986H383.814V175.652H362.394V180.986H369.66C369.24 185.228 366.888 189.554 360.63 191.528L364.158 196.82C368.61 195.392 371.508 192.62 373.23 189.134C374.994 192.284 377.808 194.846 381.966 196.148L385.41 190.898ZM366.048 204.212H385.956V213.032H392.76V198.878H366.048V204.212ZM397.674 182.624H392.76V173.594H385.956V197.366H392.76V188.126H397.674V182.624ZM424.509 189.344C417.789 187.496 415.731 183.044 415.731 178.718V174.98H408.801V178.718C408.801 183.086 406.617 187.958 399.645 189.974L402.921 195.266C407.541 193.964 410.523 191.276 412.287 187.874C414.051 190.982 416.907 193.376 421.275 194.594L424.509 189.344ZM413.127 202.574H426.483V207.32H413.127V202.574ZM406.449 212.57H433.119V197.324H406.449V212.57ZM426.315 173.594V195.77H433.119V173.594H426.315ZM462.473 190.058C455.963 187.958 454.031 183.128 454.031 178.466V175.61H447.101V178.634C447.101 183.59 444.959 188.84 437.987 191.066L441.599 196.4C446.051 194.888 448.991 192.074 450.671 188.462C452.351 191.528 454.997 194.006 458.945 195.308L462.473 190.058ZM450.587 202.868H463.397V207.32H450.587V202.868ZM443.909 212.57H470.033V197.618H443.909V212.57ZM474.947 181.994H470.033V173.594H463.229V196.19H470.033V187.496H474.947V181.994ZM510.392 173.552H503.588V193.04H510.392V173.552ZM484.352 183.674C484.352 181.196 486.116 179.978 488.51 179.978C490.904 179.978 492.668 181.196 492.668 183.674C492.668 186.152 490.904 187.412 488.51 187.412C486.116 187.412 484.352 186.152 484.352 183.674ZM499.22 183.674C499.22 178.382 494.6 174.56 488.51 174.56C482.42 174.56 477.8 178.382 477.8 183.674C477.8 189.008 482.42 192.83 488.51 192.83C494.6 192.83 499.22 189.008 499.22 183.674ZM490.4 207.404V205.934H510.392V194.51H483.638V199.634H503.672V201.104H483.68V212.57H511.232V207.404H490.4ZM536.597 203.708V195.644H547.643V191.192H526.013V181.028H547.349V176.576H520.427V195.644H531.053V203.708H516.353V208.244H551.381V203.708H536.597ZM590.041 189.848H592.729V203.078H597.979V173.93H592.729V185.396H590.041V174.728H584.875V202.238H590.041V189.848ZM581.515 190.52C582.313 185.816 582.313 182.078 582.313 179.306V176.828H565.849V181.238H577.189C577.147 183.59 577.021 186.446 576.391 190.058L581.515 190.52ZM583.321 192.452C580.633 192.788 577.483 192.998 574.291 193.124V185.774H569.251V193.25C567.277 193.292 565.513 193.292 563.959 193.292L564.505 197.702C569.629 197.702 577.525 197.534 583.657 196.4L583.321 192.452ZM575.929 207.53V200.18H570.301V211.94H598.819V207.53H575.929ZM626.284 189.302C620.236 188.084 617.422 184.934 617.338 181.658H624.94V177.332H617.338V173.846H611.794V177.332H604.234V181.658H611.794C611.71 185.354 608.938 188.924 602.806 190.31L605.2 194.594C609.862 193.46 613.012 191.024 614.734 187.832C616.54 190.562 619.564 192.62 623.974 193.502L626.284 189.302ZM611.92 196.904H606.544V211.94H608.686C612.466 211.94 615.49 211.772 618.682 210.68L617.926 206.312C615.994 206.942 613.978 207.278 611.92 207.404V196.904ZM626.998 209C625.612 209 624.562 208.496 624.562 207.446C624.562 206.396 625.612 205.934 626.998 205.934C628.384 205.934 629.476 206.396 629.476 207.446C629.476 208.496 628.384 209 626.998 209ZM626.998 202.238C622.672 202.238 619.522 204.254 619.522 207.446C619.522 210.638 622.672 212.654 626.998 212.654C631.366 212.654 634.474 210.638 634.474 207.446C634.474 204.254 631.366 202.238 626.998 202.238ZM629.77 194.51H624.394V197.366H617.338V201.314H636.7V197.366H629.77V194.51ZM633.592 181.994V173.93H628.048V193.586H633.592V186.488H638.716V181.994H633.592ZM652.153 199.214C649.255 199.214 647.323 196.148 647.323 190.394C647.323 184.682 649.255 181.616 652.153 181.616C655.009 181.616 656.983 184.682 656.983 190.394C656.983 196.148 655.009 199.214 652.153 199.214ZM652.153 176.618C646.273 176.618 641.989 181.91 641.989 190.394C641.989 198.92 646.273 204.254 652.153 204.254C657.991 204.254 662.317 198.92 662.317 190.394C662.317 181.91 657.991 176.618 652.153 176.618ZM677.689 188.504H672.061V173.93H666.517V212.612H672.061V193.082H677.689V188.504ZM693.645 196.232C694.989 196.484 696.375 196.61 697.887 196.61C699.399 196.61 700.827 196.484 702.171 196.232V203.624H693.645V196.232ZM697.887 180.188C703.263 180.188 706.875 182.372 706.875 186.236C706.875 190.058 703.263 192.284 697.887 192.284C692.511 192.284 688.941 190.058 688.941 186.236C688.941 182.372 692.511 180.188 697.887 180.188ZM707.673 203.624V194.174C710.571 192.368 712.335 189.596 712.335 186.236C712.335 179.894 706.245 175.82 697.887 175.82C689.571 175.82 683.481 179.894 683.481 186.236C683.439 189.596 685.203 192.368 688.143 194.174V203.624H680.415V208.118H715.443V203.624H707.673ZM723 198.416H727.032L727.914 182.918L728.124 177.08H721.908L722.118 182.918L723 198.416ZM725.016 209.588C727.2 209.588 728.88 207.824 728.88 205.556C728.88 203.246 727.2 201.524 725.016 201.524C722.832 201.524 721.194 203.246 721.194 205.556C721.194 207.824 722.832 209.588 725.016 209.588ZM371.718 273.588C377.934 273.588 383.268 270.312 383.268 264.474C383.268 260.442 380.706 257.922 377.262 256.872V256.662C380.58 255.318 382.26 252.882 382.26 249.774C382.26 244.188 378.018 241.164 371.55 241.164C367.854 241.164 364.746 242.592 361.848 245.028L365.628 249.606C367.518 247.926 369.114 247.002 371.214 247.002C373.524 247.002 374.784 248.178 374.784 250.32C374.784 252.798 373.104 254.394 367.77 254.394V259.686C374.322 259.686 375.75 261.282 375.75 263.97C375.75 266.322 373.86 267.54 370.962 267.54C368.526 267.54 366.342 266.28 364.452 264.516L361.008 269.22C363.276 271.866 366.762 273.588 371.718 273.588ZM420.076 237.552H413.272V257.04H420.076V237.552ZM394.036 247.674C394.036 245.196 395.8 243.978 398.194 243.978C400.588 243.978 402.352 245.196 402.352 247.674C402.352 250.152 400.588 251.412 398.194 251.412C395.8 251.412 394.036 250.152 394.036 247.674ZM408.904 247.674C408.904 242.382 404.284 238.56 398.194 238.56C392.104 238.56 387.484 242.382 387.484 247.674C387.484 253.008 392.104 256.83 398.194 256.83C404.284 256.83 408.904 253.008 408.904 247.674ZM400.084 271.404V269.934H420.076V258.51H393.322V263.634H413.356V265.104H393.364V276.57H420.916V271.404H400.084ZM452.076 255.108C447.624 252.336 446.49 247.296 446.49 242.424V240.03H441.324V242.424C441.324 245.868 440.862 249.774 438.762 252.798C436.62 249.732 436.158 245.826 436.158 242.424V240.03H430.95V242.424C430.95 247.17 429.816 252.294 425.364 255.108L428.346 259.014C430.908 257.418 432.546 254.94 433.554 252.084C434.478 255.066 436.074 257.754 438.762 259.476C441.408 257.796 443.004 255.15 443.928 252.168C444.894 255.024 446.532 257.46 449.094 259.014L452.076 255.108ZM431.538 266.574H453.462V276.654H459.048V262.164H431.538V266.574ZM453.462 237.93V260.358H459.048V237.93H453.462ZM483.303 245.154H499.977V255.402H483.303V245.154ZM494.433 267.624V259.77H505.395V240.786H477.885V259.77H488.889V267.624H474.189V272.118H509.217V267.624H494.433ZM523.2 263.214C520.302 263.214 518.37 260.148 518.37 254.394C518.37 248.682 520.302 245.616 523.2 245.616C526.056 245.616 528.03 248.682 528.03 254.394C528.03 260.148 526.056 263.214 523.2 263.214ZM523.2 240.618C517.32 240.618 513.036 245.91 513.036 254.394C513.036 262.92 517.32 268.254 523.2 268.254C529.038 268.254 533.364 262.92 533.364 254.394C533.364 245.91 529.038 240.618 523.2 240.618ZM548.736 252.504H543.108V237.93H537.564V276.612H543.108V257.082H548.736V252.504ZM570.89 273.588C577.106 273.588 582.44 270.312 582.44 264.474C582.44 260.442 579.878 257.922 576.434 256.872V256.662C579.752 255.318 581.432 252.882 581.432 249.774C581.432 244.188 577.19 241.164 570.722 241.164C567.026 241.164 563.918 242.592 561.02 245.028L564.8 249.606C566.69 247.926 568.286 247.002 570.386 247.002C572.696 247.002 573.956 248.178 573.956 250.32C573.956 252.798 572.276 254.394 566.942 254.394V259.686C573.494 259.686 574.922 261.282 574.922 263.97C574.922 266.322 573.032 267.54 570.134 267.54C567.698 267.54 565.514 266.28 563.624 264.516L560.18 269.22C562.448 271.866 565.934 273.588 570.89 273.588ZM598.08 258.426C600.138 258.426 601.86 259.56 601.86 262.962C601.86 266.532 600.18 268.002 598.206 268.002C596.232 268.002 594.3 266.448 593.67 261.24C594.804 259.224 596.526 258.426 598.08 258.426ZM598.374 273.588C603.96 273.588 608.664 269.598 608.664 262.962C608.664 256.2 604.716 253.176 599.508 253.176C597.744 253.176 595.098 254.268 593.544 256.242C593.838 249.438 596.4 247.128 599.634 247.128C601.356 247.128 603.288 248.22 604.296 249.312L608.244 244.902C606.27 242.886 603.246 241.164 599.13 241.164C592.662 241.164 586.698 246.33 586.698 257.628C586.698 269.01 592.494 273.588 598.374 273.588ZM622.329 273.588C628.335 273.588 633.627 269.514 633.627 262.5C633.627 255.738 629.175 252.63 623.883 252.63C622.707 252.63 621.783 252.798 620.649 253.26L621.111 247.968H632.241V241.71H614.685L613.887 257.208L617.163 259.35C619.011 258.174 619.851 257.838 621.573 257.838C624.261 257.838 626.151 259.518 626.151 262.668C626.151 265.902 624.261 267.54 621.237 267.54C618.759 267.54 616.575 266.238 614.811 264.558L611.409 269.262C613.887 271.698 617.331 273.588 622.329 273.588ZM670.435 237.552H663.631V257.04H670.435V237.552ZM644.395 247.674C644.395 245.196 646.159 243.978 648.553 243.978C650.947 243.978 652.711 245.196 652.711 247.674C652.711 250.152 650.947 251.412 648.553 251.412C646.159 251.412 644.395 250.152 644.395 247.674ZM659.263 247.674C659.263 242.382 654.643 238.56 648.553 238.56C642.463 238.56 637.843 242.382 637.843 247.674C637.843 253.008 642.463 256.83 648.553 256.83C654.643 256.83 659.263 253.008 659.263 247.674ZM650.443 271.404V269.934H670.435V258.51H643.681V263.634H663.715V265.104H643.723V276.57H671.275V271.404H650.443ZM693.868 242.55C699.496 242.55 702.142 243.348 702.142 245.07C702.142 246.876 699.496 247.632 693.868 247.632C688.282 247.632 685.636 246.876 685.636 245.07C685.636 243.348 688.282 242.55 693.868 242.55ZM693.868 251.664C702.73 251.664 707.896 249.354 707.896 245.07C707.896 240.828 702.73 238.476 693.868 238.476C685.048 238.476 679.882 240.828 679.882 245.07C679.882 249.354 685.048 251.664 693.868 251.664ZM685.93 269.976H707.098V260.022H680.386V264.096H701.638V266.154H680.428V276.318H708.106V272.16H685.93V269.976ZM676.396 253.512V257.838H711.34V253.512H676.396ZM731.604 247.338C731.604 244.986 733.41 243.642 736.056 243.642C738.702 243.642 740.592 244.986 740.592 247.338C740.592 249.69 738.702 251.034 736.056 251.034C733.41 251.034 731.604 249.69 731.604 247.338ZM747.648 256.914C744.876 257.334 741.852 257.544 738.87 257.712V254.94C742.986 254.016 745.716 251.118 745.716 247.338C745.716 242.718 741.684 239.484 736.056 239.484C730.47 239.484 726.438 242.718 726.438 247.338C726.438 251.16 729.21 254.058 733.326 254.94V257.922C730.134 258.006 727.068 258.006 724.422 258.006L725.094 262.416C731.478 262.416 740.172 262.29 747.984 260.82L747.648 256.914ZM735.006 264.936H729.462V275.94H756.51V271.53H735.006V264.936ZM755.208 250.068V237.93H749.664V267.456H755.208V254.646H760.08V250.068H755.208ZM789.981 260.61H795.525V237.93H789.981V244.986H782.925V249.48H789.981V260.61ZM786.453 255.024C780.321 253.05 777.801 248.346 777.801 243.138V239.946H772.173V243.39C772.173 248.724 769.443 253.974 762.849 256.074L765.747 260.526C770.325 258.972 773.391 255.864 775.113 251.916C776.751 255.36 779.481 258.006 783.555 259.392L786.453 255.024ZM782.463 272.37C777.381 272.37 774.735 271.32 774.735 269.136C774.735 266.91 777.381 265.86 782.463 265.86C787.503 265.86 790.149 266.91 790.149 269.136C790.149 271.32 787.503 272.37 782.463 272.37ZM782.463 261.576C774.231 261.576 769.191 264.348 769.191 269.136C769.191 273.84 774.231 276.612 782.463 276.612C790.653 276.612 795.693 273.84 795.693 269.136C795.693 264.348 790.653 261.576 782.463 261.576ZM811.104 263.676C809.004 263.676 807.492 261.996 807.492 259.098C807.492 256.2 809.004 254.478 811.104 254.478C813.204 254.478 814.716 256.2 814.716 259.098C814.716 261.996 813.204 263.676 811.104 263.676ZM811.104 249.858C806.148 249.858 802.62 253.68 802.62 259.098C802.62 264.474 806.148 268.296 811.104 268.296C816.06 268.296 819.588 264.474 819.588 259.098C819.588 253.68 816.06 249.858 811.104 249.858ZM813.834 238.98H808.374V243.768H801.78V248.178H820.26V243.768H813.834V238.98ZM829.752 237.888V253.68H826.812V238.644H821.646V274.974H826.812V258.132H829.752V276.57H835.002V237.888H829.752ZM857.24 250.026H865.808V254.436H857.24V250.026ZM864.338 258.804H871.31V241.038H865.808V245.784H857.24V241.038H851.78V258.804H858.794V264.81C855.476 264.852 852.326 264.852 849.554 264.852L850.226 269.346C856.694 269.388 865.304 269.388 873.41 267.876L872.948 263.844C870.218 264.222 867.278 264.432 864.338 264.6V258.804ZM885.59 253.428H880.508V237.93H874.964V276.57H880.508V258.006H885.59V253.428ZM901.841 260.232C903.185 260.484 904.571 260.61 906.083 260.61C907.595 260.61 909.023 260.484 910.367 260.232V267.624H901.841V260.232ZM906.083 244.188C911.459 244.188 915.071 246.372 915.071 250.236C915.071 254.058 911.459 256.284 906.083 256.284C900.707 256.284 897.137 254.058 897.137 250.236C897.137 246.372 900.707 244.188 906.083 244.188ZM915.869 267.624V258.174C918.767 256.368 920.531 253.596 920.531 250.236C920.531 243.894 914.441 239.82 906.083 239.82C897.767 239.82 891.677 243.894 891.677 250.236C891.635 253.596 893.399 256.368 896.339 258.174V267.624H888.611V272.118H923.639V267.624H915.869Z" fill="white"/>
</g>
<defs>
<filter id="filter0_d_2013_10371" x="978.46" y="122.648" width="590.321" height="461.065" filterUnits="userSpaceOnUse" color-interpolation-filters="sRGB">
<feFlood flood-opacity="0" result="BackgroundImageFix"/>
<feColorMatrix in="SourceAlpha" type="matrix" values="0 0 0 0 0 0 0 0 0 0 0 0 0 0 0 0 0 0 127 0" result="hardAlpha"/>
<feOffset dx="4" dy="3"/>
<feComposite in2="hardAlpha" operator="out"/>
<feColorMatrix type="matrix" values="0 0 0 0 0.733333 0 0 0 0 0.697889 0 0 0 0 0.644722 0 0 0 0.5 0"/>
<feBlend mode="normal" in2="BackgroundImageFix" result="effect1_dropShadow_2013_10371"/>
<feBlend mode="normal" in="SourceGraphic" in2="effect1_dropShadow_2013_10371" result="shape"/>
</filter>
</defs>
</svg>
