<svg width="1920" height="517" viewBox="0 0 1920 517" fill="none" xmlns="http://www.w3.org/2000/svg">
<rect width="1920" height="517" fill="#FFE3E8"/>
<path d="M986.177 367.095C837.646 410.268 760.171 483.687 740 515H1920V180.216C1886.08 167.224 1787.7 149.036 1665.57 180.216C1512.91 219.191 1551.42 291.144 1391.2 339.113C1230.98 387.083 1171.84 313.13 986.177 367.095Z" fill="#FFD8DF"/>
<circle cx="1569.03" cy="175" r="84" fill="#FFF2F5" fill-opacity="0.7"/>
<path d="M1226.49 162.711C1229.95 157.556 1232.25 155.025 1238.04 152.131C1241.6 152.738 1243.02 153.999 1244.02 158.667C1237.88 161.863 1235.25 164.126 1232.47 169.246C1231.28 166.221 1230.28 164.662 1226.49 162.711Z" fill="#FAA7B7"/>
<path d="M1182.28 138.772C1182.85 132.182 1182.53 128.711 1180.13 123.258C1183.14 123.632 1184.83 123.515 1187.96 122.172C1190.64 127.572 1191.11 131.091 1190.11 137.687C1187.04 139.154 1185.33 139.269 1182.28 138.772Z" fill="#6196FE"/>
<path d="M1188.77 215.567C1182.79 212.642 1180.16 210.136 1177.68 204.511C1180.97 203.131 1181.82 201.411 1183.63 198.539C1185.89 203.4 1188.43 205.85 1194.72 209.594C1193.76 212.909 1192.41 214.197 1188.77 215.567Z" fill="#A9B5FF"/>
<path d="M1142.28 257.115C1141.38 251.142 1140.39 247.951 1137.6 242.166C1141.31 242.014 1143.19 241.555 1145.82 239.594C1148.54 245.136 1149.64 248.43 1150.49 254.543C1148.34 257.837 1146.4 258.092 1142.28 257.115Z" fill="#031B89"/>
<path d="M1139.15 177.989C1134.24 174.108 1131.17 172.751 1124.78 171.762C1124.09 167.299 1124.35 165.094 1128.62 162.905C1134.45 164.257 1137.6 165.654 1142.99 169.132C1139.25 171.338 1138.61 173.375 1139.15 177.989Z" fill="#FA7B8C"/>
<path d="M1093.69 219.996C1094.04 213.36 1095.04 210.075 1098.33 205.036C1101.4 207.788 1103.38 208.234 1107.55 207.895C1104.21 212.411 1103.48 215.944 1102.91 222.855C1099.04 224.005 1097.23 223.595 1093.69 219.996Z" fill="#6196FE"/>
<path d="M1187.35 306.369C1182.54 302.545 1180.19 300.05 1176.99 294.619C1178.08 291.924 1179.15 290.769 1182.43 289.825C1185.25 295.468 1187.67 297.941 1192.79 301.575C1189.71 302.367 1188.38 303.277 1187.35 306.369Z" fill="#FB7A8E"/>
<path d="M1274.53 127.157C1274.52 120.709 1275.37 117.382 1279.87 112.435C1282.12 114.139 1283.84 114.824 1287.71 115.282C1284.62 121.353 1283.35 124.503 1282.36 130.004C1279.23 131.426 1277.94 131.156 1274.53 127.157Z" fill="#031B89"/>
<path d="M1505.18 142.668C1510.15 139.182 1512.48 136.669 1515.93 131.282C1517.44 134.924 1518.72 136.239 1522.14 137.142C1518.82 142.882 1516.35 145.193 1511.38 148.529C1507.92 147.338 1506.54 145.924 1505.18 142.668Z" fill="#FB7A8E"/>
<path d="M1594.5 179.342C1593.03 173.24 1591.7 170.07 1587.8 165.182C1589.22 162.59 1590.45 161.891 1593.56 162.459C1597.57 167.114 1599.02 170.307 1600.25 176.618C1597.2 176.292 1596.05 177.075 1594.5 179.342Z" fill="#6196FE"/>
<path d="M1577.78 232.702C1583.67 234.495 1587.35 234.989 1593.39 234.052C1590.8 237.815 1590.94 239.852 1592.57 243.486C1586.6 244.996 1583.22 245.09 1576.97 242.136C1575.14 238.392 1574.73 236.305 1577.78 232.702Z" fill="#A9B5FF"/>
<path d="M1648.13 200.06C1649.76 193.434 1650.88 189.96 1654.62 185.803C1658.94 184.361 1660.64 185.632 1662.95 189.592C1658.98 194.189 1657.83 197.482 1656.46 203.849C1654.31 199.402 1652.47 198.43 1648.13 200.06Z" fill="#031B89"/>
<path d="M1623.25 137.769C1622.21 131.446 1622.52 128.039 1625.88 122.327C1628.23 124.104 1629.77 124.133 1632.71 123.489C1630.08 129.175 1629.69 132.594 1630.08 138.931C1627.65 140.115 1626.22 140.053 1623.25 137.769Z" fill="#FAA7B8"/>
<path d="M1572.95 114.976C1578.91 112.617 1581.69 110.67 1586.23 106.664C1586.53 109.68 1587.21 110.914 1589.91 112.54C1585.57 117.265 1582.67 119.125 1576.63 120.852C1573.51 119.242 1572.95 118.099 1572.95 114.976Z" fill="#A9B5FF"/>
<path d="M1657.06 264.948C1663.18 264.464 1666.71 265.292 1672.46 267.806C1673.37 272.27 1672.78 274.074 1670.8 276.751C1665 274.153 1661.74 273.54 1655.4 273.893C1657.17 270.758 1657.83 268.886 1657.06 264.948Z" fill="#FB7A8E"/>
<path d="M1597.82 298.7C1602.13 294.677 1603.8 291.692 1605.35 284.965C1606.7 287.929 1608.26 288.55 1612.04 288.634C1610.5 295.797 1608.73 298.634 1604.51 302.369C1601.06 302.528 1599.58 301.886 1597.82 298.7Z" fill="#031B89"/>
<path d="M780.296 160.51C904.408 113.658 969.145 33.9818 986 -3.05176e-05H6.10352e-05V363.317C28.3466 377.416 110.552 397.154 212.599 363.317C340.159 321.02 307.981 242.934 441.861 190.877C575.741 138.82 625.156 219.075 780.296 160.51Z" fill="#FFD8DF"/>
<ellipse cx="1223.53" cy="372" rx="56.5" ry="57" fill="#FFF7F8" fill-opacity="0.5"/>
<g filter="url(#filter0_d_2199_16603)">
<path d="M1385.08 429.001L1235.47 369.917V266.527L1385.08 325.612V429.001Z" fill="#98E0FF"/>
<path d="M1385.08 429.001L1534.7 369.917V266.527L1385.08 325.612V429.001Z" fill="#96D6F2"/>
<path d="M1385.08 325.532L1230.01 264.246V208.56L1385.08 270.007V325.532Z" fill="#AFE7FF"/>
<path d="M1385.08 325.532L1540.15 264.246V208.56L1385.08 270.007V325.532Z" fill="#AADFF6"/>
<path d="M1540.15 208.56L1385.08 270.062L1230.01 208.56L1385.08 147.059L1540.15 208.56Z" fill="#CBEFFF"/>
<path d="M1327.62 406.314L1292.49 392.44V288.939L1327.62 302.92V406.314Z" fill="#FF97AE"/>
<path d="M1442.32 406.397L1477.46 392.523V289.134L1442.32 302.911V406.397Z" fill="#EC8CA1"/>
<path d="M1329.35 303.602L1291.19 288.428V232.804L1329.35 247.923V303.602Z" fill="#FFA7BA"/>
<path d="M1440.81 303.507L1478.97 288.427V232.826L1440.81 247.922V303.507Z" fill="#F39FB2"/>
<path d="M1291.19 232.811L1329.35 247.926L1484.42 186.425L1446.26 171.326L1291.19 232.811Z" fill="#FFBECD"/>
<path d="M1478.97 232.811L1440.81 247.926L1285.74 186.425L1323.9 171.326L1478.97 232.811Z" fill="#FFBECD"/>
<path d="M1372.61 202.976C1366.52 196.432 1365.12 186.67 1369.42 178.841C1370.66 176.597 1372.29 174.595 1374.24 172.933C1376.77 170.768 1379.74 169.232 1383.13 169.062C1386.54 168.868 1389.95 169.063 1393.31 169.643C1401.52 171.123 1407.21 178.808 1406.07 187.069C1406.05 187.237 1406.03 187.407 1406 187.577C1404.46 197.155 1385.08 208.555 1385.08 208.555C1385.08 208.555 1401.07 197.448 1384.91 194.376C1377.71 193.01 1375.1 205.589 1375.1 205.589L1372.61 202.976Z" fill="url(#paint0_linear_2199_16603)"/>
<path d="M1403.1 175.686C1403.1 175.686 1425.79 155.729 1434.45 156.142C1443.12 156.556 1447.14 185.015 1447.14 185.015C1447.14 185.015 1437.65 176.354 1428.06 179.138C1418.47 181.922 1405.5 189.437 1405.5 189.437C1406.23 187.12 1406.39 184.662 1405.97 182.269C1405.56 179.876 1404.57 177.618 1403.1 175.686H1403.1Z" fill="url(#paint1_linear_2199_16603)"/>
<path d="M1405.5 189.439C1405.5 189.439 1419.51 181.371 1428.05 179.14C1438.06 176.527 1447.13 185.018 1447.13 185.018C1447.13 185.018 1435.93 184.987 1427.88 188.782C1419.84 192.577 1405.5 189.439 1405.5 189.439Z" fill="#FB6F8E"/>
<path d="M1368.74 180.221C1368.74 180.221 1365.98 170.579 1356.7 163.773C1347.42 156.967 1346.9 157.688 1346.9 157.688C1340.44 161.072 1335.15 166.337 1331.74 172.786C1333.63 173.611 1336.51 174.942 1339.99 176.589C1344.28 178.616 1348.91 180.902 1350.24 181.922C1359.17 188.776 1366.93 188.776 1366.93 188.776C1366.9 185.825 1367.52 182.903 1368.74 180.216V180.221Z" fill="url(#paint2_linear_2199_16603)"/>
<path d="M1366.93 188.784C1366.93 188.784 1360.03 189.143 1349.28 181.292C1346.3 179.121 1335.1 174.305 1331.2 172.657C1330.78 172.481 1330.32 172.435 1329.87 172.523C1329.42 172.612 1329.01 172.833 1328.69 173.156C1326.49 175.397 1324.76 178.063 1323.61 180.992C1322.46 183.921 1321.92 187.052 1322.02 190.197C1322.36 201.932 1324.35 207.921 1324.35 207.921C1324.35 207.921 1341.06 204.759 1349.58 204.896C1357.99 205.033 1360.99 206.924 1365.05 206.408C1369.1 205.893 1374.27 204.754 1374.27 204.754C1372.73 203.1 1370.48 201.049 1368.81 197.277C1367.63 194.599 1366.99 191.712 1366.93 188.784Z" fill="url(#paint3_linear_2199_16603)"/>
<path d="M1374.27 204.748C1374.27 204.748 1355.58 213.567 1342.67 213.582C1326 213.603 1324.36 207.91 1324.36 207.91C1324.36 207.91 1341.2 204.75 1349.31 204.883C1357.94 205.022 1360.21 206.674 1363.84 206.485C1368.55 206.239 1374.27 204.748 1374.27 204.748Z" fill="#FB6F8E"/>
<path d="M1405.5 189.436C1405.5 189.436 1420.17 192.13 1426.9 189.2C1433.39 186.364 1436.33 186.14 1440.24 185.509C1442.52 185.181 1444.83 185.016 1447.13 185.015C1447.13 185.015 1448.71 191.958 1445.14 197.388C1441.56 202.819 1433.93 213.578 1433.93 213.578C1433.93 213.578 1431.94 211 1425.11 210.383C1416.43 209.596 1414.34 211.896 1407.12 210.726C1401.56 209.826 1389.77 205.527 1389.77 205.527C1393.52 203.126 1396.98 200.295 1400.08 197.09C1405.2 191.684 1405.5 189.436 1405.5 189.436Z" fill="url(#paint4_linear_2199_16603)"/>
<path d="M1389.77 205.53C1389.77 205.53 1396.55 212.717 1399.9 213.801C1403.25 214.886 1408.55 214.413 1412.32 215.238C1416.08 216.063 1419.21 219.348 1425.65 217.852C1432.1 216.356 1433.94 213.598 1433.94 213.598C1433.94 213.598 1431.34 210.46 1422.7 210.252C1416.1 210.094 1415.2 211.197 1409.84 211.048C1406.53 210.958 1400.56 209.118 1400.56 209.118L1389.77 205.53Z" fill="#FB6F8E"/>
<path d="M1384.92 194.391C1379.06 193.28 1375.68 200.835 1374.63 203.688C1374.38 204.364 1374.4 205.111 1374.68 205.774C1375.3 207.228 1376.55 209.792 1377.89 210.432C1379.8 211.361 1385.08 208.558 1385.08 208.558C1385.08 208.558 1401.08 197.451 1384.92 194.379" fill="#FB6F8E"/>
<path d="M1330.06 211.972C1330.06 211.972 1323.44 217.408 1317.72 218.23C1312 219.052 1303.33 216.727 1283.38 227.709C1263.42 238.69 1263.58 264.373 1263.58 264.373L1280.28 256.639C1280.28 256.639 1281.06 260.609 1285.25 267.053C1287.76 270.93 1290.78 274.451 1294.23 277.522C1294.23 277.522 1305.21 247.359 1315.42 239.002C1322.07 233.567 1330.09 229.632 1334.88 227.55C1337.29 226.503 1339.81 225.745 1342.4 225.294C1347.81 224.348 1358.36 222.368 1362.75 220.596C1375.01 215.633 1379.91 210.521 1379.91 210.521C1379.5 210.627 1379.07 210.668 1378.64 210.642C1377.57 210.625 1376.42 209.037 1376.32 208.858C1375.91 208.206 1375.52 207.533 1375.18 206.839C1374.84 206.16 1374.54 205.461 1374.28 204.748C1361.5 210.283 1354.46 212.18 1348.46 213.095C1338.17 214.659 1330.06 211.972 1330.06 211.972Z" fill="url(#paint5_linear_2199_16603)"/>
<path d="M1379.89 210.521C1383.51 209.583 1386.87 207.881 1389.77 205.53C1394.78 210.63 1398.5 213.449 1399.9 213.801C1403.13 214.612 1411.85 214.933 1413.17 215.456C1416.96 217.004 1420.63 218.225 1420.63 218.225C1420.63 218.225 1437.44 233.274 1445.07 243.793C1452.7 254.311 1458.07 273.696 1458.07 273.696L1442.33 270.059L1427.55 287.967C1427.55 287.967 1417.65 242.554 1406.23 231.639C1395.23 221.125 1397.85 223.994 1386.58 218.225C1380.55 215.144 1379.89 210.521 1379.89 210.521Z" fill="url(#paint6_linear_2199_16603)"/>
</g>
<defs>
<filter id="filter0_d_2199_16603" x="1230.01" y="147.059" width="330.14" height="301.942" filterUnits="userSpaceOnUse" color-interpolation-filters="sRGB">
<feFlood flood-opacity="0" result="BackgroundImageFix"/>
<feColorMatrix in="SourceAlpha" type="matrix" values="0 0 0 0 0 0 0 0 0 0 0 0 0 0 0 0 0 0 127 0" result="hardAlpha"/>
<feOffset dx="10" dy="10"/>
<feGaussianBlur stdDeviation="5"/>
<feComposite in2="hardAlpha" operator="out"/>
<feColorMatrix type="matrix" values="0 0 0 0 0.954167 0 0 0 0 0.747431 0 0 0 0 0.785513 0 0 0 1 0"/>
<feBlend mode="normal" in2="BackgroundImageFix" result="effect1_dropShadow_2199_16603"/>
<feBlend mode="normal" in="SourceGraphic" in2="effect1_dropShadow_2199_16603" result="shape"/>
</filter>
<linearGradient id="paint0_linear_2199_16603" x1="1405.85" y1="188.607" x2="1367.27" y2="188.607" gradientUnits="userSpaceOnUse">
<stop stop-color="#FFBECD"/>
<stop offset="0.260417" stop-color="#FAA6BA"/>
<stop offset="0.458333" stop-color="#FFB4C5"/>
<stop offset="0.6875" stop-color="#FFA8BC"/>
<stop offset="1" stop-color="#FFBECD"/>
</linearGradient>
<linearGradient id="paint1_linear_2199_16603" x1="1447.4" y1="155.962" x2="1402.89" y2="181.93" gradientUnits="userSpaceOnUse">
<stop stop-color="#FFA7BA"/>
<stop offset="1" stop-color="#FF7795"/>
</linearGradient>
<linearGradient id="paint2_linear_2199_16603" x1="1337.97" y1="164.494" x2="1368.76" y2="188.608" gradientUnits="userSpaceOnUse">
<stop stop-color="#FFA7BA"/>
<stop offset="1" stop-color="#FF6D8E"/>
</linearGradient>
<linearGradient id="paint3_linear_2199_16603" x1="1369.13" y1="194.915" x2="1322.01" y2="190.092" gradientUnits="userSpaceOnUse">
<stop stop-color="#FF97AE"/>
<stop offset="0.515625" stop-color="#FF86A1"/>
<stop offset="1" stop-color="#FF97AE"/>
</linearGradient>
<linearGradient id="paint4_linear_2199_16603" x1="1447.4" y1="198.996" x2="1389.53" y2="198.996" gradientUnits="userSpaceOnUse">
<stop stop-color="#FF85A0"/>
<stop offset="0.338542" stop-color="#FF97AE"/>
<stop offset="0.671875" stop-color="#FF839E"/>
<stop offset="1" stop-color="#FF97AE"/>
</linearGradient>
<linearGradient id="paint5_linear_2199_16603" x1="1379.89" y1="204.931" x2="1251.9" y2="269.851" gradientUnits="userSpaceOnUse">
<stop stop-color="#FFD3DD"/>
<stop offset="0.557292" stop-color="#FF94AC"/>
<stop offset="1" stop-color="#FFC2D0"/>
</linearGradient>
<linearGradient id="paint6_linear_2199_16603" x1="1379.89" y1="197.511" x2="1457.79" y2="288.029" gradientUnits="userSpaceOnUse">
<stop stop-color="#FFD3DD"/>
<stop offset="0.590653" stop-color="#FFA5BA"/>
<stop offset="1" stop-color="#FFC6D3"/>
</linearGradient>
</defs>
</svg>
