<svg width="362" height="62" viewBox="0 0 362 62" fill="none" xmlns="http://www.w3.org/2000/svg">
<rect width="362" height="62" rx="31" fill="#FFB64B"/>
<path d="M46.72 24.24H42.6V22.28H39.94V24.24H35.86V26.3H46.7L46.72 24.24ZM39.28 30.5C39.28 29.5 40.1 28.96 41.28 28.96C42.44 28.96 43.28 29.5 43.28 30.5C43.28 31.52 42.44 32.06 41.28 32.06C40.1 32.06 39.28 31.52 39.28 30.5ZM45.8 30.5C45.8 28.42 43.92 26.96 41.28 26.96C38.64 26.96 36.76 28.42 36.76 30.5C36.76 32.62 38.64 34.06 41.28 34.06C43.92 34.06 45.8 32.62 45.8 30.5ZM41.12 35.06H38.48V40.4H51.02V38.3H41.12V35.06ZM50.36 27.92V22.3H47.72V36.08H50.36V30.1H52.8V27.92H50.36ZM63.2097 34.56C62.2097 34.56 61.4897 33.76 61.4897 32.38C61.4897 31 62.2097 30.18 63.2097 30.18C64.2097 30.18 64.9297 31 64.9297 32.38C64.9297 33.76 64.2097 34.56 63.2097 34.56ZM63.2097 27.98C60.8497 27.98 59.1697 29.8 59.1697 32.38C59.1697 34.94 60.8497 36.76 63.2097 36.76C65.5697 36.76 67.2497 34.94 67.2497 32.38C67.2497 29.8 65.5697 27.98 63.2097 27.98ZM64.5097 22.8H61.9097V25.08H58.7697V27.18H67.5697V25.08H64.5097V22.8ZM72.0897 22.28V29.8H70.6897V22.64H68.2297V39.94H70.6897V31.92H72.0897V40.7H74.5897V22.28H72.0897ZM89.2281 25.3H79.2681V29.7H92.1481V27.92H81.8681V26.96H91.8281V22.62H79.2281V24.4H89.2281V25.3ZM81.7081 37.78H91.8881V33.4H79.0681V35.18H89.2681V36.12H79.0881V40.56H92.3881V38.78H81.7081V37.78ZM77.1881 30.58V32.48H93.8681V30.58H77.1881ZM101.138 24.2V26.3H107.278C106.898 30.38 104.858 33.26 100.158 35.52L101.538 37.6C108.078 34.44 109.978 29.84 109.978 24.2H101.138ZM112.798 22.28V40.7H115.458V22.28H112.798ZM120.356 37.38H130.636V40.66H133.276V35.3H120.356V37.38ZM128.176 32.16V30.84H133.536V28.84H123.196V27.64H133.156V22.66H120.556V24.66H130.556V25.78H120.596V30.84H125.536V32.16H118.516V34.26H135.196V32.16H128.176ZM147.755 23.66H143.655V22.16H140.995V23.66H136.895V25.64H147.755V23.66ZM140.335 29.1C140.335 28.32 141.115 27.94 142.335 27.94C143.555 27.94 144.335 28.32 144.335 29.1C144.335 29.86 143.555 30.24 142.335 30.24C141.115 30.24 140.335 29.86 140.335 29.1ZM146.855 29.1C146.855 27.24 145.075 26.08 142.335 26.08C139.615 26.08 137.815 27.24 137.815 29.1C137.815 30.94 139.615 32.1 142.335 32.1C145.075 32.1 146.855 30.94 146.855 29.1ZM141.895 37.64H151.415V32.96H139.255V34.88H148.815V35.84H139.275V40.58H151.955V38.66H141.895V37.64ZM151.415 26.2V22.28H148.775V32.24H151.415V28.36H153.855V26.2H151.415ZM175.964 30.7C171.764 30.02 169.504 27.26 169.504 24.64V23.32H166.684V24.64C166.684 27.2 164.404 30.02 160.244 30.7L161.324 32.88C164.544 32.3 166.884 30.56 168.084 28.3C169.284 30.58 171.644 32.3 174.884 32.88L175.964 30.7ZM169.424 36.42V32.3H166.784V36.42H159.844V38.54H176.524V36.42H169.424ZM188.443 27.68H184.663V24.9H188.443V27.68ZM182.043 27.68H179.823V29.78H193.263V27.68H191.063V24.9H193.403V22.8H179.703V24.9H182.043V27.68ZM190.303 38.44H182.763V36.58H190.303V38.44ZM194.883 33.02V30.92H178.243V33.02H185.243V34.52H180.183V40.5H192.903V34.52H187.883V33.02H194.883ZM212.193 30.5C209.273 29.78 207.993 27.94 207.933 26.14H211.573V24.06H207.933V22.24H205.293V24.06H201.693V26.14H205.293C205.233 28.1 203.933 30.02 201.033 30.8L202.253 32.86C204.373 32.28 205.833 31.02 206.653 29.42C207.493 30.86 208.913 31.98 211.013 32.54L212.193 30.5ZM215.913 35.66V33.58H203.573V35.66H208.193C207.733 37.02 205.993 38.3 202.773 38.66L203.713 40.66C206.653 40.28 208.693 39.14 209.753 37.58C210.793 39.14 212.833 40.32 215.753 40.68L216.713 38.68C213.533 38.3 211.773 36.98 211.273 35.66H215.913ZM215.673 26.42V22.3H213.033V32.78H215.673V28.6H218.113V26.42H215.673ZM227.891 23.22C224.031 23.22 221.031 25.34 221.031 28.56C221.031 31.76 224.031 33.88 227.891 33.88C231.771 33.88 234.771 31.76 234.771 28.56C234.771 25.34 231.771 23.22 227.891 23.22ZM227.891 25.38C230.411 25.38 232.191 26.56 232.191 28.56C232.191 30.52 230.411 31.72 227.891 31.72C225.391 31.72 223.611 30.52 223.611 28.56C223.611 26.56 225.391 25.38 227.891 25.38ZM219.571 36.36V38.52H236.251V36.36H219.571ZM241.209 30.76H246.869V23.86H238.569V25.96H244.249V28.7H238.609V36.5H240.129C243.189 36.5 245.629 36.4 248.369 35.96L248.129 33.82C245.809 34.2 243.709 34.32 241.209 34.34V30.76ZM250.729 22.28V28.92H247.849V31.06H250.729V40.76H253.389V22.28H250.729ZM261.739 24.18V26.32H267.759C267.279 30.4 264.999 33.32 260.719 35.52L262.199 37.54C268.319 34.44 270.419 29.7 270.419 24.18H261.739ZM277.899 29.32H275.319V22.28H272.679V40.68H275.319V31.5H277.899V29.32ZM280.318 24.2V26.3H286.458C286.078 30.38 284.038 33.26 279.338 35.52L280.718 37.6C287.258 34.44 289.158 29.84 289.158 24.2H280.318ZM291.978 22.28V40.7H294.638V22.28H291.978Z" fill="white"/>
<path d="M327 31L313.5 38.7942L313.5 23.2058L327 31Z" fill="white"/>
</svg>
