<svg width="1920" height="517" viewBox="0 0 1920 517" fill="none" xmlns="http://www.w3.org/2000/svg">
<mask id="mask0_2199_17111" style="mask-type:alpha" maskUnits="userSpaceOnUse" x="0" y="0" width="1920" height="517">
<rect width="1920" height="517" fill="#C4C4C4"/>
</mask>
<g mask="url(#mask0_2199_17111)">
<rect width="1920" height="517" fill="#5F627E"/>
<path d="M1920 0H1332.68L226 517H1920V0Z" fill="#B3B4C5"/>
<line x1="1" y1="-1" x2="219.759" y2="-1" transform="matrix(0.906308 -0.422618 0.414271 0.910154 1658.25 385.234)" stroke="#E9E8EB" stroke-width="2" stroke-linecap="round"/>
<line x1="1" y1="-1" x2="21.0273" y2="-1" transform="matrix(0.993086 0.118068 -0.115378 0.993243 1868.21 281.667)" stroke="#E9E8EB" stroke-width="2" stroke-linecap="round"/>
<line x1="1" y1="-1" x2="21.0422" y2="-1" transform="matrix(-0.544187 0.838252 -0.833409 -0.553748 1883.67 270.898)" stroke="#E9E8EB" stroke-width="2" stroke-linecap="round"/>
<line x1="1" y1="-1" x2="21.0162" y2="-1" transform="matrix(0.422561 0.906976 -0.9021 0.430159 1872.92 272.227)" stroke="#E9E8EB" stroke-width="2" stroke-linecap="round"/>
<path d="M212.712 345.899C212.571 349.815 209.323 352.853 205.48 352.711C201.638 352.57 198.618 349.3 198.759 345.384C198.9 341.469 202.148 338.43 205.991 338.572C209.833 338.714 212.853 341.984 212.712 345.899Z" stroke="#E9E8EB" stroke-width="2"/>
<line x1="1" y1="-1" x2="206.285" y2="-1" transform="matrix(0.906308 -0.422618 0.414278 0.910151 -0.25 442.829)" stroke="#E9E8EB" stroke-width="2" stroke-linecap="round"/>
<line x1="802.644" y1="154.924" x2="1130.8" y2="1.90049" stroke="#E9E8EB" stroke-width="2" stroke-linecap="round" stroke-dasharray="10 10"/>
<line x1="1736.48" y1="246.541" x2="2064.64" y2="93.5177" stroke="#E9E8EB" stroke-width="2" stroke-linecap="round" stroke-dasharray="10 10"/>
<line x1="1" y1="-1" x2="189.71" y2="-1" transform="matrix(0.906308 -0.422618 0.4143 0.91014 24.707 367.599)" stroke="#E9E8EB" stroke-width="2" stroke-linecap="round" stroke-dasharray="5 5"/>
<line x1="1" y1="-1" x2="219.759" y2="-1" transform="matrix(0.906308 -0.422618 0.414271 0.910154 212 159.235)" stroke="#E9E8EB" stroke-width="2" stroke-linecap="round"/>
<line x1="1" y1="-1" x2="21.0273" y2="-1" transform="matrix(0.993086 0.118068 -0.115378 0.993243 421.959 55.668)" stroke="#E9E8EB" stroke-width="2" stroke-linecap="round"/>
<line x1="1" y1="-1" x2="21.0422" y2="-1" transform="matrix(-0.544187 0.838252 -0.833409 -0.553748 437.424 44.8994)" stroke="#E9E8EB" stroke-width="2" stroke-linecap="round"/>
<line x1="1" y1="-1" x2="21.0162" y2="-1" transform="matrix(0.422561 0.906976 -0.9021 0.430159 426.673 46.2275)" stroke="#E9E8EB" stroke-width="2" stroke-linecap="round"/>
<g filter="url(#filter0_d_2199_17111)">
<path d="M1338.13 78.5108C1338.13 75.7493 1340.37 73.5107 1343.13 73.5107H1726C1728.76 73.5107 1731 75.7493 1731 78.5107V394.325C1731 397.086 1728.76 399.325 1726 399.325H1343.13C1340.37 399.325 1338.13 397.086 1338.13 394.325V78.5108Z" fill="white"/>
</g>
<rect x="1338.13" y="129.389" width="392.868" height="201.162"/>
<rect x="1408.14" y="346.079" width="37.2363" height="37.2363" rx="5.7753"/>
<rect x="1450.34" y="346.079" width="37.2363" height="37.2363" rx="5.7753"/>
<rect x="1619.14" y="383.316" width="37.2363" height="37.2363" rx="5.7753" transform="rotate(-90 1619.14 383.316)"/>
<rect x="1619.24" y="383.26" width="37.2363" height="37.2363" rx="5.7753" transform="rotate(-90 1619.24 383.26)" fill="url(#paint0_linear_2199_17111)"/>
<rect x="1534.74" y="346.079" width="37.2363" height="37.2363" rx="5.7753"/>
<rect x="1576.94" y="346.079" width="37.2363" height="37.2363" rx="5.7753"/>
<rect x="1492.54" y="346.079" width="37.2363" height="37.2363" rx="5.7753"/>
<g filter="url(#filter1_d_2199_17111)">
<circle cx="1654.89" cy="364.449" r="5.95781" fill="white"/>
</g>
<path d="M1653.89 366.932L1656.38 364.449L1653.89 361.967" stroke="#514C57" stroke-width="1.15506" stroke-linecap="round"/>
<path d="M1390.11 115.761H1393.96V114.968H1392.48C1392.18 114.968 1391.8 115.001 1391.5 115.033C1392.76 113.82 1393.68 112.632 1393.68 111.492C1393.68 110.408 1392.98 109.705 1391.89 109.705C1391.11 109.705 1390.58 110.036 1390.07 110.594L1390.6 111.104C1390.92 110.74 1391.3 110.449 1391.77 110.449C1392.44 110.449 1392.77 110.893 1392.77 111.532C1392.77 112.51 1391.88 113.667 1390.11 115.219V115.761ZM1396.68 115.874C1397.85 115.874 1398.61 114.831 1398.61 112.761C1398.61 110.707 1397.85 109.705 1396.68 109.705C1395.51 109.705 1394.76 110.707 1394.76 112.761C1394.76 114.831 1395.51 115.874 1396.68 115.874ZM1396.68 115.13C1396.08 115.13 1395.65 114.483 1395.65 112.761C1395.65 111.063 1396.08 110.432 1396.68 110.432C1397.29 110.432 1397.71 111.063 1397.71 112.761C1397.71 114.483 1397.29 115.13 1396.68 115.13ZM1399.34 115.761H1403.19V114.968H1401.7C1401.41 114.968 1401.03 115.001 1400.72 115.033C1401.98 113.82 1402.9 112.632 1402.9 111.492C1402.9 110.408 1402.2 109.705 1401.11 109.705C1400.33 109.705 1399.81 110.036 1399.29 110.594L1399.82 111.104C1400.14 110.74 1400.53 110.449 1400.99 110.449C1401.66 110.449 1402 110.893 1402 111.532C1402 112.51 1401.1 113.667 1399.34 115.219V115.761ZM1403.95 115.761H1407.8V114.968H1406.31C1406.02 114.968 1405.64 115.001 1405.33 115.033C1406.59 113.82 1407.51 112.632 1407.51 111.492C1407.51 110.408 1406.81 109.705 1405.72 109.705C1404.94 109.705 1404.42 110.036 1403.9 110.594L1404.43 111.104C1404.75 110.74 1405.14 110.449 1405.61 110.449C1406.27 110.449 1406.61 110.893 1406.61 111.532C1406.61 112.51 1405.71 113.667 1403.95 115.219V115.761ZM1413.86 109.042V114.499H1414.7V109.042H1413.86ZM1411.9 109.947V110.618H1414.15V109.947H1411.9ZM1409.91 115.599V116.286H1414.88V115.599H1409.91ZM1409.91 114.022V115.931H1410.76V114.022H1409.91ZM1409 109.551V113.028H1409.84V109.551H1409ZM1409 112.769V113.464H1409.57C1410.66 113.464 1411.65 113.424 1412.79 113.214L1412.71 112.518C1411.6 112.721 1410.63 112.769 1409.57 112.769H1409ZM1411.9 111.338V112.017H1414.15V111.338H1411.9ZM1419.77 115.874C1420.93 115.874 1421.69 114.831 1421.69 112.761C1421.69 110.707 1420.93 109.705 1419.77 109.705C1418.6 109.705 1417.85 110.707 1417.85 112.761C1417.85 114.831 1418.6 115.874 1419.77 115.874ZM1419.77 115.13C1419.16 115.13 1418.74 114.483 1418.74 112.761C1418.74 111.063 1419.16 110.432 1419.77 110.432C1420.38 110.432 1420.8 111.063 1420.8 112.761C1420.8 114.483 1420.38 115.13 1419.77 115.13ZM1422.76 115.761H1426.17V114.993H1425V109.81H1424.3C1423.95 110.02 1423.56 110.166 1423 110.263V110.853H1424.07V114.993H1422.76V115.761ZM1428.95 112.074V113.376H1429.79V112.074H1428.95ZM1432.33 109.042V113.359H1433.18V109.042H1432.33ZM1427.14 112.349C1428.52 112.349 1430.25 112.333 1431.86 112.106L1431.81 111.572C1430.25 111.734 1428.47 111.742 1427.04 111.742L1427.14 112.349ZM1428.14 113.61V114.2H1432.35V114.685H1428.15V115.955H1428.98V115.235H1433.18V113.61H1428.14ZM1428.15 115.769V116.367H1433.39V115.769H1428.15ZM1430.93 112.518V113.044H1432.6V112.518H1430.93ZM1429.41 109.171C1428.31 109.171 1427.58 109.6 1427.58 110.279C1427.58 110.958 1428.31 111.387 1429.41 111.387C1430.51 111.387 1431.24 110.958 1431.24 110.279C1431.24 109.6 1430.51 109.171 1429.41 109.171ZM1429.41 109.737C1430.04 109.737 1430.45 109.939 1430.45 110.279C1430.45 110.618 1430.04 110.812 1429.41 110.812C1428.77 110.812 1428.37 110.618 1428.37 110.279C1428.37 109.939 1428.77 109.737 1429.41 109.737ZM1436.29 115.761H1440.14V114.968H1438.65C1438.36 114.968 1437.98 115.001 1437.67 115.033C1438.93 113.82 1439.86 112.632 1439.86 111.492C1439.86 110.408 1439.15 109.705 1438.06 109.705C1437.28 109.705 1436.76 110.036 1436.24 110.594L1436.78 111.104C1437.09 110.74 1437.48 110.449 1437.95 110.449C1438.61 110.449 1438.95 110.893 1438.95 111.532C1438.95 112.51 1438.05 113.667 1436.29 115.219V115.761ZM1441.24 115.761H1444.64V114.993H1443.48V109.81H1442.78C1442.43 110.02 1442.04 110.166 1441.48 110.263V110.853H1442.55V114.993H1441.24V115.761ZM1447.61 109.284C1446.5 109.284 1445.67 109.972 1445.67 110.95C1445.67 111.92 1446.5 112.607 1447.61 112.607C1448.72 112.607 1449.55 111.92 1449.55 110.95C1449.55 109.972 1448.72 109.284 1447.61 109.284ZM1447.61 109.98C1448.25 109.98 1448.72 110.36 1448.72 110.95C1448.72 111.54 1448.25 111.92 1447.61 111.92C1446.97 111.92 1446.49 111.54 1446.49 110.95C1446.49 110.36 1446.97 109.98 1447.61 109.98ZM1450.78 109.042V112.785H1451.63V109.042H1450.78ZM1446.78 113.125V113.788H1450.78V114.394H1446.8V116.036H1447.62V115.017H1451.63V113.125H1446.78ZM1446.8 115.672V116.343H1451.84V115.672H1446.8Z" fill="#8C8C95"/>
<path d="M1390.19 103.261V104.055H1397.84V103.261H1390.19ZM1393.49 101.292V103.501H1394.45V101.292H1393.49ZM1393.46 97.1804V97.818C1393.46 99.1117 1392.11 100.378 1390.43 100.664L1390.84 101.468C1392.76 101.089 1394.3 99.6199 1394.3 97.818V97.1804H1393.46ZM1393.64 97.1804V97.818C1393.64 99.6292 1395.18 101.089 1397.11 101.468L1397.52 100.664C1395.84 100.378 1394.49 99.1302 1394.49 97.818V97.1804H1393.64ZM1402.02 100.895V102.374H1402.98V100.895H1402.02ZM1398.68 100.562V101.339H1406.32V100.562H1398.68ZM1402.49 102.096C1400.67 102.096 1399.58 102.632 1399.58 103.603C1399.58 104.554 1400.67 105.1 1402.49 105.1C1404.3 105.1 1405.4 104.554 1405.4 103.603C1405.4 102.632 1404.3 102.096 1402.49 102.096ZM1402.49 102.836C1403.73 102.836 1404.42 103.094 1404.42 103.603C1404.42 104.092 1403.73 104.36 1402.49 104.36C1401.25 104.36 1400.56 104.092 1400.56 103.603C1400.56 103.094 1401.25 102.836 1402.49 102.836ZM1401.85 97.4022V97.6332C1401.85 98.4556 1400.73 99.2133 1399.07 99.3704L1399.4 100.137C1401.34 99.9248 1402.71 98.9546 1402.71 97.6332V97.4022H1401.85ZM1402.3 97.4022V97.6332C1402.3 98.9546 1403.66 99.9248 1405.6 100.137L1405.94 99.3704C1404.27 99.2133 1403.15 98.4648 1403.15 97.6332V97.4022H1402.3ZM1399.39 97.0326V97.8088H1405.63V97.0326H1399.39ZM1412.81 96.6722V102.993H1413.78V96.6722H1412.81ZM1413.5 99.3519V100.156H1414.97V99.3519H1413.5ZM1407.2 97.6332V98.4002H1412.17V97.6332H1407.2ZM1409.69 98.7883C1408.48 98.7883 1407.64 99.4351 1407.64 100.387C1407.64 101.348 1408.48 101.985 1409.69 101.985C1410.89 101.985 1411.73 101.348 1411.73 100.387C1411.73 99.4351 1410.89 98.7883 1409.69 98.7883ZM1409.69 99.5367C1410.35 99.5367 1410.81 99.8602 1410.81 100.387C1410.81 100.923 1410.35 101.237 1409.69 101.237C1409.02 101.237 1408.57 100.923 1408.57 100.387C1408.57 99.8602 1409.02 99.5367 1409.69 99.5367ZM1409.21 96.663V98.0121H1410.17V96.663H1409.21ZM1408.44 104.157V104.942H1414.12V104.157H1408.44ZM1408.44 102.503V104.49H1409.41V102.503H1408.44ZM1415.69 103.261V104.055H1423.34V103.261H1415.69ZM1418.99 101.292V103.501H1419.95V101.292H1418.99ZM1418.96 97.1804V97.818C1418.96 99.1117 1417.62 100.378 1415.93 100.664L1416.34 101.468C1418.26 101.089 1419.81 99.6199 1419.81 97.818V97.1804H1418.96ZM1419.14 97.1804V97.818C1419.14 99.6292 1420.68 101.089 1422.61 101.468L1423.02 100.664C1421.34 100.378 1419.99 99.1302 1419.99 97.818V97.1804H1419.14ZM1424.89 97.088V97.8735H1431.13V97.088H1424.89ZM1424.93 99.9895V100.775H1431.08V99.9895H1424.93ZM1426.08 97.7164V100.415H1427.05V97.7164H1426.08ZM1428.98 97.7164V100.415H1429.94V97.7164H1428.98ZM1424.18 101.625V102.411H1431.84V101.625H1424.18ZM1427.52 101.976V105.109H1428.48V101.976H1427.52ZM1433.14 97.4576V103.039H1437.1V97.4576H1433.14ZM1436.16 98.2246V102.263H1434.09V98.2246H1436.16ZM1438.67 96.6537V105.118H1439.64V96.6537H1438.67Z" fill="#312E36"/>
<circle cx="1369.94" cy="105.938" r="12.0353" fill="#D9E1FC"/>
<mask id="mask1_2199_17111" style="mask-type:alpha" maskUnits="userSpaceOnUse" x="1360" y="98" width="19" height="20">
<path d="M1369.94 98.7178C1368.56 98.7178 1367.24 99.2667 1366.27 100.244C1365.29 101.221 1364.75 102.546 1364.75 103.928C1364.75 105.31 1365.29 106.636 1366.27 107.613C1367.24 108.59 1368.56 109.139 1369.94 109.139C1371.31 109.139 1372.63 108.59 1373.61 107.613C1374.58 106.636 1375.13 105.31 1375.13 103.928C1375.13 102.546 1374.58 101.221 1373.61 100.244C1372.63 99.2667 1371.31 98.7178 1369.94 98.7178ZM1369.94 110.951C1366.55 110.951 1363.37 112.628 1361.48 115.414C1361.09 115.981 1360.91 116.638 1360.91 117.317C1360.91 117.68 1361.23 117.974 1361.59 117.974H1378.29C1378.65 117.974 1378.96 117.68 1378.96 117.317C1378.99 116.638 1378.78 115.958 1378.4 115.414C1376.5 112.628 1373.32 110.951 1369.94 110.951Z" fill="white"/>
</mask>
<g mask="url(#mask1_2199_17111)">
<circle cx="1369.94" cy="105.938" r="12.0353" fill="white"/>
</g>
<path d="M1697.78 117H1701.17V116.232H1700.01V111.041H1699.31C1698.97 111.259 1698.57 111.397 1698.01 111.502V112.092H1699.08V116.232H1697.78V117ZM1703.25 117H1704.21C1704.31 114.671 1704.52 113.353 1705.92 111.615V111.041H1702.09V111.833H1704.89C1703.74 113.434 1703.36 114.825 1703.25 117ZM1707 117H1710.4V116.232H1709.23V111.041H1708.53C1708.19 111.259 1707.79 111.397 1707.24 111.502V112.092H1708.3V116.232H1707V117Z" fill="#ABACFE"/>
<path d="M1709.52 105.953C1709.52 106.015 1709.45 106.052 1709.39 106.016L1705.17 103.101C1704.8 102.848 1704.31 102.848 1703.94 103.101L1699.71 106.016C1699.66 106.052 1699.59 106.015 1699.59 105.953V95.2193C1699.59 95.0056 1699.86 94.6436 1700.46 94.6436H1708.65C1709.25 94.6436 1709.52 95.0056 1709.52 95.2193V105.953Z" stroke="#ABACFE"/>
<path d="M1674.08 107.537L1674.08 107.537L1674.08 107.533C1673.06 106.75 1671.49 105.504 1670.18 104.01C1668.86 102.499 1667.88 100.829 1667.88 99.1996C1667.88 97.4095 1669.37 95.9369 1671.23 95.9369C1672.09 95.9369 1672.79 96.3038 1673.28 96.6933C1673.53 96.8871 1673.72 97.0812 1673.85 97.2256C1673.91 97.2975 1673.96 97.3562 1673.99 97.3951C1674 97.4146 1674.01 97.429 1674.02 97.4376L1674.02 97.446C1674.02 97.4461 1674.02 97.446 1674.02 97.4461C1674.02 97.4465 1674.02 97.4468 1674.02 97.4467L1674.5 98.145L1674.98 97.4467L1674.98 97.4467L1674.98 97.4461L1674.98 97.446L1674.98 97.4376C1674.99 97.429 1675 97.4146 1675.01 97.3951C1675.04 97.3562 1675.09 97.2975 1675.15 97.2256C1675.28 97.0812 1675.47 96.8871 1675.72 96.6933C1676.21 96.3038 1676.91 95.9369 1677.77 95.9369C1679.63 95.9369 1681.12 97.4095 1681.12 99.1996C1681.12 100.833 1680.14 102.507 1678.81 104.021C1677.49 105.519 1675.92 106.766 1674.91 107.545L1674.89 107.558L1674.89 107.558L1674.88 107.566C1674.77 107.646 1674.64 107.69 1674.5 107.69C1674.36 107.69 1674.23 107.646 1674.12 107.566L1674.08 107.537Z" stroke="#ABACFE" stroke-width="1.15506"/>
<path d="M1670.34 117H1673.73V116.232H1672.57V111.041H1671.86C1671.52 111.259 1671.13 111.397 1670.57 111.502V112.092H1671.64V116.232H1670.34V117ZM1675.81 117H1676.77C1676.86 114.671 1677.08 113.353 1678.48 111.615V111.041H1674.65V111.833H1677.44C1676.3 113.434 1675.92 114.825 1675.81 117Z" fill="#ABACFE"/>
<g filter="url(#filter2_d_2199_17111)">
<rect x="1486.86" y="46" width="96.2827" height="40.4044" rx="1" fill="white" fill-opacity="0.3" shape-rendering="crispEdges"/>
</g>
<g filter="url(#filter3_d_2199_17111)">
<path d="M904 153.298C904 150.536 906.239 148.298 909 148.298H1291.87C1294.63 148.298 1296.87 150.536 1296.87 153.298V466.533C1296.87 469.294 1294.63 471.533 1291.87 471.533H909C906.239 471.533 904 469.294 904 466.533V153.298Z" fill="white"/>
</g>
<rect x="904" y="204.176" width="392.868" height="201.162"/>
<rect x="974.002" y="420.866" width="37.2363" height="37.2363" rx="5.7753"/>
<rect x="1016.21" y="420.866" width="37.2363" height="37.2363" rx="5.7753"/>
<rect x="1185.01" y="458.104" width="37.2363" height="37.2363" rx="5.7753" transform="rotate(-90 1185.01 458.104)"/>
<rect x="1185.01" y="458.104" width="37.2363" height="37.2363" rx="5.7753" transform="rotate(-90 1185.01 458.104)" fill="url(#paint1_linear_2199_17111)"/>
<rect x="1100.61" y="420.866" width="37.2363" height="37.2363" rx="5.7753"/>
<rect x="1142.81" y="420.866" width="37.2363" height="37.2363" rx="5.7753"/>
<rect x="1058.4" y="420.866" width="37.2363" height="37.2363" rx="5.7753"/>
<g filter="url(#filter4_d_2199_17111)">
<circle cx="1220.75" cy="439.236" r="5.95781" fill="white"/>
</g>
<path d="M1219.76 441.719L1222.24 439.236L1219.76 436.754" stroke="#514C57" stroke-width="1.15506" stroke-linecap="round"/>
<path d="M955.982 190.548H959.831V189.755H958.343C958.052 189.755 957.672 189.788 957.365 189.82C958.626 188.607 959.548 187.419 959.548 186.279C959.548 185.195 958.844 184.492 957.753 184.492C956.976 184.492 956.451 184.823 955.933 185.381L956.467 185.891C956.782 185.527 957.171 185.236 957.639 185.236C958.302 185.236 958.642 185.68 958.642 186.319C958.642 187.298 957.745 188.454 955.982 190.006V190.548ZM962.55 190.661C963.714 190.661 964.474 189.618 964.474 187.548C964.474 185.494 963.714 184.492 962.55 184.492C961.377 184.492 960.626 185.494 960.626 187.548C960.626 189.618 961.377 190.661 962.55 190.661ZM962.55 189.917C961.943 189.917 961.515 189.27 961.515 187.548C961.515 185.85 961.943 185.22 962.55 185.22C963.156 185.22 963.577 185.85 963.577 187.548C963.577 189.27 963.156 189.917 962.55 189.917ZM965.204 190.548H969.053V189.755H967.565C967.274 189.755 966.894 189.788 966.587 189.82C967.848 188.607 968.77 187.419 968.77 186.279C968.77 185.195 968.067 184.492 966.975 184.492C966.199 184.492 965.673 184.823 965.156 185.381L965.69 185.891C966.005 185.527 966.393 185.236 966.862 185.236C967.525 185.236 967.864 185.68 967.864 186.319C967.864 187.298 966.967 188.454 965.204 190.006V190.548ZM969.816 190.548H973.664V189.755H972.177C971.885 189.755 971.505 189.788 971.198 189.82C972.46 188.607 973.381 187.419 973.381 186.279C973.381 185.195 972.678 184.492 971.586 184.492C970.81 184.492 970.285 184.823 969.767 185.381L970.301 185.891C970.616 185.527 971.004 185.236 971.473 185.236C972.136 185.236 972.476 185.68 972.476 186.319C972.476 187.298 971.578 188.454 969.816 190.006V190.548ZM979.723 183.829V189.287H980.572V183.829H979.723ZM977.766 184.734V185.406H980.022V184.734H977.766ZM975.777 190.386V191.073H980.75V190.386H975.777ZM975.777 188.809V190.718H976.626V188.809H975.777ZM974.863 184.338V187.815H975.704V184.338H974.863ZM974.863 187.556V188.252H975.437C976.529 188.252 977.515 188.211 978.655 188.001L978.575 187.306C977.467 187.508 976.497 187.556 975.437 187.556H974.863ZM977.766 186.125V186.804H980.022V186.125H977.766ZM985.638 190.661C986.802 190.661 987.562 189.618 987.562 187.548C987.562 185.494 986.802 184.492 985.638 184.492C984.465 184.492 983.713 185.494 983.713 187.548C983.713 189.618 984.465 190.661 985.638 190.661ZM985.638 189.917C985.031 189.917 984.603 189.27 984.603 187.548C984.603 185.85 985.031 185.22 985.638 185.22C986.244 185.22 986.664 185.85 986.664 187.548C986.664 189.27 986.244 189.917 985.638 189.917ZM988.632 190.548H992.036V189.78H990.871V184.597H990.168C989.82 184.807 989.432 184.953 988.866 185.05V185.64H989.941V189.78H988.632V190.548ZM994.82 186.861V188.163H995.66V186.861H994.82ZM998.199 183.829V188.146H999.048V183.829H998.199ZM993.008 187.136C994.391 187.136 996.121 187.12 997.73 186.893L997.682 186.36C996.113 186.521 994.334 186.529 992.911 186.529L993.008 187.136ZM994.003 188.397V188.987H998.215V189.472H994.019V190.742H994.852V190.022H999.048V188.397H994.003ZM994.019 190.556V191.154H999.258V190.556H994.019ZM996.8 187.306V187.831H998.466V187.306H996.8ZM995.28 183.958C994.173 183.958 993.445 184.387 993.445 185.066C993.445 185.745 994.173 186.174 995.28 186.174C996.38 186.174 997.108 185.745 997.108 185.066C997.108 184.387 996.38 183.958 995.28 183.958ZM995.28 184.524C995.911 184.524 996.315 184.726 996.315 185.066C996.315 185.406 995.911 185.6 995.28 185.6C994.642 185.6 994.237 185.406 994.237 185.066C994.237 184.726 994.642 184.524 995.28 184.524ZM1002.16 190.548H1006.01V189.755H1004.52C1004.23 189.755 1003.85 189.788 1003.54 189.82C1004.8 188.607 1005.72 187.419 1005.72 186.279C1005.72 185.195 1005.02 184.492 1003.93 184.492C1003.15 184.492 1002.63 184.823 1002.11 185.381L1002.64 185.891C1002.96 185.527 1003.35 185.236 1003.81 185.236C1004.48 185.236 1004.82 185.68 1004.82 186.319C1004.82 187.298 1003.92 188.454 1002.16 190.006V190.548ZM1007.11 190.548H1010.51V189.78H1009.35V184.597H1008.64C1008.3 184.807 1007.91 184.953 1007.34 185.05V185.64H1008.42V189.78H1007.11V190.548ZM1013.47 184.071C1012.37 184.071 1011.54 184.759 1011.54 185.737C1011.54 186.707 1012.37 187.395 1013.47 187.395C1014.59 187.395 1015.41 186.707 1015.41 185.737C1015.41 184.759 1014.59 184.071 1013.47 184.071ZM1013.47 184.767C1014.12 184.767 1014.59 185.147 1014.59 185.737C1014.59 186.327 1014.12 186.707 1013.47 186.707C1012.84 186.707 1012.36 186.327 1012.36 185.737C1012.36 185.147 1012.84 184.767 1013.47 184.767ZM1016.64 183.829V187.572H1017.49V183.829H1016.64ZM1012.65 187.912V188.575H1016.65V189.181H1012.67V190.823H1013.49V189.804H1017.49V187.912H1012.65ZM1012.67 190.459V191.13H1017.71V190.459H1012.67Z" fill="#8C8C95"/>
<path d="M956.059 178.048V178.842H963.71V178.048H956.059ZM959.358 176.08V178.288H960.319V176.08H959.358ZM959.33 171.968V172.605C959.33 173.899 957.981 175.165 956.3 175.451L956.706 176.255C958.628 175.876 960.171 174.407 960.171 172.605V171.968H959.33ZM959.506 171.968V172.605C959.506 174.416 961.049 175.876 962.98 176.255L963.387 175.451C961.705 175.165 960.356 173.917 960.356 172.605V171.968H959.506ZM970.178 171.45V176.209H971.148V171.45H970.178ZM970.88 173.437V174.231H972.34V173.437H970.88ZM964.911 175.026V175.812H965.586C967.406 175.812 968.385 175.765 969.494 175.534L969.393 174.758C968.311 174.98 967.369 175.026 965.586 175.026H964.911ZM964.911 171.995V175.479H965.872V172.771H968.644V171.995H964.911ZM965.761 176.625V179.794H971.148V176.625H965.761ZM970.197 177.392V179.018H966.713V177.392H970.197ZM976.867 171.579C974.973 171.579 973.864 172.097 973.864 173.039C973.864 173.973 974.973 174.49 976.867 174.49C978.762 174.49 979.88 173.973 979.88 173.039C979.88 172.097 978.762 171.579 976.867 171.579ZM976.867 172.3C978.18 172.3 978.873 172.559 978.873 173.039C978.873 173.52 978.18 173.769 976.867 173.769C975.565 173.769 974.862 173.52 974.862 173.039C974.862 172.559 975.565 172.3 976.867 172.3ZM973.051 174.98V175.747H980.684V174.98H973.051ZM973.957 176.366V177.087H978.78V177.697H973.966V179.286H974.927V178.38H979.732V176.366H973.957ZM973.966 179.073V179.822H979.972V179.073H973.966ZM983.548 172.143V173.529C983.548 175.091 982.725 176.708 981.413 177.345L982.004 178.122C983.455 177.382 984.333 175.497 984.333 173.529V172.143H983.548ZM983.732 172.143V173.529C983.732 175.433 984.573 177.235 985.978 177.965L986.569 177.198C985.303 176.569 984.509 175.035 984.509 173.529V172.143H983.732ZM987.133 171.45V179.896H988.103V171.45H987.133ZM987.881 174.795V175.599H989.415V174.795H987.881ZM995.68 171.45V176.532H996.65V171.45H995.68ZM996.363 173.501V174.296H997.842V173.501H996.363ZM990.394 175.331V176.126H991.078C992.704 176.126 993.795 176.08 995.061 175.849L994.977 175.063C993.73 175.285 992.667 175.331 991.078 175.331H990.394ZM990.376 171.968V172.744H993.249V173.631H990.394V175.821H991.346V174.37H994.201V171.968H990.376ZM993.915 176.754C992.177 176.754 991.106 177.336 991.106 178.325C991.106 179.314 992.177 179.887 993.915 179.887C995.661 179.887 996.724 179.314 996.724 178.325C996.724 177.336 995.661 176.754 993.915 176.754ZM993.915 177.503C995.107 177.503 995.781 177.789 995.781 178.325C995.781 178.861 995.107 179.147 993.915 179.147C992.732 179.147 992.057 178.861 992.057 178.325C992.057 177.789 992.732 177.503 993.915 177.503ZM1004.14 171.45V179.896H1005.1V171.45H1004.14ZM1004.88 174.841V175.645H1006.42V174.841H1004.88ZM998.516 172.753V173.529H1003.47V172.753H998.516ZM1001.02 174.139C999.809 174.139 998.922 174.952 998.922 176.107C998.922 177.272 999.809 178.085 1001.02 178.085C1002.22 178.085 1003.11 177.272 1003.11 176.107C1003.11 174.952 1002.22 174.139 1001.02 174.139ZM1001.02 174.934C1001.69 174.934 1002.18 175.396 1002.18 176.107C1002.18 176.819 1001.69 177.29 1001.02 177.29C1000.34 177.29 999.846 176.819 999.846 176.107C999.846 175.396 1000.34 174.934 1001.02 174.934ZM1000.52 171.57V173.076H1001.49V171.57H1000.52ZM1008.05 173.871V174.647H1013.84V173.871H1008.05ZM1007.05 175.664V176.449H1014.7V175.664H1007.05ZM1008.05 171.755V174.259H1009.01V171.755H1008.05ZM1007.99 178.916V179.702H1013.88V178.916H1007.99ZM1007.99 177.216V179.129H1008.95V177.216H1007.99ZM1015.56 178.048V178.842H1023.21V178.048H1015.56ZM1018.86 176.08V178.288H1019.82V176.08H1018.86ZM1018.83 171.968V172.605C1018.83 173.899 1017.49 175.165 1015.8 175.451L1016.21 176.255C1018.13 175.876 1019.68 174.407 1019.68 172.605V171.968H1018.83ZM1019.01 171.968V172.605C1019.01 174.416 1020.55 175.876 1022.48 176.255L1022.89 175.451C1021.21 175.165 1019.86 173.917 1019.86 172.605V171.968H1019.01ZM1024.76 171.875V172.661H1031V171.875H1024.76ZM1024.8 174.777V175.562H1030.95V174.777H1024.8ZM1025.95 172.503V175.202H1026.92V172.503H1025.95ZM1028.85 172.503V175.202H1029.81V172.503H1028.85ZM1024.05 176.412V177.198H1031.71V176.412H1024.05ZM1027.39 176.763V179.896H1028.35V176.763H1027.39ZM1033.01 172.245V177.826H1036.97V172.245H1033.01ZM1036.03 173.012V177.05H1033.96V173.012H1036.03ZM1038.54 171.441V179.905H1039.51V171.441H1038.54Z" fill="#312E36"/>
<circle cx="935.807" cy="180.723" r="12.0353" fill="#D9E1FC"/>
<mask id="mask2_2199_17111" style="mask-type:alpha" maskUnits="userSpaceOnUse" x="926" y="173" width="19" height="20">
<path d="M935.806 173.501C934.429 173.501 933.109 174.05 932.136 175.027C931.163 176.004 930.616 177.33 930.616 178.712C930.616 180.094 931.163 181.419 932.136 182.396C933.109 183.373 934.429 183.922 935.806 183.922C937.182 183.922 938.502 183.373 939.475 182.396C940.449 181.419 940.995 180.094 940.995 178.712C940.995 177.33 940.449 176.004 939.475 175.027C938.502 174.05 937.182 173.501 935.806 173.501ZM935.806 185.735C932.421 185.735 929.24 187.411 927.344 190.197C926.961 190.764 926.78 191.421 926.78 192.1C926.78 192.463 927.096 192.758 927.457 192.758H944.154C944.515 192.758 944.831 192.463 944.831 192.1C944.854 191.421 944.651 190.741 944.267 190.197C942.372 187.411 939.19 185.735 935.806 185.735Z" fill="white"/>
</mask>
<g mask="url(#mask2_2199_17111)">
<circle cx="935.807" cy="180.721" r="12.0353" fill="white"/>
</g>
<path d="M1263.78 192H1267.17V191.232H1266.01V186.041H1265.31C1264.97 186.259 1264.57 186.397 1264.01 186.502V187.092H1265.08V191.232H1263.78V192ZM1270 192.105C1271.16 192.105 1271.92 191.07 1271.92 189C1271.92 186.947 1271.16 185.936 1270 185.936C1268.83 185.936 1268.07 186.939 1268.07 189C1268.07 191.07 1268.83 192.105 1270 192.105ZM1270 191.369C1269.39 191.369 1268.96 190.723 1268.96 189C1268.96 187.294 1269.39 186.672 1270 186.672C1270.61 186.672 1271.03 187.294 1271.03 189C1271.03 190.723 1270.61 191.369 1270 191.369ZM1272.66 192H1276.5V191.208H1275.01C1274.72 191.208 1274.35 191.232 1274.04 191.264C1275.31 190.059 1276.22 188.871 1276.22 187.723C1276.22 186.647 1275.52 185.936 1274.42 185.936C1273.65 185.936 1273.12 186.267 1272.61 186.825L1273.14 187.343C1273.45 186.979 1273.84 186.68 1274.31 186.68C1274.98 186.68 1275.32 187.124 1275.32 187.771C1275.32 188.75 1274.42 189.906 1272.66 191.458V192Z" fill="#ABACFE"/>
<path d="M1275.88 180.738C1275.88 181.203 1275.36 181.477 1274.98 181.213L1270.75 178.298C1270.55 178.162 1270.29 178.162 1270.09 178.298L1265.87 181.213C1265.48 181.477 1264.96 181.203 1264.96 180.738V170.004C1264.96 169.41 1265.57 168.929 1266.33 168.929H1274.52C1275.27 168.929 1275.88 169.41 1275.88 170.004V180.738Z" fill="#ABACFE"/>
<path d="M1239.95 182.322L1239.95 182.322L1239.95 182.318C1238.93 181.536 1237.36 180.289 1236.05 178.795C1234.72 177.284 1233.75 175.615 1233.75 173.985C1233.75 172.195 1235.23 170.722 1237.1 170.722C1237.96 170.722 1238.66 171.089 1239.15 171.478C1239.4 171.672 1239.59 171.866 1239.71 172.011C1239.78 172.083 1239.82 172.141 1239.85 172.18C1239.87 172.2 1239.88 172.214 1239.89 172.223L1239.89 172.231C1239.89 172.231 1239.89 172.231 1239.89 172.231C1239.89 172.232 1239.89 172.232 1239.89 172.232L1240.37 172.93L1240.84 172.232L1240.84 172.232L1240.84 172.231L1240.84 172.231L1240.85 172.223C1240.86 172.214 1240.87 172.2 1240.88 172.18C1240.91 172.141 1240.96 172.083 1241.02 172.011C1241.15 171.866 1241.34 171.672 1241.58 171.478C1242.08 171.089 1242.78 170.722 1243.64 170.722C1245.5 170.722 1246.99 172.195 1246.99 173.985C1246.99 175.618 1246.01 177.292 1244.68 178.806C1243.36 180.304 1241.79 181.551 1240.77 182.33L1240.76 182.343L1240.76 182.344L1240.75 182.351C1240.64 182.431 1240.51 182.475 1240.37 182.476C1240.23 182.475 1240.1 182.431 1239.99 182.351L1239.95 182.322Z" stroke="#ABACFE" stroke-width="1.15506"/>
<path d="M1237.67 192.142C1238.77 192.142 1239.66 191.512 1239.66 190.436C1239.66 189.636 1239.12 189.118 1238.43 188.948V188.908C1239.07 188.674 1239.46 188.197 1239.46 187.509C1239.46 186.531 1238.71 185.973 1237.64 185.973C1236.95 185.973 1236.41 186.272 1235.94 186.693L1236.42 187.275C1236.76 186.943 1237.15 186.725 1237.61 186.717C1238.18 186.725 1238.52 187.048 1238.52 187.574C1238.52 188.172 1238.14 188.617 1236.96 188.617V189.304C1238.31 189.304 1238.73 189.733 1238.73 190.388C1238.73 191.01 1238.26 191.382 1237.59 191.382C1236.98 191.382 1236.53 191.083 1236.19 190.727L1235.73 191.326C1236.13 191.77 1236.74 192.142 1237.67 192.142ZM1242.29 192.142C1243.33 192.142 1244.29 191.398 1244.29 190.08C1244.29 188.779 1243.47 188.188 1242.48 188.188C1242.16 188.188 1241.92 188.269 1241.66 188.399L1241.8 186.871H1244.01V186.078H1240.99L1240.81 188.908L1241.27 189.207C1241.61 188.981 1241.84 188.868 1242.22 188.868C1242.9 188.868 1243.35 189.32 1243.35 190.113C1243.35 190.905 1242.84 191.382 1242.17 191.382C1241.55 191.382 1241.12 191.083 1240.78 190.743L1240.34 191.35C1240.76 191.762 1241.35 192.142 1242.29 192.142Z" fill="#ABACFE"/>
<g filter="url(#filter5_d_2199_17111)">
<rect x="1051.86" y="120.789" width="96.2827" height="40.4044" rx="1" fill="white" fill-opacity="0.3" shape-rendering="crispEdges"/>
</g>
<path d="M363.444 201H382.134V196.002H376.296V169.878H371.718C369.744 171.138 367.602 171.936 364.494 172.524V176.346H370.122V196.002H363.444V201ZM406.698 183.822V187.182H413.544V188.316H419.088V165.93H413.544V183.822H406.698ZM398.844 170.13C401.616 170.13 403.338 170.844 403.338 172.314C403.338 173.742 401.616 174.456 398.844 174.456C396.072 174.456 394.308 173.742 394.308 172.314C394.308 170.844 396.072 170.13 398.844 170.13ZM398.844 178.026C404.598 178.026 408.504 175.8 408.504 172.314C408.504 168.744 404.598 166.518 398.844 166.518C393.048 166.518 389.184 168.744 389.184 172.314C389.184 175.8 393.048 178.026 398.844 178.026ZM395.904 188.358H401.448V183.024C404.85 182.856 408.252 182.562 411.612 182.1L411.276 178.698C403.17 179.538 393.972 179.538 386.58 179.538L387.126 183.318C389.856 183.318 392.838 183.318 395.904 183.276V188.358ZM397.584 200.538V198.564H419.088V189.492H392.082V193.23H413.628V195.078H392.124V204.318H419.97V200.538H397.584ZM426.897 209.946C431.979 208.266 434.835 204.528 434.835 199.614C434.835 195.792 433.239 193.524 430.383 193.524C428.199 193.524 426.393 194.952 426.393 197.178C426.393 199.53 428.241 200.832 430.257 200.832C430.383 200.832 430.509 200.832 430.635 200.832C430.677 203.184 428.871 205.368 425.595 206.586L426.897 209.946ZM482.201 183.57C473.381 182.142 468.635 176.346 468.635 170.844V168.072H462.713V170.844C462.713 176.22 457.925 182.142 449.189 183.57L451.457 188.148C458.219 186.93 463.133 183.276 465.653 178.53C468.173 183.318 473.129 186.93 479.933 188.148L482.201 183.57ZM468.467 195.582V186.93H462.923V195.582H448.349V200.034H483.377V195.582H468.467ZM508.49 180.756H500.594V172.062H508.49V180.756ZM495.05 180.756H490.388V185.166H518.654V180.756H513.992V172.062H518.948V167.652H490.136V172.062H495.05V180.756ZM521.972 188.4H486.944V192.852H501.686V204.612H507.23V192.852H521.972V188.4ZM527.512 169.416V195.414H546.118V169.416H527.512ZM540.658 173.784V191.046H532.972V173.784H540.658ZM552.124 165.93V204.696H557.668V165.93H552.124ZM570.517 177.69C570.517 174.666 572.701 172.902 575.641 172.902C578.581 172.902 580.807 174.666 580.807 177.69C580.807 180.714 578.581 182.52 575.641 182.52C572.701 182.52 570.517 180.714 570.517 177.69ZM578.455 186.888C582.991 185.88 586.183 182.352 586.183 177.69C586.183 172.146 581.647 168.156 575.641 168.156C569.677 168.156 565.141 172.146 565.141 177.69C565.141 182.394 568.375 185.964 572.953 186.93V192.39C569.719 192.432 566.569 192.432 563.839 192.432L564.511 196.926C571.021 196.968 579.631 196.968 587.695 195.456L587.233 191.466C584.419 191.802 581.479 192.054 578.455 192.18V186.888ZM599.875 181.092H594.793V165.888H589.249V204.57H594.793V185.67H599.875V181.092ZM635.175 169.416H626.565V165.678H620.979V169.416H612.369V173.784H635.175V169.416ZM619.593 181.89C619.593 180 621.315 179.034 623.793 179.034C626.271 179.034 627.993 180 627.993 181.89C627.993 183.822 626.271 184.788 623.793 184.788C621.315 184.788 619.593 183.822 619.593 181.89ZM633.285 181.89C633.285 177.774 629.379 174.96 623.793 174.96C618.207 174.96 614.301 177.774 614.301 181.89C614.301 186.09 618.207 188.862 623.793 188.862C629.379 188.862 633.285 186.09 633.285 181.89ZM623.163 195.288H637.443V199.824H623.163V195.288ZM617.703 204.15H642.861V190.92H617.703V204.15ZM647.985 175.464H642.861V165.972H637.317V189.24H642.861V180H647.985V175.464ZM651.72 170.298V174.792H655.71C655.458 182.31 654.324 188.106 650.46 194.154L654.702 196.506C659.532 188.778 660.456 180.126 660.456 170.298H651.72ZM671.88 180.462H668.688C668.982 177.144 669.066 173.784 669.066 170.298H661.59V174.792H664.362C664.194 182.688 663.312 189.408 659.07 196.002L663.312 198.354C665.916 194.154 667.386 189.66 668.184 184.914H671.88V202.932H677.004V166.77H671.88V180.462ZM679.314 165.93V204.654H684.606V165.93H679.314ZM705.501 173.91H710.037V169.5H700.041V195.078H702.015C705.627 195.078 707.811 195.036 710.499 194.406L709.953 189.912C708.441 190.248 707.055 190.416 705.501 190.458V173.91ZM717.303 173.91H722.343V169.5H711.843V195.078H713.985C718.647 195.078 720.999 194.994 723.897 194.322L723.435 189.786C721.503 190.248 719.739 190.416 717.303 190.458V173.91ZM726.459 165.972V179.37H720.705V183.864H726.459V204.612H732.003V165.972H726.459ZM759.761 181.344C754.553 182.394 749.555 182.772 744.935 182.856V168.492H739.391V187.476H742.709C748.169 187.476 754.091 187.098 760.433 185.796L759.761 181.344ZM748.925 191.172H743.381V203.94H769.547V199.53H748.925V191.172ZM768.287 176.766V165.93H762.743V193.734H768.287V181.428H773.411V176.766H768.287ZM396.246 246.856C386.082 245.302 382.764 239.296 382.764 234.256V231.484H375.498V234.256C375.498 239.128 372.096 245.302 362.058 246.856L364.788 252.484C371.97 251.266 376.59 247.822 379.11 243.37C381.63 247.822 386.25 251.266 393.474 252.484L396.246 246.856ZM382.554 259.162V250.804H375.75V259.162H361.512V264.58H397.212V259.162H382.554ZM421.443 240.598H414.387V235.852H421.443V240.598ZM407.625 240.598H403.467V245.89H432.321V240.598H428.205V235.852H432.741V230.56H403.089V235.852H407.625V240.598ZM424.887 263.32H410.817V260.758H424.887V263.32ZM435.765 252.988V247.696H400.107V252.988H414.555V255.508H404.139V268.57H431.565V255.508H421.359V252.988H435.765ZM462.431 245.26C455.963 243.202 454.031 238.456 454.031 233.836V231.316H447.101V233.92C447.101 238.792 445.001 243.916 438.071 246.058L441.599 251.35C446.051 249.964 448.949 247.15 450.629 243.664C452.309 246.73 454.913 249.166 458.861 250.468L462.431 245.26ZM463.313 263.236H450.503V260.8H463.313V263.236ZM463.313 255.676H450.503V252.904H443.783V268.57H470.033V252.904H463.313V255.676ZM474.737 238.834V233.374H470.033V229.594H463.229V251.392H470.033V247.024H474.737V241.564H470.033V238.834H474.737ZM508.146 249.292C508.272 248.326 508.314 247.402 508.314 246.352C508.314 245.05 508.23 243.748 508.02 242.614H513.648V249.292H508.146ZM497.94 254.5C495.546 254.5 493.992 251.938 493.992 246.394C493.992 240.85 495.546 238.288 497.94 238.288C500.334 238.288 501.888 240.85 501.888 246.394C501.888 251.938 500.334 254.5 497.94 254.5ZM513.648 229.468V237.196H506.172C504.324 233.92 501.384 232.114 497.94 232.114C491.976 232.114 487.566 237.574 487.566 246.394C487.566 255.214 491.976 260.674 497.94 260.674C501.678 260.632 504.828 258.49 506.634 254.71H513.648V269.074H520.452V229.51L513.648 229.468ZM547.161 238.708V244.126H552.117V252.946H558.921V229.594H552.117V238.708H547.161ZM549.681 246.898C543.885 245.008 541.617 240.976 541.197 237.028H548.211V231.694H526.959V237.028H534.099C533.679 241.354 531.327 245.722 525.195 247.78L528.639 253.156C533.133 251.728 536.073 248.788 537.753 245.134C539.475 248.284 542.205 250.846 546.363 252.19L549.681 246.898ZM545.355 263.992C540.693 263.992 538.467 263.236 538.467 261.388C538.467 259.498 540.693 258.742 545.355 258.742C550.059 258.742 552.285 259.498 552.285 261.388C552.285 263.236 550.059 263.992 545.355 263.992ZM545.355 253.618C536.955 253.618 531.663 256.516 531.663 261.388C531.663 266.26 536.955 269.116 545.355 269.116C553.797 269.116 559.089 266.26 559.089 261.388C559.089 256.516 553.797 253.618 545.355 253.618Z" fill="white"/>
</g>
<defs>
<filter id="filter0_d_2199_17111" x="1330.13" y="68.5107" width="408.868" height="341.813" filterUnits="userSpaceOnUse" color-interpolation-filters="sRGB">
<feFlood flood-opacity="0" result="BackgroundImageFix"/>
<feColorMatrix in="SourceAlpha" type="matrix" values="0 0 0 0 0 0 0 0 0 0 0 0 0 0 0 0 0 0 127 0" result="hardAlpha"/>
<feOffset dy="3"/>
<feGaussianBlur stdDeviation="4"/>
<feComposite in2="hardAlpha" operator="out"/>
<feColorMatrix type="matrix" values="0 0 0 0 0.372549 0 0 0 0 0.384314 0 0 0 0 0.494118 0 0 0 0.55 0"/>
<feBlend mode="normal" in2="BackgroundImageFix" result="effect1_dropShadow_2199_17111"/>
<feBlend mode="normal" in="SourceGraphic" in2="effect1_dropShadow_2199_17111" result="shape"/>
</filter>
<filter id="filter1_d_2199_17111" x="1640.93" y="353.491" width="27.9155" height="27.916" filterUnits="userSpaceOnUse" color-interpolation-filters="sRGB">
<feFlood flood-opacity="0" result="BackgroundImageFix"/>
<feColorMatrix in="SourceAlpha" type="matrix" values="0 0 0 0 0 0 0 0 0 0 0 0 0 0 0 0 0 0 127 0" result="hardAlpha"/>
<feOffset dy="3"/>
<feGaussianBlur stdDeviation="4"/>
<feComposite in2="hardAlpha" operator="out"/>
<feColorMatrix type="matrix" values="0 0 0 0 0.341176 0 0 0 0 0.321569 0 0 0 0 0.298039 0 0 0 0.15 0"/>
<feBlend mode="normal" in2="BackgroundImageFix" result="effect1_dropShadow_2199_17111"/>
<feBlend mode="normal" in="SourceGraphic" in2="effect1_dropShadow_2199_17111" result="shape"/>
</filter>
<filter id="filter2_d_2199_17111" x="1482.86" y="44" width="104.283" height="48.4043" filterUnits="userSpaceOnUse" color-interpolation-filters="sRGB">
<feFlood flood-opacity="0" result="BackgroundImageFix"/>
<feColorMatrix in="SourceAlpha" type="matrix" values="0 0 0 0 0 0 0 0 0 0 0 0 0 0 0 0 0 0 127 0" result="hardAlpha"/>
<feOffset dy="2"/>
<feGaussianBlur stdDeviation="2"/>
<feComposite in2="hardAlpha" operator="out"/>
<feColorMatrix type="matrix" values="0 0 0 0 0.341176 0 0 0 0 0.321569 0 0 0 0 0.298039 0 0 0 0.15 0"/>
<feBlend mode="normal" in2="BackgroundImageFix" result="effect1_dropShadow_2199_17111"/>
<feBlend mode="normal" in="SourceGraphic" in2="effect1_dropShadow_2199_17111" result="shape"/>
</filter>
<filter id="filter3_d_2199_17111" x="896" y="143.298" width="408.868" height="339.235" filterUnits="userSpaceOnUse" color-interpolation-filters="sRGB">
<feFlood flood-opacity="0" result="BackgroundImageFix"/>
<feColorMatrix in="SourceAlpha" type="matrix" values="0 0 0 0 0 0 0 0 0 0 0 0 0 0 0 0 0 0 127 0" result="hardAlpha"/>
<feOffset dy="3"/>
<feGaussianBlur stdDeviation="4"/>
<feComposite in2="hardAlpha" operator="out"/>
<feColorMatrix type="matrix" values="0 0 0 0 0.372549 0 0 0 0 0.384314 0 0 0 0 0.494118 0 0 0 0.55 0"/>
<feBlend mode="normal" in2="BackgroundImageFix" result="effect1_dropShadow_2199_17111"/>
<feBlend mode="normal" in="SourceGraphic" in2="effect1_dropShadow_2199_17111" result="shape"/>
</filter>
<filter id="filter4_d_2199_17111" x="1206.8" y="428.278" width="27.9155" height="27.916" filterUnits="userSpaceOnUse" color-interpolation-filters="sRGB">
<feFlood flood-opacity="0" result="BackgroundImageFix"/>
<feColorMatrix in="SourceAlpha" type="matrix" values="0 0 0 0 0 0 0 0 0 0 0 0 0 0 0 0 0 0 127 0" result="hardAlpha"/>
<feOffset dy="3"/>
<feGaussianBlur stdDeviation="4"/>
<feComposite in2="hardAlpha" operator="out"/>
<feColorMatrix type="matrix" values="0 0 0 0 0.341176 0 0 0 0 0.321569 0 0 0 0 0.298039 0 0 0 0.15 0"/>
<feBlend mode="normal" in2="BackgroundImageFix" result="effect1_dropShadow_2199_17111"/>
<feBlend mode="normal" in="SourceGraphic" in2="effect1_dropShadow_2199_17111" result="shape"/>
</filter>
<filter id="filter5_d_2199_17111" x="1047.86" y="118.789" width="104.283" height="48.4043" filterUnits="userSpaceOnUse" color-interpolation-filters="sRGB">
<feFlood flood-opacity="0" result="BackgroundImageFix"/>
<feColorMatrix in="SourceAlpha" type="matrix" values="0 0 0 0 0 0 0 0 0 0 0 0 0 0 0 0 0 0 127 0" result="hardAlpha"/>
<feOffset dy="2"/>
<feGaussianBlur stdDeviation="2"/>
<feComposite in2="hardAlpha" operator="out"/>
<feColorMatrix type="matrix" values="0 0 0 0 0.341176 0 0 0 0 0.321569 0 0 0 0 0.298039 0 0 0 0.15 0"/>
<feBlend mode="normal" in2="BackgroundImageFix" result="effect1_dropShadow_2199_17111"/>
<feBlend mode="normal" in="SourceGraphic" in2="effect1_dropShadow_2199_17111" result="shape"/>
</filter>
<linearGradient id="paint0_linear_2199_17111" x1="1637.86" y1="383.26" x2="1637.86" y2="420.496" gradientUnits="userSpaceOnUse">
<stop stop-color="white" stop-opacity="0"/>
<stop offset="1" stop-color="#514C57" stop-opacity="0.5"/>
</linearGradient>
<linearGradient id="paint1_linear_2199_17111" x1="1203.63" y1="458.104" x2="1203.63" y2="495.34" gradientUnits="userSpaceOnUse">
<stop stop-color="white" stop-opacity="0"/>
<stop offset="1" stop-color="#514C57" stop-opacity="0.5"/>
</linearGradient>
</defs>
</svg>
