<svg width="329" height="60" viewBox="0 0 329 60" fill="none" xmlns="http://www.w3.org/2000/svg">
<rect width="329" height="60" rx="30" fill="white"/>
<path d="M44.16 25.02C46.56 25.02 48.1 25.74 48.1 27.06C48.1 28.4 46.56 29.12 44.16 29.12C41.74 29.12 40.2 28.4 40.2 27.06C40.2 25.74 41.74 25.02 44.16 25.02ZM44.16 31.22C48.08 31.22 50.82 29.6 50.82 27.06C50.82 24.56 48.08 22.92 44.16 22.92C40.22 22.92 37.5 24.56 37.5 27.06C37.5 29.6 40.22 31.22 44.16 31.22ZM52.54 32.6H35.86V34.72H42.82V40.74H45.46V34.72H52.54V32.6ZM57.9384 30.98H63.9184V23.86H55.2184V25.96H61.2184V28.9H55.2384V36.48H56.8984C60.2384 36.48 62.9384 36.36 65.9384 35.84L65.6584 33.7C63.0584 34.14 60.7384 34.28 57.9384 34.3V30.98ZM66.9384 22.28V40.76H69.5784V22.28H66.9384ZM86.8681 31.78C86.9481 31.28 86.9881 30.72 86.9881 30.14C86.9881 29.44 86.9281 28.78 86.8081 28.18H90.0081V31.78H86.8681ZM82.2281 34.34C80.8881 34.34 79.9681 32.88 79.9681 30.14C79.9681 27.42 80.8881 25.96 82.2281 25.96C83.5881 25.96 84.5081 27.42 84.5081 30.14C84.5081 32.88 83.5881 34.34 82.2281 34.34ZM90.0081 22.28V26.06H86.0881C85.2681 24.48 83.8881 23.58 82.2281 23.58C79.4881 23.58 77.4681 26.1 77.4681 30.14C77.4681 34.2 79.4881 36.74 82.2281 36.74C84.0081 36.76 85.4281 35.72 86.2481 33.92H90.0081V40.76H92.6481V22.28H90.0081ZM105.587 26.74V28.88H108.347V33.26H110.987V22.3H108.347V26.74H105.587ZM106.687 30.7C103.887 29.78 102.607 27.62 102.527 25.52H106.107V23.4H96.2066V25.52H99.8266C99.7466 27.82 98.4066 30.16 95.4866 31.18L96.8266 33.26C98.9666 32.54 100.427 31.04 101.227 29.18C102.027 30.8 103.407 32.1 105.407 32.76L106.687 30.7ZM104.767 38.74C102.347 38.74 101.087 38.24 101.087 37.2C101.087 36.16 102.347 35.66 104.767 35.66C107.167 35.66 108.427 36.16 108.427 37.2C108.427 38.24 107.167 38.74 104.767 38.74ZM104.767 33.66C100.847 33.66 98.4466 34.96 98.4466 37.2C98.4466 39.44 100.847 40.74 104.767 40.74C108.667 40.74 111.067 39.44 111.067 37.2C111.067 34.96 108.667 33.66 104.767 33.66ZM119.905 23.52C117.025 23.52 114.845 25.42 114.845 28.06C114.845 30.72 117.025 32.6 119.905 32.6C122.785 32.6 124.985 30.72 124.985 28.06C124.985 25.42 122.785 23.52 119.905 23.52ZM119.905 25.78C121.325 25.78 122.405 26.62 122.405 28.06C122.405 29.5 121.325 30.34 119.905 30.34C118.485 30.34 117.405 29.5 117.405 28.06C117.405 26.62 118.485 25.78 119.905 25.78ZM126.705 22.28V40.76H129.345V22.28H126.705ZM114.405 37.02C117.585 37.02 121.905 36.98 125.865 36.18L125.705 34.28C121.825 34.86 117.305 34.88 114.065 34.88L114.405 37.02ZM149.535 22.28V40.76H152.175V22.28H149.535ZM142.275 23.58C139.495 23.58 137.435 26.1 137.435 30.14C137.435 34.2 139.495 36.74 142.275 36.74C145.055 36.74 147.115 34.2 147.115 30.14C147.115 26.1 145.055 23.58 142.275 23.58ZM142.275 25.96C143.635 25.96 144.575 27.42 144.575 30.14C144.575 32.88 143.635 34.34 142.275 34.34C140.915 34.34 139.975 32.88 139.975 30.14C139.975 27.42 140.915 25.96 142.275 25.96ZM160.253 34.34C158.873 34.34 157.953 32.88 157.953 30.14C157.953 27.44 158.873 25.96 160.253 25.96C161.613 25.96 162.553 27.44 162.553 30.14C162.553 32.88 161.613 34.34 160.253 34.34ZM160.253 23.58C157.453 23.58 155.413 26.1 155.413 30.14C155.413 34.2 157.453 36.74 160.253 36.74C163.033 36.74 165.093 34.2 165.093 30.14C165.093 26.1 163.033 23.58 160.253 23.58ZM172.273 28.76V26.6H169.733V22.3H167.093V40.72H169.733V34.14H172.273V31.98H169.733V28.76H172.273ZM174.732 24.2V26.3H180.872C180.492 30.38 178.452 33.26 173.752 35.52L175.132 37.6C181.672 34.44 183.572 29.84 183.572 24.2H174.732ZM186.392 22.28V40.7H189.052V22.28H186.392ZM201.021 28.38H208.901V30.96H201.021V28.38ZM206.281 36.44V33.06H211.501V23.44H208.901V26.3H201.021V23.44H198.401V33.06H203.641V36.44H196.641V38.58H213.321V36.44H206.281ZM218.28 30.76H223.94V23.86H215.64V25.96H221.32V28.7H215.68V36.5H217.2C220.26 36.5 222.7 36.4 225.44 35.96L225.2 33.82C222.88 34.2 220.78 34.32 218.28 34.34V30.76ZM227.8 22.28V28.92H224.92V31.06H227.8V40.76H230.46V22.28H227.8ZM234.278 24.18V26.32H240.298C239.818 30.4 237.538 33.32 233.258 35.52L234.738 37.54C240.858 34.44 242.958 29.7 242.958 24.18H234.278ZM250.438 29.32H247.858V22.28H245.218V40.68H247.858V31.5H250.438V29.32ZM252.857 24.2V26.3H258.997C258.617 30.38 256.577 33.26 251.877 35.52L253.257 37.6C259.797 34.44 261.697 29.84 261.697 24.2H252.857ZM264.517 22.28V40.7H267.177V22.28H264.517Z" fill="#5F627E"/>
<path d="M295 31L281.5 38.7942L281.5 23.2058L295 31Z" fill="#5F627E"/>
</svg>
