<svg width="45" height="16" viewBox="0 0 45 16" fill="none" xmlns="http://www.w3.org/2000/svg">
<path d="M15.5486 6.56778L14.4441 3.83053C14.3743 3.65664 14.2606 3.5085 14.1193 3.3974C14.3516 3.13334 14.4896 2.79682 14.4896 2.43293V1.54574C14.4896 0.693972 13.7311 0 12.7988 0H2.82573C1.8934 0 1.13486 0.692362 1.13486 1.54574V2.43293C1.13486 2.79682 1.27292 3.13334 1.5052 3.3974C1.36388 3.5085 1.25018 3.65664 1.18034 3.83053L0.0758286 6.56778C-0.041119 6.85599 -0.0216182 7.17802 0.126191 7.45175C0.264254 7.70615 0.498149 7.89132 0.775899 7.96699C0.819755 7.97987 0.892838 8.00241 0.990294 8.02657V14.7119C0.990294 15.4236 1.57178 16 2.28971 16H13.3348C14.0527 16 14.6342 15.4236 14.6342 14.7119V8.01852C14.6813 8.00564 14.7251 7.99436 14.7609 7.9847C14.769 7.98309 14.7755 7.98148 14.7836 7.97987C15.089 7.91708 15.3489 7.72386 15.4983 7.45014C15.6461 7.17802 15.664 6.85599 15.5486 6.56778ZM5.52364 8.51927C5.50253 8.45326 5.56587 8.39368 5.63084 8.41622L5.85987 8.49834L6.05802 8.35665C6.11487 8.31639 6.19284 8.35826 6.18959 8.42588L6.1831 8.66741L6.37964 8.81071C6.43486 8.85096 6.42024 8.93791 6.35364 8.95723L6.11975 9.02486L6.04341 9.25511C6.02229 9.31951 5.93458 9.33239 5.8956 9.27604L5.75754 9.07638L5.5139 9.07477C5.44405 9.07477 5.40669 8.99587 5.44892 8.94113L5.59835 8.74952L5.52364 8.51927ZM3.02063 10.197L3.37798 9.88789L3.32276 9.41934C3.30814 9.28731 3.45269 9.19392 3.56801 9.26316L3.97571 9.50468L4.40777 9.30824C4.52959 9.2535 4.66441 9.35977 4.63354 9.49019L4.52796 9.94908L4.84957 10.2969C4.94052 10.3951 4.87881 10.5545 4.74399 10.5658L4.27132 10.6076L4.03743 11.0182C3.97083 11.1341 3.79867 11.1245 3.74669 11.0021L3.55989 10.569L3.09373 10.4756C2.96379 10.4498 2.91993 10.284 3.02063 10.197ZM12.5632 14.2272C12.5632 14.4043 12.417 14.5493 12.2384 14.5493H9.07104C8.89237 14.5493 8.74619 14.4043 8.74619 14.2272V13.047C8.74619 12.6316 8.30926 12.2951 7.77163 12.2951C7.23399 12.2951 6.79707 12.6316 6.79707 13.047V14.2272C6.79707 14.4043 6.65088 14.5493 6.47221 14.5493H3.30488C3.12621 14.5493 2.98003 14.4043 2.98003 14.2272V12.6428C2.98003 12.5269 3.04175 12.4207 3.14245 12.3643L7.6092 9.81222C7.70991 9.75425 7.83335 9.75425 7.93406 9.81222L12.4008 12.3643C12.5015 12.4223 12.5632 12.5285 12.5632 12.6428V14.2272ZM14.7836 7.07014C14.7593 7.11362 14.7251 7.14904 14.6829 7.16997C14.6634 7.17319 14.6455 7.17802 14.6261 7.18446C14.6163 7.18768 13.5638 7.52903 12.4885 7.36641C11.501 7.21667 10.9487 6.40676 10.9438 6.40032C10.8724 6.29244 10.7554 6.22482 10.6255 6.21677C10.4972 6.21033 10.3705 6.26507 10.2892 6.3649C9.94978 6.7771 9.17825 7.46785 7.81874 7.46785C6.4576 7.46785 5.67957 6.77388 5.33685 6.36168C5.25888 6.26829 5.14356 6.21516 5.02336 6.21516C5.01687 6.21516 5.01037 6.21516 5.00387 6.21516C4.87556 6.2216 4.75698 6.28761 4.68551 6.39388C4.68064 6.40193 4.11865 7.21988 3.12784 7.36802C2.23124 7.50327 1.35089 7.28912 1.07801 7.21183C1.06339 7.20539 1.04877 7.20056 1.03253 7.19734L0.969178 7.17963C0.917201 7.1587 0.871728 7.12006 0.844116 7.06853C0.824625 7.0315 0.797011 6.95582 0.832745 6.86565L1.93725 4.12841C1.97461 4.03663 2.06394 3.97706 2.16302 3.97706H3.9887C4.21285 3.97706 4.39477 3.79672 4.39477 3.57452C4.39477 3.35232 4.21285 3.17198 3.9887 3.17198H2.82897C2.34494 3.17198 1.95024 2.84029 1.95024 2.43132V1.54574C1.95024 1.13837 2.34494 0.805072 2.82897 0.805072H12.802C13.286 0.805072 13.6807 1.13676 13.6807 1.54574V2.43293C13.6807 2.8419 13.286 3.17359 12.802 3.17359H5.7884H5.78677C5.56262 3.17359 5.38233 3.35393 5.38233 3.57613C5.38233 3.79833 5.56425 3.97867 5.7884 3.97867H13.4663C13.567 3.97867 13.6547 4.03824 13.6921 4.13002L14.7966 6.86726C14.8307 6.95743 14.8031 7.03311 14.7836 7.07014Z" fill="#C1C1C5"/>
<path d="M31.0606 13.617V13.8649C31.0606 14.1499 30.8267 14.3818 30.5392 14.3818H19.7167C19.4292 14.3818 19.1953 14.1499 19.1953 13.8649V13.617C19.1953 13.332 19.4292 13.1001 19.7167 13.1001H24.4108V10.321C24.4108 10.036 24.6447 9.80414 24.9322 9.80414H25.2944C25.5819 9.80414 25.8158 10.036 25.8158 10.321V13.1001H30.5392C30.8267 13.0985 31.0606 13.3304 31.0606 13.617Z" fill="#C1C1C5"/>
<path d="M19.4297 9.83633V9.57066C19.4297 9.31303 19.6213 9.08922 19.8796 9.05863C22.1487 8.79296 24.1807 6.54198 24.8775 3.70007C24.9425 3.4344 25.2023 3.26372 25.4736 3.31042L25.865 3.37804C26.1607 3.42957 26.354 3.71778 26.2825 4.00761C26.1152 4.69514 25.8797 5.35047 25.5922 5.95427L30.3497 9.04414C30.5933 9.20354 30.6599 9.52879 30.4942 9.7687L30.335 9.99895C30.1726 10.234 29.851 10.2952 29.6139 10.1358L24.9798 7.04434C23.7616 8.89279 21.9782 10.1439 20.0063 10.3516C19.6993 10.3854 19.4297 10.1439 19.4297 9.83633Z" fill="#C1C1C5"/>
<path d="M37.2624 9.00393H33.5136C33.2261 9.00393 32.9922 8.77207 32.9922 8.48707V3.97706C32.9922 3.69207 33.2261 3.46021 33.5136 3.46021H39.7183C40.0058 3.46021 40.2397 3.69207 40.2397 3.97706V4.10104C40.2397 4.38604 40.0058 4.6179 39.7183 4.6179H34.891C34.6035 4.6179 34.3696 4.84976 34.3696 5.13475V7.32777C34.3696 7.61277 34.6035 7.84463 34.891 7.84463L36.5883 7.87522C37.8163 7.87522 39.6566 7.73353 40.4411 7.53387C40.7692 7.45014 41.0876 7.6981 41.0876 8.03462V8.11835C41.0876 8.34377 40.9414 8.54504 40.7237 8.61106C39.9408 8.85258 38.6983 9.00393 37.2624 9.00393Z" fill="#C1C1C5"/>
<path d="M33.3945 10.7348V14.2787C33.3945 14.5637 33.6284 14.7956 33.9159 14.7956H42.8056C43.0931 14.7956 43.327 14.5637 43.327 14.2787V10.7348C43.327 10.4498 43.0931 10.218 42.8056 10.218H33.9159C33.6284 10.218 33.3945 10.4482 33.3945 10.7348ZM41.4282 13.6379H35.2933C35.0058 13.6379 34.7719 13.406 34.7719 13.121V11.8941C34.7719 11.6091 35.0058 11.3773 35.2933 11.3773H41.4282C41.7157 11.3773 41.9496 11.6091 41.9496 11.8941V13.121C41.9496 13.406 41.7173 13.6379 41.4282 13.6379Z" fill="#C1C1C5"/>
<path d="M44.4789 6.89461H43.3305V9.0522C43.3305 9.3372 43.0966 9.56906 42.8091 9.56906H42.4745C42.187 9.56906 41.9531 9.3372 41.9531 9.0522V3.68721C41.9531 3.40221 42.187 3.17035 42.4745 3.17035H42.8091C43.0966 3.17035 43.3305 3.40221 43.3305 3.68721V5.58395H44.4789C44.7664 5.58395 45.0003 5.81582 45.0003 6.10081V6.37615C45.0003 6.66275 44.7664 6.89461 44.4789 6.89461Z" fill="#C1C1C5"/>
</svg>
