<svg width="187" height="67" viewBox="0 0 187 67" fill="none" xmlns="http://www.w3.org/2000/svg">
<path d="M64.6132 27.5026L60.0234 16.0404C59.7332 15.3122 59.2607 14.6919 58.6735 14.2266C59.6387 13.1209 60.2124 11.7117 60.2124 10.1879V6.47278C60.2124 2.90601 57.0603 0 53.1859 0H11.7425C7.86812 0 4.71596 2.89927 4.71596 6.47278V10.1879C4.71596 11.7117 5.28971 13.1209 6.25492 14.2266C5.6677 14.6919 5.19521 15.3122 4.90497 16.0404L0.31511 27.5026C-0.170872 28.7095 -0.0898356 30.058 0.524392 31.2042C1.09812 32.2695 2.07008 33.0449 3.22429 33.3618C3.40654 33.4157 3.71024 33.5101 4.11522 33.6112V61.606C4.11522 64.5862 6.53163 67 9.51502 67H55.4133C58.3967 67 60.8131 64.5862 60.8131 61.606V33.5775C61.0089 33.5236 61.1911 33.4764 61.3396 33.4359C61.3734 33.4292 61.4004 33.4225 61.4341 33.4157C62.7031 33.1528 63.783 32.3437 64.404 31.1974C65.0182 30.058 65.0925 28.7095 64.6132 27.5026ZM22.9538 35.6744C22.8661 35.398 23.1293 35.1485 23.3993 35.2429L24.351 35.5868L25.1745 34.9935C25.4107 34.8249 25.7347 35.0002 25.7212 35.2834L25.6942 36.2948L26.5109 36.8948C26.7404 37.0634 26.6797 37.4275 26.4029 37.5084L25.4309 37.7916L25.1137 38.7558C25.026 39.0255 24.6615 39.0794 24.4995 38.8434L23.9258 38.0073L22.9133 38.0006C22.6231 38.0006 22.4678 37.6702 22.6433 37.441L23.2643 36.6386L22.9538 35.6744ZM12.5524 42.7001L14.0374 41.4056L13.8079 39.4435C13.7471 38.8906 14.3478 38.4995 14.8271 38.7895L16.5213 39.8008L18.3167 38.9783C18.823 38.749 19.3832 39.194 19.2549 39.7402L18.8162 41.6618L20.1526 43.1181C20.5306 43.5294 20.2742 44.1969 19.7139 44.2441L17.7497 44.4194L16.7778 46.1388C16.501 46.6242 15.7856 46.5838 15.5696 46.0714L14.7933 44.2576L12.8562 43.8666C12.3162 43.7587 12.1339 43.0642 12.5524 42.7001ZM52.2072 59.5765C52.2072 60.3182 51.5997 60.925 50.8573 60.925H37.6952C36.9528 60.925 36.3453 60.3182 36.3453 59.5765V54.6343C36.3453 52.8947 34.5296 51.4856 32.2954 51.4856C30.0613 51.4856 28.2456 52.8947 28.2456 54.6343V59.5765C28.2456 60.3182 27.6381 60.925 26.8956 60.925H13.7336C12.9911 60.925 12.3837 60.3182 12.3837 59.5765V52.9419C12.3837 52.4565 12.6402 52.0115 13.0586 51.7755L31.6205 41.0887C32.0389 40.8459 32.5519 40.8459 32.9704 41.0887L51.5322 51.7755C51.9507 52.0182 52.2072 52.4632 52.2072 52.9419V59.5765ZM61.4341 29.6062C61.3329 29.7883 61.1912 29.9366 61.0157 30.0243C60.9347 30.0377 60.8604 30.058 60.7794 30.0849C60.7389 30.0984 56.3651 31.5278 51.8967 30.8468C47.7929 30.2198 45.498 26.8283 45.4777 26.8013C45.1807 26.3496 44.6947 26.0664 44.1548 26.0327C43.6215 26.0057 43.095 26.235 42.7575 26.653C41.3468 28.3791 38.1407 31.2716 32.4912 31.2716C26.8349 31.2716 23.6018 28.3656 22.1776 26.6395C21.8536 26.2485 21.3743 26.026 20.8749 26.026C20.8479 26.026 20.8209 26.026 20.7939 26.026C20.2606 26.0529 19.7679 26.3294 19.4709 26.7744C19.4507 26.8081 17.1153 30.2333 12.9979 30.8536C9.27206 31.4199 5.61369 30.5232 4.47974 30.1996C4.41899 30.1726 4.35822 30.1524 4.29072 30.1389L4.02747 30.0647C3.81148 29.9771 3.62252 29.8152 3.50777 29.5995C3.42677 29.4444 3.31202 29.1275 3.46052 28.7499L8.05034 17.2877C8.20558 16.9034 8.57683 16.6539 8.98856 16.6539H16.5753C17.5067 16.6539 18.2627 15.8988 18.2627 14.9683C18.2627 14.0378 17.5067 13.2827 16.5753 13.2827H11.7559C9.74452 13.2827 8.10435 11.8937 8.10435 10.1811V6.47278C8.10435 4.76693 9.74452 3.37124 11.7559 3.37124H53.1994C55.2109 3.37124 56.851 4.76019 56.851 6.47278V10.1879C56.851 11.9005 55.2109 13.2894 53.1994 13.2894H24.054H24.0473C23.1158 13.2894 22.3666 14.0446 22.3666 14.975C22.3666 15.9055 23.1225 16.6607 24.054 16.6607H55.9601C56.3785 16.6607 56.743 16.9101 56.8983 17.2945L61.4881 28.7567C61.6299 29.1342 61.5151 29.4511 61.4341 29.6062Z" fill="#C1C1C5"/>
<path d="M129.08 57.0209V58.0592C129.08 59.2526 128.108 60.2235 126.914 60.2235H81.9401C80.7454 60.2235 79.7734 59.2526 79.7734 58.0592V57.0209C79.7734 55.8275 80.7454 54.8565 81.9401 54.8565H101.447V43.219C101.447 42.0256 102.419 41.0547 103.614 41.0547H105.119C106.313 41.0547 107.285 42.0256 107.285 43.219V54.8565H126.914C128.108 54.8498 129.08 55.8207 129.08 57.0209Z" fill="#C1C1C5"/>

<path d="M80.752 41.1895V40.077C80.752 38.9982 81.5484 38.061 82.6216 37.9329C92.051 36.8204 100.495 27.3944 103.391 15.4939C103.661 14.3814 104.741 13.6667 105.868 13.8622L107.494 14.1454C108.723 14.3612 109.526 15.5681 109.229 16.7817C108.534 19.6608 107.555 22.405 106.36 24.9334L126.13 37.8722C127.143 38.5397 127.42 39.9017 126.731 40.9063L126.07 41.8705C125.395 42.8549 124.058 43.1111 123.073 42.4436L103.816 29.4981C98.7535 37.2384 91.3423 42.4773 83.1481 43.3471C81.8724 43.4887 80.752 42.4773 80.752 41.1895Z" fill="#C1C1C5"/>
<path d="M154.857 37.7026H139.279C138.084 37.7026 137.112 36.7317 137.112 35.5383V16.6526C137.112 15.4592 138.084 14.4883 139.279 14.4883H165.063C166.258 14.4883 167.23 15.4592 167.23 16.6526V17.1718C167.23 18.3652 166.258 19.3361 165.063 19.3361H145.003C143.808 19.3361 142.836 20.307 142.836 21.5005V30.6837C142.836 31.8771 143.808 32.848 145.003 32.848L152.056 32.9761C157.159 32.9761 164.807 32.3828 168.067 31.5467C169.43 31.1961 170.753 32.2345 170.753 33.6437V33.9943C170.753 34.9382 170.146 35.781 169.241 36.0575C165.988 37.0688 160.824 37.7026 154.857 37.7026Z" fill="#C1C1C5"/>
<path d="M138.787 44.9514V59.7916C138.787 60.9851 139.759 61.956 140.953 61.956H177.895C179.089 61.956 180.061 60.9851 180.061 59.7916V44.9514C180.061 43.758 179.089 42.7871 177.895 42.7871H140.953C139.759 42.7871 138.787 43.7513 138.787 44.9514ZM172.171 57.1081H146.677C145.482 57.1081 144.51 56.1372 144.51 54.9438V49.806C144.51 48.6126 145.482 47.6417 146.677 47.6417H172.171C173.366 47.6417 174.338 48.6126 174.338 49.806V54.9438C174.338 56.1372 173.372 57.1081 172.171 57.1081Z" fill="#C1C1C5"/>
<path d="M184.833 28.8707H180.061V37.9057C180.061 39.0991 179.089 40.07 177.895 40.07H176.504C175.309 40.07 174.337 39.0991 174.337 37.9057V15.4397C174.337 14.2463 175.309 13.2754 176.504 13.2754H177.895C179.089 13.2754 180.061 14.2463 180.061 15.4397V23.3824H184.833C186.028 23.3824 187 24.3533 187 25.5467V26.6997C187 27.8998 186.028 28.8707 184.833 28.8707Z" fill="#C1C1C5"/>
</svg>
