<svg width="54" height="20" viewBox="0 0 54 20" fill="none" xmlns="http://www.w3.org/2000/svg">
<path d="M1 12.4316C0.782996 12.4314 0.571818 12.4982 0.398406 12.6217C0.224994 12.7453 0.0987803 12.919 0.0388505 13.1165C-0.0210792 13.3141 -0.0114649 13.5247 0.0662394 13.7166C0.143944 13.9085 0.285512 14.0713 0.469535 14.1802L3.15485 16.7236C3.24767 16.8114 3.35784 16.8811 3.47909 16.9286C3.60034 16.9761 3.73028 17.0006 3.86149 17.0005C3.99271 17.0005 4.12263 16.9759 4.24385 16.9283C4.36506 16.8807 4.47518 16.811 4.56793 16.7231C4.66069 16.6352 4.73425 16.5308 4.78442 16.416C4.83459 16.3011 4.86039 16.1781 4.86034 16.0538C4.8603 15.9295 4.83441 15.8065 4.78415 15.6917C4.73389 15.5769 4.66025 15.4725 4.56743 15.3847L3.44755 14.325H10.99C11.255 14.325 11.5091 14.2253 11.6964 14.0478C11.8838 13.8704 11.989 13.6297 11.989 13.3788C11.989 13.1278 11.8838 12.8872 11.6964 12.7097C11.5091 12.5323 11.255 12.4326 10.99 12.4326H1V12.4316Z" fill="#9796FE"/>
<path d="M15 10.5689C15.217 10.5691 15.4282 10.5023 15.6016 10.3788C15.775 10.2552 15.9012 10.0815 15.9611 9.88398C16.0211 9.68644 16.0115 9.47578 15.9338 9.28388C15.8561 9.09197 15.7145 8.92924 15.5305 8.82031L12.8451 6.27695C12.6577 6.09953 12.4035 5.99991 12.1385 6C11.8735 6.00009 11.6194 6.09988 11.4321 6.27743C11.2447 6.45497 11.1396 6.69572 11.1397 6.94672C11.1397 7.19771 11.2451 7.43839 11.4326 7.61581L12.5524 8.67554H5.00999C4.74504 8.67554 4.49094 8.77523 4.30359 8.95267C4.11624 9.13012 4.01099 9.37079 4.01099 9.62173C4.01099 9.87268 4.11624 10.1133 4.30359 10.2908C4.49094 10.4682 4.74504 10.5679 5.00999 10.5679H15V10.5689Z" fill="#9796FE"/>
<path d="M25.4454 5.508V7.812C25.4454 10.62 23.7354 13.698 21.1974 14.868L22.2774 16.362C25.1034 15.012 26.9574 11.43 26.9574 7.812V5.508H25.4454ZM25.8414 5.508V7.812C25.8414 11.34 27.6954 14.67 30.5574 15.948L31.6014 14.454C29.0274 13.374 27.3354 10.53 27.3354 7.812V5.508H25.8414ZM21.7914 4.68V6.246H30.9894V4.68H21.7914ZM32.9154 3.042V19.494H34.8054V3.042H32.9154ZM45.586 7.56V9.09H50.086V7.56H45.586ZM49.564 3.06V15.21H51.454V3.06H49.564ZM40.744 17.64V19.17H51.832V17.64H40.744ZM40.744 14.022V18.468H42.634V14.022H40.744ZM38.566 4.14V12.51H46.162V4.14H44.308V6.858H40.438V4.14H38.566ZM40.438 8.316H44.308V10.998H40.438V8.316Z" fill="#9796FE"/>
</svg>
