<svg width="70" height="20" viewBox="0 0 70 20" fill="none" xmlns="http://www.w3.org/2000/svg">
<path d="M1 12.4316C0.782996 12.4314 0.571818 12.4982 0.398406 12.6217C0.224994 12.7453 0.0987803 12.919 0.0388505 13.1165C-0.0210792 13.3141 -0.0114649 13.5247 0.0662394 13.7166C0.143944 13.9085 0.285512 14.0713 0.469535 14.1802L3.15485 16.7236C3.24767 16.8114 3.35784 16.8811 3.47909 16.9286C3.60034 16.9761 3.73028 17.0006 3.86149 17.0005C3.99271 17.0005 4.12263 16.9759 4.24385 16.9283C4.36506 16.8807 4.47518 16.811 4.56793 16.7231C4.66069 16.6352 4.73425 16.5308 4.78442 16.416C4.83459 16.3011 4.86039 16.1781 4.86034 16.0538C4.8603 15.9295 4.83441 15.8065 4.78415 15.6917C4.73389 15.5769 4.66025 15.4725 4.56743 15.3847L3.44755 14.325H10.99C11.255 14.325 11.5091 14.2253 11.6964 14.0478C11.8838 13.8704 11.989 13.6297 11.989 13.3788C11.989 13.1278 11.8838 12.8872 11.6964 12.7097C11.5091 12.5323 11.255 12.4326 10.99 12.4326H1V12.4316Z" fill="#9796FE"/>
<path d="M15 10.5689C15.217 10.5691 15.4282 10.5023 15.6016 10.3788C15.775 10.2552 15.9012 10.0815 15.9611 9.88398C16.0211 9.68644 16.0115 9.47578 15.9338 9.28388C15.8561 9.09197 15.7145 8.92924 15.5305 8.82031L12.8451 6.27695C12.6577 6.09953 12.4035 5.99991 12.1385 6C11.8735 6.00009 11.6194 6.09988 11.4321 6.27743C11.2447 6.45497 11.1396 6.69572 11.1397 6.94672C11.1397 7.19771 11.2451 7.43839 11.4326 7.61581L12.5524 8.67554H5.00999C4.74504 8.67554 4.49094 8.77523 4.30359 8.95267C4.11624 9.13012 4.01099 9.37079 4.01099 9.62173C4.01099 9.87268 4.11624 10.1133 4.30359 10.2908C4.49094 10.4682 4.74504 10.5679 5.00999 10.5679H15V10.5689Z" fill="#9796FE"/>
<path d="M22.8081 10.566V12.096H34.2201V10.566H22.8081ZM20.9901 15.966V17.532H35.8941V15.966H20.9901ZM27.4701 11.25V16.524H29.3421V11.25H27.4701ZM22.8081 4.266V11.232H24.6801V5.796H34.0761V4.266H22.8081ZM37.5487 16.02V17.568H52.4527V16.02H37.5487ZM44.0287 12.672V16.65H45.9007V12.672H44.0287ZM39.2947 4.194V5.706H48.7987V7.902H39.3307V12.456H41.2027V9.396H50.6707V4.194H39.2947ZM39.3307 11.682V13.212H51.0487V11.682H39.3307ZM61.9913 5.58V7.092H66.4913V5.58H61.9913ZM61.9913 8.856V10.368H66.5453V8.856H61.9913ZM65.8433 3.042V12.726H67.7333V3.042H65.8433ZM54.8093 4.266V11.682H62.4413V4.266H54.8093ZM60.5873 5.76V10.188H56.6633V5.76H60.5873ZM62.2433 13.194C58.8053 13.194 56.6993 14.346 56.6993 16.326C56.6993 18.324 58.8053 19.476 62.2433 19.476C65.6813 19.476 67.7873 18.324 67.7873 16.326C67.7873 14.346 65.6813 13.194 62.2433 13.194ZM62.2433 14.652C64.5833 14.652 65.9153 15.246 65.9153 16.326C65.9153 17.424 64.5833 18.018 62.2433 18.018C59.9213 18.018 58.5713 17.424 58.5713 16.326C58.5713 15.246 59.9213 14.652 62.2433 14.652Z" fill="#9796FE"/>
</svg>
