<svg width="32" height="38" viewBox="0 0 32 38" fill="none" xmlns="http://www.w3.org/2000/svg">
<path d="M12.3628 30.9249C12.1312 30.7232 11.7515 30.4783 11.3679 30.2328C11.2932 30.1851 11.2158 30.1357 11.1358 30.0847C10.7702 29.8516 10.3496 29.5833 9.88364 29.2713C8.75062 28.5127 7.37917 27.5144 6.05423 26.2518C3.40128 23.7237 1 20.2029 1 15.4855C1 7.51612 7.68486 1 16 1C24.3151 1 31 7.51612 31 15.4855C31 20.2029 28.5987 23.7237 25.9458 26.2518C24.6208 27.5144 23.2494 28.5127 22.1164 29.2713C21.6503 29.5834 21.2297 29.8516 20.8642 30.0847C20.7841 30.1357 20.7067 30.1851 20.6321 30.2328C20.2485 30.4783 19.8688 30.7232 19.6372 30.9249L19.6368 30.9253C18.825 31.6328 18.1474 32.7093 17.6324 33.7233C17.1072 34.7574 16.7 35.8297 16.4622 36.6188C16.4185 36.764 16.3456 36.8493 16.2707 36.9031C16.1959 36.9569 16.101 36.9913 15.999 36.999C15.8986 36.9916 15.8043 36.9576 15.7295 36.9039C15.6547 36.8502 15.5817 36.7648 15.5379 36.6193L15.5379 36.6191C15.3001 35.8301 14.8929 34.7572 14.3676 33.7229C13.8527 32.7088 13.175 31.6319 12.3628 30.9249ZM12.3628 30.9249L11.7062 31.6791L12.3628 30.9249C12.3628 30.9249 12.3628 30.9249 12.3628 30.9249Z" fill="white" stroke="#9796FE" stroke-width="2"/>
<path d="M19.7527 22.4806L16.4067 20.7997L13.126 22.6339C12.1931 23.1532 11.0838 22.3707 11.2433 21.3127L11.8118 17.5751L9.08116 14.9973C8.31023 14.2657 8.70221 12.9551 9.75137 12.7756L13.4462 12.1465L15.0441 8.71691C15.4977 7.7483 16.852 7.71281 17.3394 8.66696L19.055 12.0245L22.7733 12.4828C23.824 12.6155 24.2638 13.9068 23.5166 14.6712L20.8796 17.3752L21.5748 21.0902C21.7831 22.1289 20.6969 22.9573 19.7527 22.4806Z" fill="#9796FE"/>
</svg>
