<svg width="12" height="12" viewBox="0 0 12 12" fill="none" xmlns="http://www.w3.org/2000/svg">
<path d="M10.8541 4.64509L8.85409 2.64509C8.80747 2.59847 8.75213 2.56149 8.69122 2.53626C8.63031 2.51103 8.56502 2.49805 8.49909 2.49805C8.36594 2.49805 8.23825 2.55094 8.14409 2.64509C8.04994 2.73924 7.99705 2.86694 7.99705 3.00009C7.99705 3.13324 8.04994 3.26094 8.14409 3.35509L9.29409 4.50009H3.49909C3.36649 4.50009 3.23931 4.55277 3.14554 4.64654C3.05177 4.74031 2.99909 4.86748 2.99909 5.00009C2.99909 5.1327 3.05177 5.25988 3.14554 5.35365C3.23931 5.44741 3.36649 5.50009 3.49909 5.50009H10.4991C10.5978 5.4996 10.6942 5.4699 10.776 5.41473C10.8579 5.35957 10.9216 5.2814 10.9591 5.19009C10.9974 5.09904 11.0078 4.99868 10.9892 4.90169C10.9705 4.80469 10.9235 4.7154 10.8541 4.64509ZM8.49909 6.50009H1.49909C1.40038 6.50059 1.30402 6.53029 1.22216 6.58545C1.1403 6.64062 1.0766 6.71878 1.03909 6.81009C1.0008 6.90115 0.990342 7.0015 1.00903 7.0985C1.02772 7.19549 1.07471 7.28478 1.14409 7.35509L3.14409 9.35509C3.19058 9.40196 3.24588 9.43915 3.30681 9.46454C3.36773 9.48992 3.43309 9.50299 3.49909 9.50299C3.5651 9.50299 3.63045 9.48992 3.69138 9.46454C3.75231 9.43915 3.80761 9.40196 3.85409 9.35509C3.90096 9.30861 3.93815 9.25331 3.96354 9.19238C3.98892 9.13145 4.00199 9.0661 4.00199 9.00009C4.00199 8.93409 3.98892 8.86873 3.96354 8.8078C3.93815 8.74687 3.90096 8.69157 3.85409 8.64509L2.70409 7.50009H8.49909C8.6317 7.50009 8.75888 7.44741 8.85265 7.35365C8.94642 7.25988 8.99909 7.1327 8.99909 7.00009C8.99909 6.86748 8.94642 6.74031 8.85265 6.64654C8.75888 6.55277 8.6317 6.50009 8.49909 6.50009Z" fill="#ABACFE"/>
</svg>
