<svg width="32" height="38" viewBox="0 0 32 38" fill="none" xmlns="http://www.w3.org/2000/svg">
<path d="M16 0C7.16364 0 0 6.93328 0 15.4855C0 25.6693 10.4029 30.5444 11.7062 31.6791C13.0371 32.8377 14.1367 35.435 14.5804 36.9076C14.7956 37.6227 15.4007 37.9845 16 38C16.6007 37.9831 17.2044 37.6213 17.4196 36.9076C17.8633 35.435 18.9629 32.8391 20.2938 31.6791C21.5971 30.5444 32 25.6693 32 15.4855C32 6.93328 24.8364 0 16 0Z" fill="#9796FE"/>
<path d="M19.7527 22.4806L16.4067 20.7997L13.126 22.6339C12.1931 23.1532 11.0838 22.3707 11.2433 21.3127L11.8118 17.5751L9.08116 14.9973C8.31023 14.2657 8.70221 12.9551 9.75137 12.7756L13.4462 12.1465L15.0441 8.71691C15.4977 7.7483 16.852 7.71281 17.3394 8.66696L19.055 12.0245L22.7733 12.4828C23.824 12.6155 24.2638 13.9068 23.5166 14.6712L20.8796 17.3752L21.5748 21.0902C21.7831 22.1289 20.6969 22.9573 19.7527 22.4806Z" fill="white"/>
</svg>
