<svg width="42" height="42" viewBox="0 0 42 42" fill="none" xmlns="http://www.w3.org/2000/svg">
<circle cx="21" cy="21" r="21" fill="#E9E8EB"/>
<path d="M23.354 27.5C25.6212 27.5 27.462 25.654 27.475 23.3998L27.501 20.0809L27.462 19.8989L27.3541 19.6727L27.1695 19.5297C26.9303 19.3425 25.7187 19.5427 25.3924 19.2463C25.161 19.0344 25.1246 18.6535 25.0544 18.1348C24.9244 17.1325 24.8425 17.0805 24.6852 16.7399C24.1132 15.5322 22.5662 14.6248 21.5028 14.5H18.6207C17.5306 14.5017 16.4855 14.9347 15.7136 15.7044C14.9417 16.4741 14.5058 17.5179 14.501 18.608V23.3998C14.501 25.654 16.3548 27.5 18.622 27.5H23.354ZM18.674 17.8553H20.9581C21.3936 17.8553 21.7472 18.2102 21.7472 18.6405C21.7472 19.0695 21.3936 19.4257 20.9581 19.4257H18.674C18.4655 19.4254 18.2655 19.3426 18.1177 19.1956C17.9699 19.0485 17.8862 18.849 17.8849 18.6405C17.8849 18.2102 18.2372 17.8553 18.674 17.8553ZM17.8849 23.34C17.8849 22.911 18.2372 22.5587 18.674 22.5587H23.315C23.7479 22.5587 24.1002 22.9097 24.1002 23.34C24.1002 23.7651 23.7492 24.1213 23.315 24.1213H18.674C18.466 24.1213 18.2665 24.0392 18.1187 23.8929C17.971 23.7466 17.8869 23.5479 17.8849 23.34Z" fill="white"/>
<path d="M13.2 10.6C12.5104 10.6 11.8491 10.8739 11.3615 11.3615C10.8739 11.8491 10.6 12.5104 10.6 13.2V28.8C10.6 29.4896 10.8739 30.1509 11.3615 30.6385C11.8491 31.1261 12.5104 31.4 13.2 31.4H28.8C29.4896 31.4 30.1509 31.1261 30.6385 30.6385C31.1261 30.1509 31.4 29.4896 31.4 28.8V13.2C31.4 12.5104 31.1261 11.8491 30.6385 11.3615C30.1509 10.8739 29.4896 10.6 28.8 10.6H13.2ZM13.2 8H28.8C30.1791 8 31.5018 8.54786 32.477 9.52304C33.4521 10.4982 34 11.8209 34 13.2V28.8C34 30.1791 33.4521 31.5018 32.477 32.477C31.5018 33.4521 30.1791 34 28.8 34H13.2C11.8209 34 10.4982 33.4521 9.52304 32.477C8.54786 31.5018 8 30.1791 8 28.8V13.2C8 11.8209 8.54786 10.4982 9.52304 9.52304C10.4982 8.54786 11.8209 8 13.2 8Z" fill="white"/>
</svg>
