<svg width="55" height="21" viewBox="0 0 55 21" fill="none" xmlns="http://www.w3.org/2000/svg">
<path d="M16.4665 4.44703L14.4978 2.52172C14.1562 2.18767 13.6929 2 13.2098 2L6.67857 2C5.67261 2 4.85714 2.79748 4.85714 3.78125V5.5625H1.82143C0.815469 5.5625 0 6.35998 0 7.34375V19.2188C0 20.2025 0.815469 21 1.82143 21H10.3214C11.3274 21 12.1429 20.2025 12.1429 19.2188V17.4375H15.1786C16.1845 17.4375 17 16.64 17 15.6562V5.70656C17 5.23414 16.8081 4.78108 16.4665 4.44703ZM10.0938 19.2188H2.04911C1.98872 19.2188 1.93081 19.1953 1.88811 19.1535C1.84542 19.1118 1.82143 19.0551 1.82143 18.9961V7.56641C1.82143 7.50735 1.84542 7.45072 1.88811 7.40896C1.93081 7.36721 1.98872 7.34375 2.04911 7.34375H4.85714V15.6562C4.85714 16.64 5.67261 17.4375 6.67857 17.4375H10.3214V18.9961C10.3214 19.0551 10.2974 19.1118 10.2547 19.1535C10.212 19.1953 10.1541 19.2188 10.0938 19.2188ZM14.9509 15.6562H6.90625C6.84587 15.6562 6.78795 15.6328 6.74526 15.591C6.70256 15.5493 6.67857 15.4926 6.67857 15.4336V4.00391C6.67857 3.94485 6.70256 3.88822 6.74526 3.84646C6.78795 3.80471 6.84587 3.78125 6.90625 3.78125H10.9286V7.04688C10.9286 7.53876 11.3363 7.9375 11.8393 7.9375H15.1786V15.4336C15.1786 15.4926 15.1546 15.5493 15.1119 15.591C15.0692 15.6328 15.0113 15.6562 14.9509 15.6562ZM15.1786 6.15625H12.75V3.78125H13.1155C13.1759 3.78125 13.2338 3.8047 13.2765 3.84645L15.1119 5.64136C15.133 5.66204 15.1498 5.68658 15.1613 5.7136C15.1727 5.74062 15.1786 5.76957 15.1786 5.79881V6.15625Z" fill="#9796FE"/>
<path d="M22.2514 11.358V12.888H37.1194V11.358H22.2514ZM28.7494 9.072V11.754H30.6214V9.072H28.7494ZM23.9074 14.292V15.786H33.4294V19.494H35.3014V14.292H23.9074ZM24.1954 3.438V9.684H35.2114V3.438H33.3394V5.112H26.0494V3.438H24.1954ZM26.0494 6.552H33.3394V8.19H26.0494V6.552ZM42.698 4.392V7.092C42.698 10.134 41.096 13.284 38.54 14.526L39.692 16.038C42.518 14.598 44.228 10.926 44.228 7.092V4.392H42.698ZM43.058 4.392V7.092C43.058 10.8 44.696 14.31 47.432 15.732L48.584 14.238C46.118 13.014 44.57 10.026 44.57 7.092V4.392H43.058ZM49.682 3.042V19.494H51.572V3.042H49.682ZM51.14 9.558V11.124H54.128V9.558H51.14Z" fill="#9796FE"/>
</svg>
