<svg width="54" height="42" viewBox="0 0 54 42" fill="none" xmlns="http://www.w3.org/2000/svg">
<ellipse cx="43.4551" cy="14.3654" rx="1.58228" ry="1.50794" fill="#F8F8F8"/>
<path d="M17.5698 3.61553L16.4302 6.32197C16.018 7.30092 15.0593 7.9375 13.9971 7.9375H4.64C3.18197 7.9375 2 9.11947 2 10.5775V37.36C2 38.818 3.18197 40 4.64 40H49.36C50.818 40 52 38.818 52 37.36V10.5775C52 9.11947 50.818 7.9375 49.36 7.9375H40.0029C38.9407 7.9375 37.982 7.30092 37.5698 6.32197L36.4302 3.61553C36.018 2.63658 35.0593 2 33.9971 2H20.0029C18.9407 2 17.982 2.63658 17.5698 3.61553Z" stroke="#8C8C95" stroke-width="3.3"/>
<path d="M36.4245 23.413C36.4245 28.2575 32.2801 32.3185 26.9986 32.3185C21.717 32.3185 17.5726 28.2575 17.5726 23.413C17.5726 18.5685 21.717 14.5074 26.9986 14.5074C32.2801 14.5074 36.4245 18.5685 36.4245 23.413Z" stroke="#8C8C95" stroke-width="3.3"/>
</svg>
