<svg width="8" height="9" viewBox="0 0 8 9" fill="none" xmlns="http://www.w3.org/2000/svg">
<g clip-path="url(#clip0_3247_23498)">
<path d="M7.74895 1.15912L6.82248 0.247131C6.66174 0.0888968 6.44372 1.17013e-06 6.21639 0L3.14286 0C2.66946 0 2.28571 0.377754 2.28571 0.84375V1.6875H0.857143C0.38375 1.6875 0 2.06525 0 2.53125V8.15625C0 8.62225 0.38375 9 0.857143 9H4.85714C5.33054 9 5.71429 8.62225 5.71429 8.15625V7.3125H7.14286C7.61625 7.3125 8 6.93475 8 6.46875V1.75574C8 1.53196 7.90969 1.31735 7.74895 1.15912ZM4.75 8.15625H0.964286C0.93587 8.15625 0.908617 8.14514 0.888524 8.12536C0.868431 8.10558 0.857143 8.07875 0.857143 8.05078V2.63672C0.857143 2.60875 0.868431 2.58192 0.888524 2.56214C0.908617 2.54236 0.93587 2.53125 0.964286 2.53125H2.28571V6.46875C2.28571 6.93475 2.66946 7.3125 3.14286 7.3125H4.85714V8.05078C4.85714 8.07875 4.84585 8.10558 4.82576 8.12536C4.80567 8.14514 4.77842 8.15625 4.75 8.15625ZM7.03571 6.46875H3.25C3.22158 6.46875 3.19433 6.45764 3.17424 6.43786C3.15415 6.41808 3.14286 6.39125 3.14286 6.36328V0.949219C3.14286 0.921247 3.15415 0.89442 3.17424 0.874641C3.19433 0.854862 3.22158 0.84375 3.25 0.84375H5.14286V2.39062C5.14286 2.62362 5.33473 2.8125 5.57143 2.8125H7.14286V6.36328C7.14286 6.39125 7.13157 6.41808 7.11148 6.43786C7.09138 6.45764 7.06413 6.46875 7.03571 6.46875V6.46875ZM7.14286 1.96875H6V0.84375H6.172C6.20041 0.84375 6.22766 0.854859 6.24777 0.874635L7.11148 1.72485C7.12143 1.73465 7.12932 1.74628 7.13471 1.75907C7.14009 1.77187 7.14286 1.78559 7.14286 1.79944V1.96875Z" fill="#ABACFE"/>
</g>
<defs>
<clipPath id="clip0_3247_23498">
<rect width="8" height="9" fill="white"/>
</clipPath>
</defs>
</svg>
