<svg width="33" height="33" viewBox="0 0 33 33" fill="none" xmlns="http://www.w3.org/2000/svg">
<path d="M24.3953 30.3706L24.393 30.3694L17.3146 26.812L16.7293 26.5178L16.1575 26.8373L9.22174 30.713C9.22138 30.7132 9.22103 30.7134 9.22067 30.7136C8.14979 31.3083 6.88899 30.4124 7.0698 29.2073C7.06983 29.2071 7.06987 29.2069 7.0699 29.2067L8.2694 21.3035L8.36881 20.6485L7.88911 20.1957L2.11398 14.7438C2.11367 14.7436 2.11337 14.7433 2.11306 14.743C1.23612 13.9094 1.67625 12.4052 2.88585 12.1983C2.88601 12.1983 2.88618 12.1983 2.88634 12.1982L10.6999 10.8705L11.3417 10.7615L11.6186 10.167L14.9948 2.91688C14.9949 2.91657 14.995 2.91627 14.9952 2.91596C15.5238 1.78857 17.0705 1.77772 17.619 2.85092L17.6191 2.85106L21.2502 9.95347L21.5521 10.5439L22.2054 10.6247L30.0666 11.5963C30.0671 11.5963 30.0676 11.5964 30.0681 11.5965C31.254 11.7479 31.7723 13.2132 30.9083 14.0971L30.9073 14.0981L25.3318 19.8152L24.8752 20.2834L24.9963 20.9291L26.4695 28.7868L26.471 28.7948L26.4726 28.8028C26.7033 29.9514 25.4859 30.9215 24.3953 30.3706Z" stroke="#ABACFE" stroke-width="2.5"/>
</svg>
