<svg width="15" height="13" viewBox="0 0 15 13" fill="none" xmlns="http://www.w3.org/2000/svg">
<path d="M7.0034 12.3131L7.00342 12.3131L6.99845 12.3094C5.93654 11.5211 4.29776 10.2622 2.92672 8.75091C1.54123 7.22372 0.512249 5.52844 0.512249 3.86745C0.512249 2.04092 2.08666 0.512249 4.09058 0.512249C5.02432 0.512249 5.77023 0.894819 6.29486 1.29402C6.55635 1.49298 6.75729 1.69209 6.89173 1.84012C6.95873 1.9139 7.00858 1.97428 7.04054 2.01463C7.05651 2.03479 7.06795 2.04987 7.0748 2.05905L7.08159 2.06826C7.08181 2.06858 7.08199 2.06882 7.08212 2.069C7.08225 2.06918 7.08233 2.06929 7.08235 2.06932C7.08236 2.06934 7.08236 2.06934 7.08236 2.06933L7.5 2.66161L7.91764 2.06933C7.91764 2.06934 7.91764 2.06934 7.91765 2.06932C7.91767 2.06929 7.91775 2.06918 7.91788 2.069C7.91801 2.06882 7.91819 2.06858 7.91841 2.06826L7.9252 2.05905C7.93205 2.04987 7.94349 2.03479 7.95946 2.01463C7.99142 1.97428 8.04127 1.9139 8.10827 1.84012C8.24271 1.69209 8.44365 1.49298 8.70514 1.29402C9.22976 0.894819 9.97568 0.512249 10.9094 0.512249C12.9133 0.512249 14.4878 2.04092 14.4878 3.86745C14.4878 5.53245 13.4533 7.23217 12.0626 8.76237C10.6864 10.2765 9.04336 11.5364 7.98455 12.322L7.96949 12.3332L7.96849 12.3341L7.95419 12.3443C7.82637 12.4356 7.66705 12.4874 7.50021 12.4877C7.33365 12.4872 7.17464 12.4354 7.04703 12.3443L7.0034 12.3131Z" stroke="#312E36" stroke-width="1.0245"/>
</svg>
