<svg width="50" height="24" viewBox="0 0 50 24" fill="none" xmlns="http://www.w3.org/2000/svg">
<rect x="0.5" y="0.5" width="49" height="23" rx="11.5" fill="#9796FE" stroke="#9796FE"/>
<path d="M22.9689 6.956V18.068H24.4809V6.956H22.9689ZM21.4809 11.228V12.512H23.3289V11.228H21.4809ZM20.4849 7.148V17.54H21.9609V7.148H20.4849ZM15.2529 14.252V15.56H16.0329C17.4609 15.56 18.6369 15.524 19.9809 15.26L19.8609 13.964C18.5409 14.204 17.4009 14.252 16.0329 14.252H15.2529ZM15.2529 8.24V14.876H16.8369V9.524H19.3569V8.24H15.2529ZM28.452 13.004V15.992H30.048V13.004H28.452ZM31.944 13.016V16.004H33.528V13.016H31.944ZM25.992 15.56V16.856H36.048V15.56H25.992ZM26.76 7.832V9.104H35.22V7.832H26.76ZM26.808 12.224V13.484H35.184V12.224H26.808ZM28.272 8.888V12.404H29.868V8.888H28.272ZM32.124 8.888V12.404H33.708V8.888H32.124Z" fill="white"/>
</svg>
