<svg width="20" height="20" viewBox="0 0 20 20" fill="none" xmlns="http://www.w3.org/2000/svg">
<path d="M10.0431 0C4.94915 0 0.736488 3.79446 0.0948082 8.69954C0.0766775 8.80983 0.0810085 8.92262 0.107544 9.03121C0.134079 9.1398 0.182276 9.24196 0.249269 9.33163C0.316261 9.42129 0.400681 9.49662 0.497505 9.55314C0.59433 9.60966 0.701582 9.64622 0.812882 9.66063C0.924182 9.67504 1.03726 9.66702 1.14538 9.63704C1.2535 9.60706 1.35446 9.55573 1.44226 9.48611C1.53006 9.41649 1.6029 9.33 1.65644 9.23178C1.70999 9.13356 1.74315 9.02562 1.75395 8.91439C2.28899 4.82447 5.78193 1.66667 10.0431 1.66667C12.3588 1.66667 14.4375 2.60712 15.9507 4.11784L14.2278 5.83333L19.2493 6.66667L18.4124 1.66667L17.1325 2.94108C15.3164 1.13129 12.8128 0 10.0431 0ZM19.1758 10.3483C18.9684 10.3453 18.7674 10.4191 18.6115 10.5553C18.4557 10.6915 18.3562 10.8805 18.3323 11.0856C17.7973 15.1755 14.3043 18.3333 10.0431 18.3333C7.51385 18.3333 5.2716 17.2085 3.73675 15.446L5.02156 14.1667L0 13.3333L0.836927 18.3333L2.55165 16.626C4.38991 18.6856 7.06037 20 10.0431 20C15.1371 20 19.3498 16.2055 19.9914 11.3005C20.0084 11.1833 20.0001 11.0638 19.967 10.95C19.934 10.8363 19.877 10.7309 19.7998 10.6408C19.7226 10.5507 19.627 10.478 19.5194 10.4276C19.4118 10.3771 19.2947 10.3501 19.1758 10.3483Z" fill="white"/>
</svg>
