<svg width="42" height="42" viewBox="0 0 42 42" fill="none" xmlns="http://www.w3.org/2000/svg">
<circle cx="21" cy="21" r="21" fill="#E9E8EB"/>
<path d="M21 17.1C19.8861 17.1 18.8178 17.5109 18.0302 18.2423C17.2425 18.9737 16.8 19.9657 16.8 21C16.8 22.0343 17.2425 23.0263 18.0302 23.7577C18.8178 24.4891 19.8861 24.9 21 24.9C22.1139 24.9 23.1822 24.4891 23.9698 23.7577C24.7575 23.0263 25.2 22.0343 25.2 21C25.2 19.9657 24.7575 18.9737 23.9698 18.2423C23.1822 17.5109 22.1139 17.1 21 17.1ZM21 14.5C22.8565 14.5 24.637 15.1848 25.9497 16.4038C27.2625 17.6228 28 19.2761 28 21C28 22.7239 27.2625 24.3772 25.9497 25.5962C24.637 26.8152 22.8565 27.5 21 27.5C19.1435 27.5 17.363 26.8152 16.0503 25.5962C14.7375 24.3772 14 22.7239 14 21C14 19.2761 14.7375 17.6228 16.0503 16.4038C17.363 15.1848 19.1435 14.5 21 14.5ZM30.1 14.175C30.1 14.606 29.9156 15.0193 29.5874 15.324C29.2592 15.6288 28.8141 15.8 28.35 15.8C27.8859 15.8 27.4408 15.6288 27.1126 15.324C26.7844 15.0193 26.6 14.606 26.6 14.175C26.6 13.744 26.7844 13.3307 27.1126 13.026C27.4408 12.7212 27.8859 12.55 28.35 12.55C28.8141 12.55 29.2592 12.7212 29.5874 13.026C29.9156 13.3307 30.1 13.744 30.1 14.175ZM21 10.6C17.5364 10.6 16.9708 10.6091 15.3594 10.6754C14.2618 10.7235 13.5254 10.86 12.8422 11.107C12.2705 11.3019 11.7536 11.6143 11.3302 12.0209C10.892 12.414 10.5551 12.894 10.3446 13.4249C10.0786 14.0619 9.9316 14.7444 9.8812 15.7623C9.8084 17.1975 9.8 17.6993 9.8 21C9.8 24.2162 9.8098 24.7414 9.8812 26.2377C9.933 27.2556 10.08 27.9407 10.3446 28.5738C10.5826 29.1393 10.8626 29.5462 11.3274 29.9778C11.7992 30.4146 12.2374 30.6759 12.8394 30.8917C13.531 31.14 14.2674 31.2778 15.3594 31.3246C16.905 31.3922 17.4454 31.4 21 31.4C24.4636 31.4 25.0292 31.3909 26.6406 31.3246C27.7354 31.2765 28.4732 31.14 29.1564 30.8943C29.7273 30.6984 30.2438 30.3866 30.6684 29.9817C31.1402 29.5436 31.4216 29.1367 31.654 28.5777C31.92 27.9368 32.0684 27.2517 32.1188 26.2377C32.1916 24.8025 32.2 24.3007 32.2 21C32.2 17.7838 32.1902 17.2586 32.1188 15.7623C32.067 14.7457 31.92 14.0593 31.654 13.4249C31.443 12.8945 31.1067 12.4147 30.6698 12.0209C30.2466 11.6138 29.7297 11.3009 29.1578 11.1057C28.4718 10.8587 27.7354 10.7222 26.6406 10.6754C25.095 10.6078 24.5546 10.6 21 10.6ZM21 8C24.8038 8 25.2784 8.013 26.7708 8.078C28.2618 8.143 29.2768 8.3601 30.17 8.6825C31.094 9.0127 31.8724 9.4599 32.6508 10.1814C33.3627 10.8313 33.9135 11.6174 34.265 12.485C34.6108 13.3131 34.846 14.2569 34.916 15.6414C34.9818 17.0272 35 17.4679 35 21C35 24.5321 34.986 24.9728 34.916 26.3586C34.846 27.7431 34.6108 28.6856 34.265 29.515C33.9145 30.3831 33.3636 31.1694 32.6508 31.8186C31.9507 32.4794 31.1042 32.9909 30.17 33.3175C29.2782 33.6386 28.2618 33.857 26.7708 33.922C25.2784 33.9831 24.8038 34 21 34C17.1962 34 16.7216 33.987 15.2292 33.922C13.7382 33.857 12.7232 33.6386 11.83 33.3175C10.8953 32.9918 10.0485 32.4802 9.3492 31.8186C8.63717 31.1688 8.0863 30.3827 7.735 29.515C7.3878 28.6869 7.154 27.7431 7.084 26.3586C7.0182 24.9728 7 24.5321 7 21C7 17.4679 7.014 17.0272 7.084 15.6414C7.154 14.2556 7.3878 13.3144 7.735 12.485C8.08533 11.6168 8.63633 10.8305 9.3492 10.1814C10.0487 9.52 10.8954 9.00845 11.83 8.6825C12.7232 8.3601 13.7368 8.143 15.2292 8.078C16.7216 8.0169 17.1962 8 21 8Z" fill="white"/>
</svg>
