<svg width="18" height="20" viewBox="0 0 18 20" fill="none" xmlns="http://www.w3.org/2000/svg">
<path d="M8.98596 0.00010375C8.74791 0.00362544 8.52106 0.096388 8.3552 0.258033C8.18934 0.419677 8.09802 0.636997 8.10128 0.862297V1.28758H3.15832C3.03927 1.28605 2.92109 1.30692 2.81063 1.34898C2.70018 1.39104 2.59966 1.45345 2.5149 1.53258C2.43014 1.61171 2.36284 1.706 2.3169 1.80995C2.27097 1.91391 2.24731 2.02546 2.24731 2.13814H0.91152C0.792429 2.13655 0.674191 2.15737 0.563677 2.1994C0.453163 2.24143 0.352577 2.30383 0.267765 2.38297C0.182953 2.46211 0.115607 2.55642 0.0696391 2.6604C0.0236716 2.76439 0 2.87599 0 2.98871C0 3.10143 0.0236716 3.21303 0.0696391 3.31701C0.115607 3.421 0.182953 3.51531 0.267765 3.59445C0.352577 3.67359 0.453163 3.73599 0.563677 3.77801C0.674191 3.82004 0.792429 3.84087 0.91152 3.83927H17.0885C17.2076 3.84087 17.3258 3.82004 17.4363 3.77801C17.5468 3.73599 17.6474 3.67359 17.7322 3.59445C17.817 3.51531 17.8844 3.421 17.9304 3.31701C17.9763 3.21303 18 3.10143 18 2.98871C18 2.87599 17.9763 2.76439 17.9304 2.6604C17.8844 2.55642 17.817 2.46211 17.7322 2.38297C17.6474 2.30383 17.5468 2.24143 17.4363 2.1994C17.3258 2.15737 17.2076 2.13655 17.0885 2.13814H15.7527C15.7527 2.02546 15.729 1.91391 15.6831 1.80995C15.6372 1.706 15.5699 1.61171 15.4851 1.53258C15.4003 1.45345 15.2998 1.39104 15.1894 1.34898C15.0789 1.30692 14.9607 1.28605 14.8417 1.28758H9.89872V0.862297C9.90037 0.748501 9.87787 0.635548 9.83256 0.530129C9.78725 0.42471 9.72005 0.328967 9.63494 0.248571C9.54983 0.168175 9.44853 0.104759 9.33706 0.0620801C9.22558 0.0194012 9.10619 -0.0016736 8.98596 0.00010375ZM0.91152 5.5404L2.5229 18.4982C2.62895 19.3547 3.39499 20 4.30629 20H13.6937C14.605 20 15.3702 19.3547 15.4771 18.4982L17.0885 5.5404H0.91152Z" fill="white"/>
</svg>
