<svg width="9" height="15" viewBox="0 0 9 15" fill="none" xmlns="http://www.w3.org/2000/svg">
<path d="M8.5511 1.50871C8.83206 1.20434 8.81308 0.72985 8.50871 0.448897C8.20434 0.167945 7.72985 0.186924 7.4489 0.49129L8.5511 1.50871ZM2 7.5L1.4489 6.99129L0.979319 7.5L1.4489 8.00871L2 7.5ZM7.4489 14.5087C7.72985 14.8131 8.20434 14.8321 8.50871 14.5511C8.81308 14.2702 8.83206 13.7957 8.5511 13.4913L7.4489 14.5087ZM7.4489 0.49129L1.4489 6.99129L2.5511 8.00871L8.5511 1.50871L7.4489 0.49129ZM1.4489 8.00871L7.4489 14.5087L8.5511 13.4913L2.5511 6.99129L1.4489 8.00871Z" fill="#312E36"/>
</svg>
