<svg width="48" height="26" viewBox="0 0 48 26" fill="none" xmlns="http://www.w3.org/2000/svg">
<path d="M15.0131 9.284V11.076C15.0131 13.26 13.6831 15.654 11.7091 16.564L12.5491 17.726C14.7471 16.676 16.1891 13.89 16.1891 11.076V9.284H15.0131ZM15.3211 9.284V11.076C15.3211 13.82 16.7631 16.41 18.9891 17.404L19.8011 16.242C17.7991 15.402 16.4831 13.19 16.4831 11.076V9.284H15.3211ZM12.1711 8.64V9.858H19.3251V8.64H12.1711ZM20.8231 7.366V20.162H22.2931V7.366H20.8231ZM30.678 10.88V12.07H34.178V10.88H30.678ZM33.772 7.38V16.83H35.242V7.38H33.772ZM26.912 18.72V19.91H35.536V18.72H26.912ZM26.912 15.906V19.364H28.382V15.906H26.912ZM25.218 8.22V14.73H31.126V8.22H29.684V10.334H26.674V8.22H25.218ZM26.674 11.468H29.684V13.554H26.674V11.468Z" fill="#8C8C95"/>
<rect x="0.75" y="0.75" width="46.5" height="24.5" rx="4.25" stroke="#8C8C95" stroke-width="1.5"/>
</svg>
