<svg width="20" height="20" viewBox="0 0 20 20" fill="none" xmlns="http://www.w3.org/2000/svg">
<g filter="url(#filter0_d_3435_22895)">
<circle cx="10" cy="9" r="8" fill="#F8F8F8"/>
<path d="M9.05731 5.22876L9.05731 8.05719L6.22888 8.05719C5.70818 8.05719 5.28607 8.4793 5.28607 9C5.28607 9.5207 5.70818 9.94281 6.22888 9.94281H9.05731L9.05731 12.7712C9.05731 13.2919 9.47942 13.714 10.0001 13.714C10.5208 13.714 10.9429 13.2919 10.9429 12.7712L10.9429 9.94281L13.7714 9.94281C14.2921 9.94281 14.7142 9.5207 14.7142 9C14.7142 8.4793 14.2921 8.05719 13.7714 8.05719L10.9429 8.05719L10.9429 5.22876C10.9429 4.70806 10.5208 4.28595 10.0001 4.28595C9.47942 4.28595 9.05731 4.70806 9.05731 5.22876Z" fill="#ABACFE"/>
</g>
<defs>
<filter id="filter0_d_3435_22895" x="0" y="0" width="20" height="20" filterUnits="userSpaceOnUse" color-interpolation-filters="sRGB">
<feFlood flood-opacity="0" result="BackgroundImageFix"/>
<feColorMatrix in="SourceAlpha" type="matrix" values="0 0 0 0 0 0 0 0 0 0 0 0 0 0 0 0 0 0 127 0" result="hardAlpha"/>
<feOffset dy="1"/>
<feGaussianBlur stdDeviation="1"/>
<feComposite in2="hardAlpha" operator="out"/>
<feColorMatrix type="matrix" values="0 0 0 0 0 0 0 0 0 0 0 0 0 0 0 0 0 0 0.15 0"/>
<feBlend mode="normal" in2="BackgroundImageFix" result="effect1_dropShadow_3435_22895"/>
<feBlend mode="normal" in="SourceGraphic" in2="effect1_dropShadow_3435_22895" result="shape"/>
</filter>
</defs>
</svg>
