<svg width="32" height="40" viewBox="0 0 32 40" fill="none" xmlns="http://www.w3.org/2000/svg">
<path d="M0 0H32V40L16 30.5882L0 40V0Z" fill="#ABACFE"/>
<path d="M15.5913 23.28C18.4113 23.28 20.7913 21.7 20.7913 18.98C20.7913 17.04 19.5113 15.8 17.8513 15.34V15.24C19.4113 14.62 20.3113 13.46 20.3113 11.86C20.3113 9.34 18.3713 7.92 15.5113 7.92C13.7713 7.92 12.3513 8.62 11.0713 9.74L12.5713 11.54C13.4513 10.72 14.3113 10.24 15.3713 10.24C16.6313 10.24 17.3513 10.92 17.3513 12.08C17.3513 13.4 16.4713 14.34 13.7513 14.34V16.44C16.9713 16.44 17.8313 17.36 17.8313 18.8C17.8313 20.14 16.8113 20.88 15.3113 20.88C13.9713 20.88 12.8913 20.22 12.0113 19.36L10.6313 21.22C11.6713 22.4 13.2513 23.28 15.5913 23.28Z" fill="white"/>
</svg>
