<svg width="32" height="40" viewBox="0 0 32 40" fill="none" xmlns="http://www.w3.org/2000/svg">
<path d="M0 0H32V40L16 30.5882L0 40V0Z" fill="#ABACFE"/>
<path d="M10.9713 23H20.8913V20.52H17.6913C16.9913 20.52 16.0113 20.6 15.2713 20.68C17.9713 18.04 20.1913 15.16 20.1913 12.48C20.1913 9.72 18.3313 7.92 15.5313 7.92C13.5113 7.92 12.1913 8.7 10.8313 10.16L12.4313 11.76C13.1913 10.94 14.0713 10.24 15.1513 10.24C16.5713 10.24 17.3713 11.14 17.3713 12.64C17.3713 14.92 14.9913 17.7 10.9713 21.3V23Z" fill="white"/>
</svg>
