<svg width="63" height="26" viewBox="0 0 63 26" fill="none" xmlns="http://www.w3.org/2000/svg">
<path d="M14.058 13.218V14.408H22.934V13.218H14.058ZM12.644 17.418V18.636H24.236V17.418H12.644ZM17.684 13.75V17.852H19.14V13.75H17.684ZM14.058 8.318V13.736H15.514V9.508H22.822V8.318H14.058ZM25.5229 17.46V18.664H37.1149V17.46H25.5229ZM30.5629 14.856V17.95H32.0189V14.856H30.5629ZM26.8809 8.262V9.438H34.2729V11.146H26.9089V14.688H28.3649V12.308H35.7289V8.262H26.8809ZM26.9089 14.086V15.276H36.0229V14.086H26.9089ZM44.5338 9.34V10.516H48.0338V9.34H44.5338ZM44.5338 11.888V13.064H48.0758V11.888H44.5338ZM47.5298 7.366V14.898H48.9998V7.366H47.5298ZM38.9478 8.318V14.086H44.8838V8.318H38.9478ZM43.4418 9.48V12.924H40.3898V9.48H43.4418ZM44.7298 15.262C42.0558 15.262 40.4178 16.158 40.4178 17.698C40.4178 19.252 42.0558 20.148 44.7298 20.148C47.4038 20.148 49.0418 19.252 49.0418 17.698C49.0418 16.158 47.4038 15.262 44.7298 15.262ZM44.7298 16.396C46.5498 16.396 47.5858 16.858 47.5858 17.698C47.5858 18.552 46.5498 19.014 44.7298 19.014C42.9238 19.014 41.8738 18.552 41.8738 17.698C41.8738 16.858 42.9238 16.396 44.7298 16.396Z" fill="#8C8C95"/>
<rect x="0.75" y="0.75" width="61.5" height="24.5" rx="4.25" stroke="#8C8C95" stroke-width="1.5"/>
</svg>
