<svg width="21" height="21" viewBox="0 0 21 21" fill="none" xmlns="http://www.w3.org/2000/svg">
<path d="M8.30803 11.4812L13.6117 14.3222C14.3781 13.4728 15.5124 12.9456 16.8 12.9456C19.1299 12.9456 21 14.7615 21 16.9874C21 19.2134 19.1299 21 16.8 21C14.4394 21 12.5693 19.2134 12.5693 16.9874C12.5693 16.7531 12.6 16.4895 12.6307 16.2552L7.17372 13.3556C6.4073 14.0879 5.36496 14.5272 4.2 14.5272C1.87007 14.5272 0 12.7406 0 10.5146C0 8.2887 1.87007 6.50209 4.2 6.50209C5.39562 6.50209 6.49927 6.97071 7.26569 7.73222L12.692 4.9205C12.6307 4.62761 12.5693 4.33473 12.5693 4.04184C12.5693 1.8159 14.4394 0 16.8 0C19.1299 0 21 1.8159 21 4.04184C21 6.26778 19.1299 8.05439 16.8 8.05439C15.6044 8.05439 14.5314 7.61506 13.765 6.82427L8.30803 9.6067C8.36934 9.89958 8.4 10.2218 8.4 10.5146C8.4 10.8368 8.36934 11.1883 8.30803 11.4812Z" fill="#9796FE"/>
</svg>
