<svg width="16" height="16" viewBox="0 0 16 16" fill="none" xmlns="http://www.w3.org/2000/svg">
<path d="M2.18197 0.00020458C1.99588 0.00020458 1.80959 0.0710891 1.66778 0.213267L0.213267 1.66778C-0.0710891 1.95213 -0.0710891 2.41253 0.213267 2.69616L5.51711 8L0.213267 13.3038C-0.0710891 13.5882 -0.0710891 14.0486 0.213267 14.3322L1.66778 15.7867C1.95213 16.0711 2.41253 16.0711 2.69616 15.7867L8 10.4829L13.3038 15.7867C13.5875 16.0711 14.0486 16.0711 14.3322 15.7867L15.7867 14.3322C16.0711 14.0479 16.0711 13.5875 15.7867 13.3038L10.4829 8L15.7867 2.69616C16.0711 2.41253 16.0711 1.9514 15.7867 1.66778L14.3322 0.213267C14.0479 -0.0710891 13.5875 -0.0710891 13.3038 0.213267L8 5.51711L2.69616 0.213267C2.55398 0.0710891 2.36805 0.00020458 2.18197 0.00020458Z" fill="#E9E8EB"/>
</svg>
