<svg width="31" height="30" viewBox="0 0 31 30" fill="none" xmlns="http://www.w3.org/2000/svg">
<path d="M1.50702 0C0.697606 0 0.0414429 0.656164 0.0414429 1.46558V28.5714C0.0414817 28.9503 0.195903 29.3136 0.470745 29.5815C0.745586 29.8494 1.11834 30 1.50702 30H29.3531C29.7418 30 30.1145 29.8494 30.3894 29.5815C30.6642 29.3136 30.8186 28.9503 30.8187 28.5714V21.4656C30.8187 20.6562 30.1625 20 29.3531 20V20C28.5437 20 27.8875 20.6562 27.8875 21.4656V27.1429H2.97261V1.46558C2.97261 0.656162 2.31644 0 1.50702 0V0ZM23.475 0.700335C23.1836 0.700687 22.8989 0.785713 22.6573 0.944553C22.4156 1.10339 22.2281 1.32884 22.1186 1.59208C22.009 1.85533 21.9825 2.14442 22.0423 2.42244C22.1022 2.70046 22.2457 2.95477 22.4545 3.1529L24.3495 5H23.5265C16.1459 4.82096 11.4866 5.93962 8.80059 9.0904C6.11455 12.2412 5.78017 16.7948 5.90377 22.885C5.91136 23.2639 6.07305 23.6243 6.35327 23.887C6.63349 24.1497 7.00928 24.2931 7.39798 24.2857C7.78667 24.2783 8.15643 24.1207 8.42592 23.8476C8.6954 23.5744 8.84253 23.2081 8.83493 22.8292C8.71452 16.8959 9.22608 13.0603 11.0548 10.9152C12.8835 8.77007 16.4077 7.68619 23.455 7.85714H23.4721H24.3495L22.4545 9.70424C22.3139 9.83588 22.2016 9.99355 22.1242 10.168C22.0469 10.3425 22.006 10.5302 22.004 10.7203C22.002 10.9104 22.039 11.0989 22.1127 11.2749C22.1864 11.4508 22.2954 11.6107 22.4332 11.7451C22.5711 11.8795 22.7351 11.9857 22.9156 12.0576C23.0962 12.1294 23.2896 12.1654 23.4846 12.1635C23.6796 12.1616 23.8722 12.1217 24.0512 12.0463C24.2302 11.9709 24.3919 11.8614 24.527 11.7243L28.7935 7.56557C28.8993 7.48724 28.9936 7.39525 29.074 7.29213V7.29213C29.5596 6.81882 29.5596 6.03833 29.074 5.56501V5.56501C28.9923 5.45955 28.8959 5.36565 28.7877 5.28599L24.527 1.13281C24.3902 0.995795 24.2267 0.886919 24.046 0.812632C23.8653 0.738346 23.6711 0.700159 23.475 0.700335Z" fill="#ABACFE"/>
</svg>
