<svg width="21" height="22" viewBox="0 0 21 22" fill="none" xmlns="http://www.w3.org/2000/svg">
<path d="M10.5 0C4.69875 0 0 0.578947 0 4.63158V15.6316C0 17.8663 2.06063 19.6842 4.59375 19.6842L3.08437 21.0158C2.99368 21.0974 2.9324 21.2009 2.90826 21.3132C2.88412 21.4255 2.8982 21.5416 2.94873 21.6468C2.99926 21.7521 3.08398 21.8418 3.1922 21.9046C3.30042 21.9675 3.42731 22.0007 3.55687 22H17.4562C18.0469 22 18.3356 21.3747 17.9156 21.0158L16.4062 19.6842C18.9394 19.6842 21 17.8663 21 15.6316V4.63158C21 0.578947 16.3013 0 10.5 0ZM4.59375 17.3684C3.50437 17.3684 2.625 16.5926 2.625 15.6316C2.625 14.6705 3.50437 13.8947 4.59375 13.8947C5.68313 13.8947 6.5625 14.6705 6.5625 15.6316C6.5625 16.5926 5.68313 17.3684 4.59375 17.3684ZM9.1875 10.421H2.625V4.63158H9.1875V10.421ZM16.4062 17.3684C15.3169 17.3684 14.4375 16.5926 14.4375 15.6316C14.4375 14.6705 15.3169 13.8947 16.4062 13.8947C17.4956 13.8947 18.375 14.6705 18.375 15.6316C18.375 16.5926 17.4956 17.3684 16.4062 17.3684ZM18.375 10.421H11.8125V4.63158H18.375V10.421Z" fill="#9796FE"/>
</svg>
