<svg width="42" height="42" viewBox="0 0 42 42" fill="none" xmlns="http://www.w3.org/2000/svg">
<circle cx="21" cy="21" r="21" fill="#E9E8EB"/>
<path d="M30.2924 9.32874C30.0607 8.9244 29.734 8.58972 29.3437 8.35698C28.9534 8.12424 28.5128 8.0013 28.0642 8H13.9358C13.0284 8 12.1743 8.50905 11.7076 9.32874L8.1859 15.5058C8.06403 15.7185 7.99975 15.9622 8 16.2105C8.00519 17.5313 8.46734 18.8049 9.3 19.7931V31.2632C9.3 32.7725 10.4661 34 11.9 34H30.1C31.5339 34 32.7 32.7725 32.7 31.2632V19.7931C33.5327 18.8049 33.9948 17.5313 34 16.2105C34.0003 15.9622 33.936 15.7185 33.8141 15.5058L30.2924 9.32874ZM31.3792 16.554C31.299 17.2147 30.9929 17.822 30.5182 18.2625C30.0436 18.703 29.4328 18.9464 28.8 18.9474C27.3661 18.9474 26.2 17.7199 26.2 16.2105C26.2 16.1175 26.1675 16.0354 26.1493 15.9478L26.1753 15.9423L25.186 10.7368H28.0642L31.3792 16.554ZM19.4647 10.7368H22.534L23.5909 16.2995C23.5454 17.7664 22.404 18.9474 21 18.9474C19.596 18.9474 18.4546 17.7664 18.4091 16.2995L19.4647 10.7368ZM13.9358 10.7368H16.814L15.826 15.9423L15.852 15.9478C15.8325 16.0354 15.8 16.1175 15.8 16.2105C15.8 17.7199 14.6339 18.9474 13.2 18.9474C12.5672 18.9464 11.9564 18.703 11.4818 18.2625C11.0071 17.822 10.701 17.2147 10.6208 16.554L13.9358 10.7368ZM18.4 31.2632V27.1579H23.6V31.2632H18.4ZM26.2 31.2632V27.1579C26.2 25.6485 25.0339 24.4211 23.6 24.4211H18.4C16.9661 24.4211 15.8 25.6485 15.8 27.1579V31.2632H11.9V21.4899C12.3173 21.6035 12.7476 21.6842 13.2 21.6842C13.9382 21.6846 14.6679 21.5192 15.3405 21.1989C16.013 20.8787 16.6129 20.4111 17.1 19.8273C18.0529 20.9658 19.4491 21.6842 21 21.6842C22.5509 21.6842 23.9471 20.9658 24.9 19.8273C25.3871 20.4111 25.987 20.8787 26.6595 21.1989C27.3321 21.5192 28.0618 21.6846 28.8 21.6842C29.2524 21.6842 29.6827 21.6035 30.1 21.4899V31.2632H26.2Z" fill="white"/>
</svg>
