<svg width="21" height="21" viewBox="0 0 21 21" fill="none" xmlns="http://www.w3.org/2000/svg">
<path d="M21 10.5C21 13.2848 19.8938 15.9555 17.9246 17.9246C15.9555 19.8938 13.2848 21 10.5 21C7.71523 21 5.04451 19.8938 3.07538 17.9246C1.10625 15.9555 0 13.2848 0 10.5C0 7.71523 1.10625 5.04451 3.07538 3.07538C5.04451 1.10625 7.71523 0 10.5 0C13.2848 0 15.9555 1.10625 17.9246 3.07538C19.8938 5.04451 21 7.71523 21 10.5ZM10.5 4.59375C10.5 4.4197 10.4309 4.25278 10.3078 4.12971C10.1847 4.00664 10.0178 3.9375 9.84375 3.9375C9.6697 3.9375 9.50278 4.00664 9.37971 4.12971C9.25664 4.25278 9.1875 4.4197 9.1875 4.59375V11.8125C9.18754 11.9282 9.21815 12.0418 9.27623 12.1418C9.33432 12.2418 9.41781 12.3248 9.51825 12.3821L14.112 15.0071C14.2628 15.0886 14.4394 15.1079 14.6042 15.0608C14.7689 15.0138 14.9088 14.9042 14.9938 14.7554C15.0788 14.6066 15.1023 14.4305 15.0591 14.2646C15.016 14.0988 14.9097 13.9564 14.763 13.8679L10.5 11.4319V4.59375Z" fill="#9796FE"/>
</svg>
