<svg width="153" height="162" viewBox="0 0 153 162" fill="none" xmlns="http://www.w3.org/2000/svg">
<path d="M132.258 52.2715H20.38C14.6791 52.2715 10.0576 56.893 10.0576 62.5938V126.326C10.0576 132.026 14.6791 136.648 20.38 136.648H132.258C137.959 136.648 142.58 132.026 142.58 126.326V62.5938C142.58 56.893 137.959 52.2715 132.258 52.2715Z" fill="#D7DEF0"/>
<path d="M149.982 50.334L139.616 33.4339C137.18 28.995 132.364 26.2129 127.114 26.2129H25.5242C20.2744 26.2129 15.458 28.995 13.0218 33.4339L2.66064 50.334C3.86826 47.9355 5.71569 45.9178 7.99864 44.504C10.2816 43.0901 12.9111 42.3352 15.5963 42.3227L138.49 42.4199C140.907 42.6971 143.219 43.5637 145.223 44.9436C147.227 46.3236 148.861 48.1746 149.982 50.334Z" fill="#FFF1D8"/>
<path d="M136.807 42.3242H15.8305C7.63983 42.3242 1 48.9641 1 57.1547V145.928C1 154.118 7.63983 160.758 15.8305 160.758H136.807C144.998 160.758 151.638 154.118 151.638 145.928V57.1547C151.638 48.9641 144.998 42.3242 136.807 42.3242Z" stroke="#9796FE" stroke-width="2" stroke-linecap="round" stroke-linejoin="round"/>
<path d="M86.9072 31.8644C87.3866 31.7832 87.8437 31.6025 88.2491 31.334C88.6545 31.0655 88.9992 30.715 89.2609 30.3052C89.5227 29.8954 89.6957 29.4353 89.7688 28.9546C89.842 28.4738 89.8136 27.9831 89.6856 27.514C88.8767 24.5973 87.1366 22.0249 84.7305 20.1886C82.3244 18.3523 79.3841 17.3526 76.3573 17.3419C73.3305 17.3312 70.3832 18.31 67.9641 20.1292C65.545 21.9484 63.7868 24.5085 62.9572 27.4193C62.388 29.4258 63.7426 31.4711 65.8037 31.7806C68.7812 32.2285 73.2359 32.7808 77.1068 32.7808C80.7397 32.7808 84.3897 32.2941 86.9072 31.8644Z" fill="#9796FE" stroke="#9796FE" stroke-width="2" stroke-linecap="round" stroke-linejoin="round"/>
<path d="M68.8551 19.5824L55.6548 1" stroke="#9796FE" stroke-width="2" stroke-linecap="round" stroke-linejoin="round"/>
<path d="M84.8728 19.9609L98.5392 2.04492" stroke="#9796FE" stroke-width="2" stroke-linecap="round" stroke-linejoin="round"/>
<path d="M132.258 52.2715H20.38C14.6791 52.2715 10.0576 56.893 10.0576 62.5938V126.326C10.0576 132.026 14.6791 136.648 20.38 136.648H132.258C137.959 136.648 142.58 132.026 142.58 126.326V62.5938C142.58 56.893 137.959 52.2715 132.258 52.2715Z" stroke="#9796FE" stroke-width="2" stroke-linecap="round" stroke-linejoin="round"/>
<path d="M104.999 63.2051H47.6375C36.5796 63.2051 27.6155 72.1692 27.6155 83.2271V105.693C27.6155 116.75 36.5796 125.715 47.6375 125.715H104.999C116.057 125.715 125.021 116.75 125.021 105.693V83.2271C125.021 72.1692 116.057 63.2051 104.999 63.2051Z" fill="white" stroke="#9796FE" stroke-width="2" stroke-linecap="round" stroke-linejoin="round"/>
<path d="M35.6825 156.539C39.7631 156.539 43.071 153.231 43.071 149.15C43.071 145.07 39.7631 141.762 35.6825 141.762C31.6019 141.762 28.2939 145.07 28.2939 149.15C28.2939 153.231 31.6019 156.539 35.6825 156.539Z" stroke="#9796FE" stroke-width="2" stroke-linecap="round" stroke-linejoin="round"/>
<path d="M35.6826 152.428C37.4926 152.428 38.9599 150.96 38.9599 149.15C38.9599 147.34 37.4926 145.873 35.6826 145.873C33.8726 145.873 32.4053 147.34 32.4053 149.15C32.4053 150.96 33.8726 152.428 35.6826 152.428Z" stroke="#9796FE" stroke-width="2" stroke-linecap="round" stroke-linejoin="round"/>
<path d="M116.955 156.539C121.036 156.539 124.344 153.231 124.344 149.15C124.344 145.07 121.036 141.762 116.955 141.762C112.875 141.762 109.567 145.07 109.567 149.15C109.567 153.231 112.875 156.539 116.955 156.539Z" stroke="#9796FE" stroke-width="2" stroke-linecap="round" stroke-linejoin="round"/>
<path d="M116.955 152.428C118.765 152.428 120.233 150.96 120.233 149.15C120.233 147.34 118.765 145.873 116.955 145.873C115.145 145.873 113.678 147.34 113.678 149.15C113.678 150.96 115.145 152.428 116.955 152.428Z" stroke="#9796FE" stroke-width="2" stroke-linecap="round" stroke-linejoin="round"/>
<path d="M62.3939 153.477C64.7845 153.477 66.7224 151.539 66.7224 149.149C66.7224 146.758 64.7845 144.82 62.3939 144.82C60.0034 144.82 58.0654 146.758 58.0654 149.149C58.0654 151.539 60.0034 153.477 62.3939 153.477Z" stroke="#9796FE" stroke-width="2" stroke-linecap="round" stroke-linejoin="round"/>
<path d="M90.2438 153.477C92.6343 153.477 94.5723 151.539 94.5723 149.149C94.5723 146.758 92.6343 144.82 90.2438 144.82C87.8532 144.82 85.9153 146.758 85.9153 149.149C85.9153 151.539 87.8532 153.477 90.2438 153.477Z" stroke="#9796FE" stroke-width="2" stroke-linecap="round" stroke-linejoin="round"/>
<path d="M19.0022 59.9004L28.4967 66.4149" stroke="#9796FE" stroke-width="2" stroke-linecap="round" stroke-linejoin="round"/>
<path d="M125.902 66.7431L135.397 60.2285" stroke="#9796FE" stroke-width="2" stroke-linecap="round" stroke-linejoin="round"/>
<path d="M19.0022 128.972L28.4967 122.457" stroke="#9796FE" stroke-width="2" stroke-linecap="round" stroke-linejoin="round"/>
<path d="M125.902 122.457L135.397 128.972" stroke="#9796FE" stroke-width="2" stroke-linecap="round" stroke-linejoin="round"/>
<path d="M149.982 50.334L139.616 33.4339C137.18 28.995 132.364 26.2129 127.114 26.2129H25.5242C20.2744 26.2129 15.458 28.995 13.0218 33.4339L2.66064 50.334" stroke="#9796FE" stroke-width="2" stroke-linecap="round" stroke-linejoin="round"/>
</svg>
