<svg width="17" height="17" viewBox="0 0 17 17" fill="none" xmlns="http://www.w3.org/2000/svg">
<path fill-rule="evenodd" clip-rule="evenodd" d="M11.0539 3.07767L12.269 1.86242C12.5185 1.62632 12.8501 1.49632 13.1937 1.50008C13.5399 1.50386 13.8707 1.64301 14.1155 1.88774C14.3603 2.13246 14.4996 2.4633 14.5034 2.80942C14.5073 3.15305 14.3774 3.48462 14.1414 3.73416L12.9259 4.94963L11.0539 3.07767ZM9.63974 4.49194L2.36043 11.7718L1.8299 11.2414L2.36039 11.7719C2.23886 11.8934 2.15602 12.0482 2.12231 12.2167L2.1223 12.2167L1.70609 14.2978L3.78638 13.8816L3.7864 13.8816C3.95493 13.8479 4.10971 13.7651 4.23123 13.6435L4.23128 13.6435L11.5116 6.36378L9.63974 4.49194ZM1.29977 10.7112L1.29973 10.7112C0.968804 11.0421 0.743231 11.4636 0.65144 11.9225L0.651437 11.9225L0.0145767 15.1068C-0.0346037 15.3527 0.0423685 15.6069 0.219695 15.7843C0.397021 15.9616 0.651236 16.0385 0.897135 15.9893L4.08061 15.3525L4.08063 15.3525C4.53954 15.2607 4.96102 15.0351 5.29194 14.7041L15.2086 4.7883L15.2203 4.77633C15.7305 4.24284 16.0116 3.53078 16.0033 2.79261C15.9951 2.05444 15.6981 1.34885 15.176 0.826929C14.654 0.305005 13.9483 0.00823598 13.2101 0.000168853C12.472 -0.00789828 11.76 0.273377 11.2266 0.783767L11.2148 0.795324L1.29977 10.7112Z" fill="#F8F8F8"/>
</svg>
