<svg width="191" height="196" viewBox="0 0 191 196" fill="none" xmlns="http://www.w3.org/2000/svg">
<path d="M190.081 80.4553L176.579 46.924C175.725 44.7938 174.335 42.9792 172.607 41.6182C175.447 38.3834 177.135 34.261 177.135 29.8034V18.9353C177.135 8.50116 167.862 0 156.464 0H34.5443C23.1466 0 13.8735 8.48143 13.8735 18.9353V29.8034C13.8735 34.261 15.5614 38.3834 18.4009 41.6182C16.6733 42.9792 15.2834 44.7938 14.4295 46.924L0.927049 80.4553C-0.502628 83.9859 -0.264354 87.9308 1.5426 91.2839C3.23041 94.4003 6.08977 96.6686 9.48525 97.5956C10.0214 97.7534 10.9149 98.0296 12.1063 98.3254V180.221C12.1063 188.939 19.215 196 27.9916 196H163.017C171.793 196 178.902 188.939 178.902 180.221V98.2268C179.478 98.069 180.014 97.931 180.451 97.8126C180.55 97.7929 180.629 97.7732 180.729 97.7534C184.462 96.9842 187.639 94.6173 189.466 91.2642C191.273 87.9308 191.491 83.9859 190.081 80.4553ZM67.5261 104.361C67.268 103.552 68.0424 102.823 68.8367 103.099L71.6365 104.105L74.059 102.369C74.754 101.876 75.7071 102.389 75.6674 103.217L75.5879 106.176L77.9906 107.931C78.6657 108.424 78.487 109.489 77.6729 109.726L74.8135 110.554L73.8803 113.375C73.6221 114.164 72.5499 114.322 72.0733 113.631L70.3855 111.186L67.407 111.166C66.5532 111.166 66.0965 110.199 66.6127 109.529L68.4396 107.182L67.5261 104.361ZM36.9271 124.914L41.2955 121.127L40.6204 115.387C40.4417 113.77 42.209 112.626 43.6188 113.474L48.6028 116.432L53.8846 114.026C55.3739 113.355 57.022 114.657 56.6447 116.255L55.354 121.876L59.2856 126.137C60.3976 127.34 59.6431 129.293 57.995 129.431L52.2167 129.943L49.3573 134.973C48.5432 136.393 46.4384 136.275 45.803 134.776L43.5195 129.47L37.8206 128.326C36.2321 128.01 35.6959 125.979 36.9271 124.914ZM153.585 174.284C153.585 176.453 151.798 178.228 149.613 178.228H110.893C108.709 178.228 106.922 176.453 106.922 174.284V159.826C106.922 154.737 101.58 150.614 95.0077 150.614C88.4352 150.614 83.0937 154.737 83.0937 159.826V174.284C83.0937 176.453 81.3066 178.228 79.1224 178.228H40.402C38.2177 178.228 36.4306 176.453 36.4306 174.284V154.875C36.4306 153.455 37.1852 152.153 38.4163 151.463L93.022 120.2C94.2531 119.49 95.7622 119.49 96.9934 120.2L151.599 151.463C152.83 152.173 153.585 153.474 153.585 154.875V174.284ZM180.729 86.6092C180.431 87.1418 180.014 87.5757 179.498 87.8321C179.259 87.8716 179.041 87.9308 178.803 88.0097C178.684 88.0491 165.816 92.2306 152.671 90.2385C140.599 88.4041 133.847 78.4828 133.788 78.4039C132.914 77.0824 131.484 76.254 129.896 76.1554C128.327 76.0765 126.778 76.7471 125.785 77.97C121.635 83.0194 112.204 91.4811 95.5836 91.4811C78.9437 91.4811 69.4324 82.98 65.2426 77.9306C64.2895 76.7866 62.8797 76.1357 61.4103 76.1357C61.3309 76.1357 61.2515 76.1357 61.172 76.1357C59.6034 76.2145 58.1538 77.0232 57.2801 78.325C57.2205 78.4237 50.3501 88.4436 38.2376 90.2582C27.2767 91.9151 16.5145 89.2917 13.1786 88.345C12.9998 88.2661 12.8211 88.2069 12.6226 88.1674L11.8482 87.9505C11.2128 87.6941 10.6568 87.2207 10.3192 86.5895C10.0809 86.1359 9.74334 85.2088 10.1802 84.1042L23.6827 50.573C24.1394 49.4487 25.2315 48.7189 26.4428 48.7189H48.7617C51.5019 48.7189 53.7258 46.5098 53.7258 43.7879C53.7258 41.0659 51.5019 38.8568 48.7617 38.8568H34.584C28.6667 38.8568 23.8416 34.7936 23.8416 29.7836V18.9156C23.8416 13.9253 28.6667 9.84241 34.584 9.84241H156.504C162.421 9.84241 167.246 13.9056 167.246 18.9156V29.7836C167.246 34.7936 162.421 38.8568 156.504 38.8568H70.7628H70.7429C68.0027 38.8568 65.7986 41.0659 65.7986 43.7879C65.7986 46.5098 68.0226 48.7189 70.7628 48.7189H164.625C165.856 48.7189 166.928 49.4487 167.385 50.573L180.888 84.1042C181.305 85.2285 180.967 86.1556 180.729 86.6092Z" fill="url(#paint0_linear_1144_13455)"/>
<defs>
<linearGradient id="paint0_linear_1144_13455" x1="95.5041" y1="-0.00710074" x2="95.5041" y2="195.979" gradientUnits="userSpaceOnUse">
<stop stop-color="#7683FF"/>
<stop offset="0.2651" stop-color="#7A85FF"/>
<stop offset="0.5398" stop-color="#878CFF"/>
<stop offset="0.8179" stop-color="#9B97FF"/>
<stop offset="1" stop-color="#ADA0FF"/>
</linearGradient>
</defs>
</svg>
