<svg width="59" height="26" viewBox="0 0 59 26" fill="none" xmlns="http://www.w3.org/2000/svg">
<path d="M27.1523 23.3634V23.9179C27.1523 24.5553 26.6266 25.0739 25.9804 25.0739H1.6539C1.00768 25.0739 0.481934 24.5553 0.481934 23.9179V23.3634C0.481934 22.726 1.00768 22.2074 1.6539 22.2074H12.2052V15.9919C12.2052 15.3545 12.731 14.8359 13.3772 14.8359H14.1913C14.8376 14.8359 15.3633 15.3545 15.3633 15.9919V22.2074H25.9804C26.6266 22.2038 27.1523 22.7224 27.1523 23.3634Z" fill="#9796FE"/>
<path d="M1.01172 14.9084V14.3142C1.01172 13.738 1.44252 13.2375 2.02302 13.169C7.12344 12.5749 11.6908 7.54051 13.2571 1.18455C13.4031 0.590365 13.9873 0.208647 14.597 0.313079L15.4769 0.464326C16.1414 0.579561 16.5758 1.22416 16.4152 1.87236C16.0391 3.41003 15.5097 4.87569 14.8635 6.2261L25.5572 13.1366C26.1049 13.4931 26.2546 14.2206 25.8822 14.7571L25.5244 15.2721C25.1593 15.7979 24.4364 15.9347 23.9033 15.5782L13.4871 8.66405C10.7489 12.7981 6.7401 15.5962 2.30781 16.0607C1.61778 16.1364 1.01172 15.5962 1.01172 14.9084Z" fill="#9796FE"/>
<path d="M41.0945 13.0471H32.668C32.0218 13.0471 31.4961 12.5285 31.4961 11.8911V1.80439C31.4961 1.167 32.0218 0.648438 32.668 0.648438H46.6148C47.261 0.648438 47.7868 1.167 47.7868 1.80439V2.08168C47.7868 2.71908 47.261 3.23764 46.6148 3.23764H35.7641C35.1179 3.23764 34.5921 3.7562 34.5921 4.39359V9.29831C34.5921 9.9357 35.1179 10.4543 35.7641 10.4543L39.5794 10.5227C42.3395 10.5227 46.4761 10.2058 48.2395 9.75925C48.977 9.57199 49.6926 10.1266 49.6926 10.8792V11.0665C49.6926 11.5706 49.364 12.0207 48.8748 12.1684C47.115 12.7086 44.322 13.0471 41.0945 13.0471Z" fill="#9796FE"/>
<path d="M32.4023 16.9177V24.8437C32.4023 25.4811 32.9281 25.9997 33.5743 25.9997H53.5561C54.2023 25.9997 54.7281 25.4811 54.7281 24.8437V16.9177C54.7281 16.2803 54.2023 15.7617 53.5561 15.7617H33.5743C32.9281 15.7617 32.4023 16.2767 32.4023 16.9177ZM50.4601 23.4105H36.6703C36.0241 23.4105 35.4984 22.8919 35.4984 22.2545V19.5105C35.4984 18.8731 36.0241 18.3545 36.6703 18.3545H50.4601C51.1063 18.3545 51.632 18.8731 51.632 19.5105V22.2545C51.632 22.8919 51.11 23.4105 50.4601 23.4105Z" fill="#9796FE"/>
<path d="M57.3096 8.32937H54.7284V13.1549C54.7284 13.7923 54.2026 14.3108 53.5564 14.3108H52.8043C52.1581 14.3108 51.6323 13.7923 51.6323 13.1549V1.15596C51.6323 0.51856 52.1581 0 52.8043 0H53.5564C54.2026 0 54.7284 0.51856 54.7284 1.15596V5.39806H57.3096C57.9558 5.39806 58.4816 5.91662 58.4816 6.55402V7.16981C58.4816 7.81081 57.9558 8.32937 57.3096 8.32937Z" fill="#9796FE"/>
</svg>
