<svg width="40" height="19" viewBox="0 0 40 19" fill="none" xmlns="http://www.w3.org/2000/svg">
<path d="M18.302 16.4501V16.8221C18.302 17.2496 17.9512 17.5974 17.52 17.5974H1.28974C0.858585 17.5974 0.507812 17.2496 0.507812 16.8221V16.4501C0.507812 16.0226 0.858585 15.6747 1.28974 15.6747H8.32944V11.5058C8.32944 11.0783 8.68021 10.7305 9.11136 10.7305H9.65456C10.0857 10.7305 10.4365 11.0783 10.4365 11.5058V15.6747H17.52C17.9512 15.6723 18.302 16.0201 18.302 16.4501Z" fill="#9796FE"/>
<path d="M0.861328 10.7815V10.383C0.861328 9.99653 1.14875 9.66079 1.53606 9.6149C4.93899 9.21636 7.98628 5.83966 9.03128 1.57651C9.12871 1.17798 9.51845 0.921946 9.92524 0.991992L10.5123 1.09344C10.9556 1.17073 11.2455 1.60308 11.1383 2.03785C10.8874 3.06922 10.5342 4.05228 10.1031 4.95805L17.2378 9.59316C17.6032 9.83228 17.703 10.3202 17.4546 10.6801L17.2159 11.0255C16.9723 11.3781 16.49 11.4699 16.1343 11.2308L9.18474 6.59326C7.35783 9.36611 4.68323 11.2429 1.72606 11.5544C1.26568 11.6052 0.861328 11.2429 0.861328 10.7815Z" fill="#9796FE"/>
<path d="M27.6032 9.53099H21.9811C21.55 9.53099 21.1992 9.18318 21.1992 8.75566V1.99018C21.1992 1.56266 21.55 1.21484 21.9811 1.21484H31.2862C31.7174 1.21484 32.0681 1.56266 32.0681 1.99018V2.17616C32.0681 2.60369 31.7174 2.9515 31.2862 2.9515H24.0468C23.6156 2.9515 23.2648 3.29932 23.2648 3.72684V7.01658C23.2648 7.44411 23.6156 7.79192 24.0468 7.79192L26.5923 7.83781C28.4338 7.83781 31.1937 7.62526 32.3702 7.32575C32.8622 7.20015 33.3397 7.57212 33.3397 8.07694V8.20254C33.3397 8.54069 33.1204 8.84261 32.794 8.94164C31.6199 9.30395 29.7565 9.53099 27.6032 9.53099Z" fill="#9796FE"/>
<path d="M21.8047 12.1269V17.4431C21.8047 17.8707 22.1555 18.2185 22.5866 18.2185H35.9182C36.3494 18.2185 36.7001 17.8707 36.7001 17.4431V12.1269C36.7001 11.6994 36.3494 11.3516 35.9182 11.3516H22.5866C22.1555 11.3516 21.8047 11.697 21.8047 12.1269ZM33.8526 16.4818H24.6522C24.2211 16.4818 23.8703 16.134 23.8703 15.7065V13.866C23.8703 13.4384 24.2211 13.0906 24.6522 13.0906H33.8526C34.2837 13.0906 34.6345 13.4384 34.6345 13.866V15.7065C34.6345 16.134 34.2862 16.4818 33.8526 16.4818Z" fill="#9796FE"/>
<path d="M38.4226 6.36802H36.7004V9.60463C36.7004 10.0322 36.3496 10.38 35.9185 10.38H35.4167C34.9855 10.38 34.6348 10.0322 34.6348 9.60463V1.55659C34.6348 1.12906 34.9855 0.78125 35.4167 0.78125H35.9185C36.3496 0.78125 36.7004 1.12906 36.7004 1.55659V4.4019H38.4226C38.8537 4.4019 39.2045 4.74972 39.2045 5.17724V5.59027C39.2045 6.02021 38.8537 6.36802 38.4226 6.36802Z" fill="#9796FE"/>
</svg>
