<svg width="30" height="30" viewBox="0 0 30 30" fill="none" xmlns="http://www.w3.org/2000/svg">
<circle cx="15" cy="15" r="15" fill="#B2C7FF"/>
<path d="M15.0003 5.46667C10.5453 5.46667 6.93359 9.07834 6.93359 13.5333C6.93359 18.8383 12.1784 21.3778 12.8355 21.9689C13.5065 22.5724 14.0609 23.9254 14.2845 24.6925C14.3931 25.065 14.6981 25.2535 15.0003 25.2615C15.3031 25.2527 15.6075 25.0643 15.716 24.6925C15.9397 23.9254 16.4941 22.5731 17.1651 21.9689C17.8221 21.3778 23.0669 18.8383 23.0669 13.5333C23.0669 9.07834 19.4553 5.46667 15.0003 5.46667ZM15.0003 15.7333C13.7851 15.7333 12.8003 14.7485 12.8003 13.5333C12.8003 12.3182 13.7851 11.3333 15.0003 11.3333C16.2154 11.3333 17.2003 12.3182 17.2003 13.5333C17.2003 14.7485 16.2154 15.7333 15.0003 15.7333Z" fill="white"/>
</svg>
