<svg width="34" height="34" viewBox="0 0 34 34" fill="none" xmlns="http://www.w3.org/2000/svg">
<circle cx="17" cy="17" r="17" fill="#D9E1FC"/>
<mask id="mask0_1067_4209" style="mask-type:alpha" maskUnits="userSpaceOnUse" x="4" y="6" width="26" height="28">
<path d="M16.9988 6.7998C15.0546 6.7998 13.1901 7.57523 11.8153 8.9555C10.4406 10.3358 9.66824 12.2078 9.66824 14.1598C9.66824 16.1118 10.4406 17.9838 11.8153 19.3641C13.1901 20.7444 15.0546 21.5198 16.9988 21.5198C18.943 21.5198 20.8075 20.7444 22.1823 19.3641C23.557 17.9838 24.3294 16.1118 24.3294 14.1598C24.3294 12.2078 23.557 10.3358 22.1823 8.9555C20.8075 7.57523 18.943 6.7998 16.9988 6.7998ZM16.9988 24.0798C12.218 24.0798 7.72405 26.4476 5.0468 30.3836C4.50498 31.1836 4.25 32.1117 4.25 33.0717C4.25 33.5837 4.69621 33.9998 5.20616 33.9998H28.7914C29.3014 33.9998 29.7476 33.5837 29.7476 33.0717C29.7795 32.1117 29.4926 31.1516 28.9508 30.3836C26.2736 26.4476 21.7796 24.0798 16.9988 24.0798Z" fill="white"/>
</mask>
<g mask="url(#mask0_1067_4209)">
<circle cx="17" cy="17" r="17" fill="white"/>
</g>
</svg>
