<svg width="20" height="20" viewBox="0 0 20 20" fill="none" xmlns="http://www.w3.org/2000/svg">
<ellipse cx="10" cy="9.99987" rx="10" ry="9.99987" fill="#D9E1FC"/>
<mask id="mask0_3740_20243" style="mask-type:alpha" maskUnits="userSpaceOnUse" x="2" y="4" width="16" height="16">
<path d="M9.99929 4.00031C8.85566 4.00031 7.75886 4.45643 6.95018 5.26834C6.14151 6.08026 5.6872 7.18144 5.6872 8.32966C5.6872 9.47788 6.14151 10.5791 6.95018 11.391C7.75886 12.2029 8.85566 12.659 9.99929 12.659C11.1429 12.659 12.2397 12.2029 13.0484 11.391C13.8571 10.5791 14.3114 9.47788 14.3114 8.32966C14.3114 7.18144 13.8571 6.08026 13.0484 5.26834C12.2397 4.45643 11.1429 4.00031 9.99929 4.00031ZM9.99929 14.1649C7.18706 14.1649 4.54356 15.5576 2.96871 17.8729C2.64999 18.3435 2.5 18.8894 2.5 19.4541C2.5 19.7553 2.76248 20.0001 3.06245 20.0001H16.9361C17.2361 20.0001 17.4986 19.7553 17.4986 19.4541C17.5173 18.8894 17.3486 18.3247 17.0299 17.8729C15.455 15.5576 12.8115 14.1649 9.99929 14.1649Z" fill="white"/>
</mask>
<g mask="url(#mask0_3740_20243)">
<ellipse cx="10" cy="9.99993" rx="10" ry="9.99987" fill="white"/>
</g>
</svg>
