<svg width="110" height="110" viewBox="0 0 110 110" fill="none" xmlns="http://www.w3.org/2000/svg">
<ellipse cx="55" cy="54.9995" rx="55" ry="54.9995" fill="#D9E1FC"/>
<mask id="mask0_3552_29092" style="mask-type:alpha" maskUnits="userSpaceOnUse" x="13" y="22" width="84" height="89">
<path d="M54.9963 22.0008C48.7062 22.0008 42.6738 24.5095 38.2261 28.975C33.7784 33.4406 31.2797 39.4971 31.2797 45.8124C31.2797 52.1276 33.7784 58.1842 38.2261 62.6497C42.6738 67.1152 48.7062 69.6239 54.9963 69.6239C61.2863 69.6239 67.3187 67.1152 71.7664 62.6497C76.2142 58.1842 78.7129 52.1276 78.7129 45.8124C78.7129 39.4971 76.2142 33.4406 71.7664 28.975C67.3187 24.5095 61.2863 22.0008 54.9963 22.0008ZM54.9963 77.9062C39.5289 77.9062 24.9896 85.5665 16.3279 98.3005C14.5749 100.889 13.75 103.891 13.75 106.997C13.75 108.654 15.1936 110 16.8435 110H93.1491C94.7989 110 96.2425 108.654 96.2425 106.997C96.3456 103.891 95.4176 100.785 93.6646 98.3005C85.0029 85.5665 70.4636 77.9062 54.9963 77.9062Z" fill="white"/>
</mask>
<g mask="url(#mask0_3552_29092)">
<ellipse cx="55" cy="55" rx="55" ry="54.9995" fill="white"/>
</g>
</svg>
